<svg width="106" height="118" viewBox="0 0 106 118" fill="none" xmlns="http://www.w3.org/2000/svg">
<g filter="url(#filter0_d_505_429)">
<path d="M101.807 32.3053C101.807 30.4673 101.415 28.8101 100.602 27.424C99.8183 26.038 98.6432 24.893 97.0764 23.989C84.0596 16.4862 71.0126 8.98356 57.9958 1.48075C54.4703 -0.538091 51.0956 -0.477803 47.6004 1.57112C42.4177 4.61448 16.4443 19.4994 8.73068 23.989C5.53666 25.827 4 28.6594 4 32.3355V77.6533C4 79.4612 4.39168 81.0581 5.14497 82.4443C5.92847 83.8605 7.13373 85.0657 8.73068 85.9997C16.4745 90.4894 42.4177 105.344 47.6004 108.418C51.0956 110.466 54.5004 110.557 57.9958 108.508C71.0126 100.975 84.0596 93.5026 97.0764 85.9997C98.7034 85.0657 99.8786 83.8905 100.662 82.4443C101.415 81.0581 101.807 79.4612 101.807 77.6533V32.3053Z" fill="#9A4993"/>
<path d="M53.0238 54.8135L5.08447 82.4139C5.86797 83.8301 7.07323 85.0354 8.67018 85.9696C16.414 90.4591 42.3572 105.314 47.5399 108.387C51.0351 110.436 54.4401 110.527 57.9353 108.478C70.9521 100.945 83.9991 93.4722 97.0159 85.9696C98.6429 85.0354 99.8181 83.8603 100.601 82.4139L53.0238 54.8135Z" fill="#6A1577"/>
<path d="M38.832 62.9791C41.6344 67.8604 46.8772 71.1448 52.8734 71.1448C58.9298 71.1448 64.2028 67.8303 66.975 62.8887L53.0241 54.8135L38.832 62.9791Z" fill="#6A1577"/>
<path d="M101.807 32.3052C101.807 30.4672 101.415 28.81 100.602 27.4238L53.0239 54.8135L100.662 82.414C101.415 81.0279 101.807 79.431 101.807 77.6231V32.3052Z" fill="#813084"/>
<path d="M66.9747 62.8888C64.2027 67.8002 58.9297 71.1449 52.8732 71.1449C46.8469 71.1449 41.6041 67.8605 38.8319 62.9791C37.476 60.5988 36.6925 57.887 36.6925 54.9642C36.6925 46.0151 43.9241 38.7835 52.8732 38.7835C58.8392 38.7835 64.0521 42.0377 66.8543 46.8588L80.9859 38.7232C75.3514 29.021 64.8655 22.4824 52.8431 22.4824C34.8846 22.4824 20.3613 37.0359 20.3613 54.9642C20.3613 60.8399 21.9281 66.3841 24.6701 71.1449C30.2745 80.8773 40.8206 87.446 52.8732 87.446C64.956 87.446 75.5021 80.8473 81.1065 71.0545L66.9747 62.8888ZM84.8427 47.2807H81.6186V62.8587H84.8427V47.2807ZM91.9839 47.2807H88.7598V62.8587H91.9839V47.2807Z" fill="white"/>
<path d="M94.6054 49.9021H79.0273V53.1262H94.6054V49.9021ZM94.6054 57.0131H79.0273V60.2372H94.6054V57.0131Z" fill="white"/>
</g>
<defs>
<filter id="filter0_d_505_429" x="0" y="0" width="105.807" height="118" filterUnits="userSpaceOnUse" color-interpolation-filters="sRGB">
<feFlood flood-opacity="0" result="BackgroundImageFix"/>
<feColorMatrix in="SourceAlpha" type="matrix" values="0 0 0 0 0 0 0 0 0 0 0 0 0 0 0 0 0 0 127 0" result="hardAlpha"/>
<feOffset dy="4"/>
<feGaussianBlur stdDeviation="2"/>
<feComposite in2="hardAlpha" operator="out"/>
<feColorMatrix type="matrix" values="0 0 0 0 0 0 0 0 0 0 0 0 0 0 0 0 0 0 0.25 0"/>
<feBlend mode="normal" in2="BackgroundImageFix" result="effect1_dropShadow_505_429"/>
<feBlend mode="normal" in="SourceGraphic" in2="effect1_dropShadow_505_429" result="shape"/>
</filter>
</defs>
</svg>
