<svg width="106" height="118" viewBox="0 0 106 118" fill="none" xmlns="http://www.w3.org/2000/svg">
<g filter="url(#filter0_d_122_178)">
<path d="M101.801 32.3053C101.801 30.4673 101.409 28.8101 100.595 27.424C99.812 26.038 98.6368 24.893 97.0701 23.989C84.0532 16.4862 71.0063 8.98356 57.9894 1.48075C54.464 -0.538091 51.0892 -0.477803 47.594 1.57112C42.4114 4.61448 16.438 19.4994 8.72433 23.989C5.53031 25.827 3.99365 28.6594 3.99365 32.3355V77.6533C3.99365 79.4612 4.38534 81.0581 5.13863 82.4443C5.92212 83.8605 7.12739 85.0657 8.72433 85.9997C16.4682 90.4894 42.4114 105.344 47.594 108.418C51.0892 110.466 54.4941 110.557 57.9894 108.508C71.0063 100.975 84.0532 93.5025 97.0701 85.9997C98.6971 85.0657 99.8723 83.8905 100.656 82.4443C101.409 81.0581 101.801 79.4612 101.801 77.6533V32.3053Z" fill="#9A4993"/>
<path d="M53.0177 54.8135L5.07837 82.4139C5.86187 83.8301 7.06713 85.0354 8.66408 85.9696C16.4079 90.4591 42.3511 105.314 47.5338 108.387C51.029 110.436 54.434 110.527 57.9292 108.478C70.946 100.945 83.993 93.4722 97.0098 85.9696C98.6368 85.0354 99.812 83.8603 100.595 82.4139L53.0177 54.8135Z" fill="#6A1577"/>
<path d="M38.8257 62.9791C41.628 67.8604 46.8708 71.1448 52.8671 71.1448C58.9235 71.1448 64.1965 67.8303 66.9686 62.8887L53.0177 54.8135L38.8257 62.9791Z" fill="#6A1577"/>
<path d="M101.801 32.3052C101.801 30.4672 101.409 28.81 100.596 27.4238L53.0178 54.8135L100.656 82.414C101.409 81.0279 101.801 79.431 101.801 77.6231V32.3052Z" fill="#813084"/>
<path d="M66.9686 62.8888C64.1966 67.8002 58.9236 71.1449 52.8671 71.1449C46.8408 71.1449 41.598 67.8605 38.8258 62.9791C37.4699 60.5988 36.6864 57.887 36.6864 54.9642C36.6864 46.0151 43.918 38.7835 52.8671 38.7835C58.8331 38.7835 64.046 42.0377 66.8482 46.8588L80.9798 38.7232C75.3453 29.021 64.8594 22.4824 52.837 22.4824C34.8785 22.4824 20.3552 37.0359 20.3552 54.9642C20.3552 60.8399 21.922 66.3841 24.664 71.1449C30.2684 80.8773 40.8145 87.446 52.8671 87.446C64.9499 87.446 75.496 80.8473 81.1004 71.0545L66.9686 62.8888ZM84.8366 47.2807H81.6125V62.8587H84.8366V47.2807ZM91.9778 47.2807H88.7537V62.8587H91.9778V47.2807Z" fill="white"/>
<path d="M94.5993 49.9021H79.0212V53.1262H94.5993V49.9021ZM94.5993 57.0131H79.0212V60.2372H94.5993V57.0131Z" fill="white"/>
</g>
<defs>
<filter id="filter0_d_122_178" x="-0.00634766" y="0" width="105.807" height="118" filterUnits="userSpaceOnUse" color-interpolation-filters="sRGB">
<feFlood flood-opacity="0" result="BackgroundImageFix"/>
<feColorMatrix in="SourceAlpha" type="matrix" values="0 0 0 0 0 0 0 0 0 0 0 0 0 0 0 0 0 0 127 0" result="hardAlpha"/>
<feOffset dy="4"/>
<feGaussianBlur stdDeviation="2"/>
<feComposite in2="hardAlpha" operator="out"/>
<feColorMatrix type="matrix" values="0 0 0 0 0 0 0 0 0 0 0 0 0 0 0 0 0 0 0.25 0"/>
<feBlend mode="normal" in2="BackgroundImageFix" result="effect1_dropShadow_122_178"/>
<feBlend mode="normal" in="SourceGraphic" in2="effect1_dropShadow_122_178" result="shape"/>
</filter>
</defs>
</svg>
