<svg width="57" height="57" viewBox="0 0 57 57" fill="none" xmlns="http://www.w3.org/2000/svg">
<g clip-path="url(#clip0_445_58)">
<path d="M57 44.1465C56.1704 44.4603 55.2547 44.4596 54.4256 44.1445C53.5965 43.8295 52.9113 43.222 52.4994 42.4365L44.3057 31.1054L43.1182 29.5212L33.611 42.4507C33.2239 43.2033 32.5759 43.789 31.7882 44.0985C31.0006 44.408 30.1271 44.42 29.3313 44.1322L41.5815 27.6972L30.1863 12.8511C31.0056 12.5558 31.9017 12.5519 32.7236 12.84C33.5455 13.1281 34.2431 13.6907 34.6988 14.4329L43.1918 25.9041L51.7323 14.4804C52.1224 13.7412 52.7706 13.1712 53.5535 12.8787C54.3364 12.5862 55.1996 12.5916 55.9788 12.8939L51.5565 18.7625L45.5668 26.5596C45.4004 26.708 45.2673 26.8899 45.1762 27.0933C45.0851 27.2967 45.038 27.5171 45.038 27.74C45.038 27.9629 45.0851 28.1833 45.1762 28.3867C45.2673 28.5901 45.4004 28.772 45.5668 28.9204L56.9763 44.1489L57 44.1465ZM0.00477849 27.493L1.00228 22.5649C3.74303 12.8202 14.915 8.76612 22.6005 14.7986C27.1012 18.335 28.2245 23.3415 28.0037 28.9845H2.65053C2.23965 39.0616 9.5119 45.1464 18.81 42.0375C20.3173 41.4949 21.6665 40.5869 22.7368 39.3949C23.807 38.2028 24.5648 36.7639 24.9423 35.207C25.4339 33.6252 26.2438 33.3545 27.7305 33.8105C27.4828 35.7399 26.8007 37.588 25.7357 39.2158C24.6707 40.8436 23.2504 42.2087 21.5817 43.2084C18.8253 44.7161 15.6627 45.3137 12.5463 44.9157C9.42978 44.5177 6.51893 43.1445 4.2299 40.9925C1.9666 38.445 0.598709 35.2272 0.334903 31.8297C0.334903 31.2716 0.144903 30.7491 0.0166535 30.248C0.00509206 29.3305 -0.000449723 28.4129 2.84912e-05 27.4954L0.00477849 27.493ZM2.6814 26.8137H25.6097C25.4672 19.5082 20.8573 14.326 14.7084 14.2785C7.86365 14.1835 2.9664 19.2517 2.66478 26.7805L2.6814 26.8137Z" fill="black"/>
</g>
<defs>
<clipPath id="clip0_445_58">
<rect width="57" height="57" fill="white"/>
</clipPath>
</defs>
</svg>
