<svg width="110" height="110" viewBox="0 0 110 110" fill="none" xmlns="http://www.w3.org/2000/svg">
<path d="M107.93 50.1006L59.8985 2.07461C57.1349 -0.691535 52.6489 -0.691535 49.8818 2.07461L39.9085 12.0489L52.5593 24.6997C55.5003 23.7067 58.8713 24.3724 61.2145 26.7161C63.5699 29.0744 64.2309 32.4742 63.213 35.425L75.4061 47.6181C78.356 46.6016 81.7595 47.2584 84.115 49.618C87.4081 52.9102 87.4081 58.2448 84.115 61.5379C80.8214 64.832 75.4867 64.832 72.1913 61.5379C69.7151 59.0598 69.1026 55.4215 70.3568 52.3706L58.9854 40.9992L58.9844 70.9229C59.7873 71.3204 60.545 71.8508 61.214 72.517C64.5062 75.8088 64.5062 81.1424 61.214 84.4398C57.9208 87.7314 52.5838 87.7314 49.2941 84.4398C46.0015 81.1427 46.0015 75.8091 49.2941 72.517C50.1079 71.7047 51.0494 71.0899 52.0541 70.6778V40.476C51.0489 40.0656 50.1085 39.4554 49.2936 38.6366C46.7995 36.1445 46.1988 32.484 47.4779 29.4213L35.0067 16.9482L2.07526 49.8787C-0.691753 52.647 -0.691753 57.133 2.07526 59.8993L50.1042 107.925C52.8694 110.692 57.3539 110.692 60.1229 107.925L107.93 60.1262C110.696 57.3587 110.696 52.8714 107.93 50.1047" fill="#F05133"/>
</svg>
