<svg width="182" height="116" viewBox="0 0 182 116" fill="none" xmlns="http://www.w3.org/2000/svg">
<path d="M9.58831 68.2849C9.58831 65.2536 7.63703 62.0057 2 61.7892V54.2108C7.63703 53.9943 9.58831 50.7464 9.58831 47.7151C9.58831 42.302 8.72107 38.8376 8.72107 32.5584C8.72107 23.0313 12.19 20 19.9951 20H40.8088V26.9288H23.8977C20.2119 26.9288 19.1279 28.2279 19.1279 32.9915C19.1279 37.755 19.5615 42.0855 19.5615 47.2821C19.5615 53.9943 17.3934 56.5926 13.0572 57.6752V58.1083C17.3934 59.1909 19.5615 61.7892 19.5615 68.5014C19.5615 73.9145 19.1279 78.0285 19.1279 82.792C19.1279 87.5556 20.2119 89.0712 23.8977 89.0712H25.6322V95.7835H19.9951C12.19 95.7835 8.72107 92.7521 8.72107 83.2251C8.72107 76.9459 9.58831 73.698 9.58831 68.2849ZM28.0171 20.6496H41.0256V69.3675C41.0256 72.1823 42.3264 73.0484 43.4105 73.0484C43.8441 73.0484 44.2777 73.0484 44.9281 72.8319L46.4458 82.359C44.9281 83.0085 42.76 83.4416 39.9415 83.4416C31.0524 83.4416 28.0171 77.5954 28.0171 68.7179V20.6496ZM64.6577 37.5385C77.0158 37.5385 83.3033 46.6325 83.3033 58.5413C83.3033 60.9231 83.0865 62.8718 82.8697 63.9544H56.2022C57.2862 70.6667 61.8392 73.4815 67.6931 73.4815C70.9452 73.4815 73.9805 72.6154 77.2326 70.6667L81.5688 78.4615C77.0158 81.4929 71.162 83.4416 65.9586 83.4416C53.3837 83.4416 43.8441 74.9971 43.8441 60.49C43.6273 46.416 54.0341 37.5385 64.6577 37.5385ZM72.246 55.943C72.246 50.963 70.078 47.2821 64.8745 47.2821C60.7552 47.2821 57.2862 50.0969 56.419 55.943H72.246ZM90.6748 69.3675C94.5773 72.3989 98.2631 73.9145 101.949 73.9145C105.851 73.9145 107.586 72.3989 107.586 70.2336C107.586 67.4188 103.25 65.9031 98.6967 64.1709C93.4933 62.2222 87.2059 58.5413 87.2059 51.396C87.2059 43.3846 93.9269 37.755 103.9 37.755C110.621 37.755 115.608 40.5698 119.294 43.3846L113.44 51.1795C110.188 48.7977 107.369 47.4986 104.117 47.4986C100.865 47.4986 99.1303 48.7977 99.1303 50.963C99.1303 53.7778 103.25 54.8604 107.803 56.5926C113.44 58.5413 119.727 61.7892 119.727 69.8006C119.727 77.812 113.44 83.8746 101.732 83.8746C96.095 83.8746 89.3739 81.4929 85.0377 77.812L90.6748 69.3675ZM126.015 69.3675C129.917 72.3989 133.603 73.9145 137.289 73.9145C141.191 73.9145 142.926 72.3989 142.926 70.2336C142.926 67.4188 138.59 65.9031 134.037 64.1709C128.833 62.2222 122.546 58.5413 122.546 51.396C122.546 43.3846 129.267 37.755 139.24 37.755C145.961 37.755 150.948 40.5698 154.633 43.3846L148.78 51.1795C145.527 48.7977 142.709 47.4986 139.457 47.4986C136.205 47.4986 134.47 48.7977 134.47 50.963C134.47 53.7778 138.59 54.8604 142.926 56.5926C148.563 58.5413 154.85 61.7892 154.85 69.8006C154.85 77.812 148.563 83.8746 136.855 83.8746C131.218 83.8746 124.497 81.4929 120.161 77.812L126.015 69.3675ZM158.102 88.8547C161.788 88.8547 162.872 87.5556 162.872 82.5755C162.872 77.812 162.438 73.4815 162.438 68.2849C162.438 61.5727 164.607 58.9744 168.943 57.8917V57.4587C164.607 56.3761 162.438 53.7778 162.438 47.0655C162.438 41.8689 162.872 37.3219 162.872 32.7749C162.872 28.0114 162.005 26.7123 158.102 26.7123H156.368V20H162.005C169.81 20 173.279 23.0313 173.279 32.5584C173.279 38.6211 172.412 42.0855 172.412 47.7151C172.412 50.7464 174.363 53.9943 180 54.2108V61.7892C174.363 62.0057 172.412 65.2536 172.412 68.2849C172.412 73.9145 173.279 77.1624 173.279 83.4416C173.279 92.9687 169.81 96 162.005 96H156.368V89.0712L158.102 88.8547Z" fill="#102B4D"/>
</svg>
