<svg width="110" height="110" viewBox="0 0 110 110" fill="none" xmlns="http://www.w3.org/2000/svg">
<path fill-rule="evenodd" clip-rule="evenodd" d="M63.33 29.59L63.2197 0H46.67L46.7803 29.59L55.0552 40.92L63.33 29.59ZM46.7803 80.3V110H63.33V80.3L55.0552 68.97L46.7803 80.3Z" fill="white"/>
<path fill-rule="evenodd" clip-rule="evenodd" d="M63.33 80.3L80.7623 104.28L94.1123 94.6L76.68 70.62L63.33 66.33V80.3ZM46.7803 29.59L29.2377 5.61L15.8877 15.29L33.32 39.27L46.7803 43.56V29.59Z" fill="#00F2E6"/>
<path fill-rule="evenodd" clip-rule="evenodd" d="M33.32 39.27L5.07523 30.14L0 45.76L28.2447 55L41.5948 50.6L33.32 39.27ZM68.4052 59.29L76.68 70.62L104.925 79.75L110 64.13L81.7553 55L68.4052 59.29Z" fill="#00B9F1"/>
<path fill-rule="evenodd" clip-rule="evenodd" d="M81.7553 55L110 45.76L104.925 30.14L76.68 39.27L68.4052 50.6L81.7553 55ZM28.2447 55L0 64.13L5.07523 79.75L33.32 70.62L41.5948 59.29L28.2447 55Z" fill="#D63AFF"/>
<path fill-rule="evenodd" clip-rule="evenodd" d="M33.32 70.62L15.8877 94.6L29.2377 104.28L46.7803 80.3V66.33L33.32 70.62ZM76.68 39.27L94.1123 15.29L80.7623 5.61L63.33 29.59V43.56L76.68 39.27Z" fill="#FB015B"/>
</svg>
