<svg width="811" height="811" viewBox="0 0 811 811" fill="none" xmlns="http://www.w3.org/2000/svg">
<g clip-path="url(#clip0_475_6)">
<path d="M362.096 1.18922C246.511 11.6537 135.325 78.0083 69.0897 175.994C34.0098 227.841 13.0808 280.996 3.32977 342.475C0.832556 358.291 0.594727 363.523 0.594727 406.095C0.713642 448.547 0.832556 453.898 3.32977 469.12C17.8374 558.306 57.555 635.244 121.531 697.555C182.535 757.013 254.835 793.282 341.286 807.67C356.032 810.049 361.145 810.287 405.5 810.287C450.093 810.287 454.85 810.168 469.714 807.67C518.945 799.346 558.544 786.028 599.688 764.029C607.299 759.867 607.299 757.488 599.807 759.986C598.975 760.223 591.84 751.662 583.754 740.84C510.502 642.498 466.385 582.208 444.861 550.576C430.829 530.004 409.781 498.967 398.009 481.606C386.236 464.244 374.939 447.715 372.799 444.742C370.777 441.769 354.723 418.105 337.243 392.063C319.762 366.139 304.66 344.853 303.947 344.853C302.758 344.853 302.282 370.063 301.806 463.65C300.974 595.051 301.568 587.559 293.244 591.483C290.272 592.91 285.753 593.386 276.477 593.386H263.754L259.116 588.748L254.478 584.11V424.764V265.299L258.64 261.137C261.613 258.046 264.229 256.737 268.272 256.143C275.883 255.073 295.028 256.143 298.358 257.927C300.736 259.235 378.269 375.058 466.147 508.599C484.103 535.95 526.556 600.283 560.446 651.416C594.337 702.669 622.163 745.121 622.282 745.835C622.401 746.429 619.071 749.045 614.791 751.662C610.51 754.278 606.942 756.894 606.704 757.488C605.991 759.51 609.32 758.796 612.412 756.299C614.077 754.991 615.98 753.921 616.693 753.921C618.596 753.921 645.114 735.489 659.503 724.192C676.151 711.112 708.971 678.529 722.29 661.762C761.888 611.936 789.001 556.284 801.963 498.135C809.692 463.65 810.287 456.396 810.287 405.5C810.287 359.242 810.287 358.172 806.957 339.74C799.228 295.742 788.763 262.683 771.164 226.533C721.695 124.861 630.487 47.3282 522.988 15.6968C483.508 4.04318 462.223 1.07031 412.04 0.594646C390.517 0.356816 368.042 0.594646 362.096 1.18922ZM544.512 246.63C546.295 247.581 548.912 249.959 550.101 251.743C552.241 254.954 552.36 259.829 552.717 397.176C552.836 475.184 552.836 538.923 552.598 538.685C552.241 538.328 541.301 521.561 528.101 501.346L504.081 464.601L504.437 360.431C504.794 261.137 504.913 256.143 507.054 252.575C510.859 246.154 514.07 245.084 528.339 244.965C537.258 244.965 542.252 245.441 544.512 246.63Z" fill="black"/>
</g>
<defs>
<clipPath id="clip0_475_6">
<rect width="811" height="811" fill="white"/>
</clipPath>
</defs>
</svg>
