<svg width="113" height="110" viewBox="0 0 113 110" fill="none" xmlns="http://www.w3.org/2000/svg">
<path d="M104.13 85.0776C98.0079 84.9256 93.2627 85.5354 89.2829 87.2118C88.1348 87.6687 86.2978 87.6692 86.1447 89.1174C86.757 89.7272 86.8336 90.7181 87.3694 91.5561C88.2888 93.0802 89.8948 95.1382 91.3491 96.2058C92.9561 97.4249 94.5639 98.644 96.247 99.7112C99.2321 101.541 102.6 102.607 105.508 104.437C107.193 105.503 108.875 106.876 110.559 108.019C111.401 108.628 111.936 109.619 113.008 110V109.772C112.472 109.085 112.319 108.095 111.784 107.333C111.019 106.57 110.253 105.884 109.488 105.122C107.268 102.15 104.513 99.5587 101.528 97.4249C99.0795 95.748 93.7215 93.4617 92.7269 90.6414C92.7269 90.6414 92.6499 90.5657 92.5738 90.4894C94.2573 90.337 96.247 89.7272 97.8548 89.2699C100.457 88.5834 102.829 88.7363 105.508 88.0503C106.732 87.7454 107.957 87.3643 109.181 86.9832V86.2976C107.804 84.9256 106.809 83.0966 105.355 81.8008C101.452 78.4466 97.1655 75.1698 92.7269 72.4262C90.3541 70.9018 87.2924 69.9109 84.7669 68.6155C83.8493 68.1577 82.318 67.9295 81.7827 67.1673C80.4044 65.4908 79.639 63.2807 78.6444 61.2989C76.4256 57.1066 74.2819 52.4579 72.3684 48.0378C70.9915 45.0651 70.1495 42.0924 68.4656 39.3492C60.5826 26.3925 52.0107 18.5424 38.8472 10.8443C36.0151 9.24403 32.6477 8.55801 29.0506 7.72C27.1379 7.64333 25.2239 7.49133 23.3108 7.41466C22.0861 6.8811 20.8614 5.43329 19.7898 4.74728C15.4282 2.00324 4.17693 -3.94087 0.962585 3.90926C-1.10406 8.86291 4.02428 13.7403 5.78388 16.2561C7.08598 18.0088 8.76904 19.9902 9.68755 21.972C10.2233 23.2669 10.376 24.6398 10.9118 26.0114C12.1369 29.3639 13.2842 33.0993 14.892 36.2245C15.734 37.8247 16.652 39.5012 17.7236 40.9495C18.336 41.7875 19.4071 42.169 19.6372 43.5406C18.566 45.0651 18.4891 47.3518 17.8763 49.2569C15.1212 57.8693 16.1932 68.5393 20.096 74.8649C21.3202 76.7697 24.2289 80.9628 28.1321 79.3617C31.5765 77.9901 30.8111 73.6458 31.8052 69.8351C32.0358 68.9195 31.8827 68.3106 32.3415 67.7008V67.8537C33.4131 69.9871 34.4842 72.0456 35.4793 74.1794C37.8521 77.9134 41.9845 81.8008 45.4285 84.3924C47.266 85.7636 48.7198 88.1265 51.0161 88.965V88.7359H50.8626C50.4033 88.0498 49.7144 87.7454 49.1025 87.2114C47.7252 85.8402 46.1939 84.1633 45.1228 82.6389C41.9089 78.3703 39.0763 73.6454 36.5509 68.7675C35.3266 66.4055 34.2546 63.8139 33.26 61.4514C32.8003 60.5358 32.8003 59.1647 32.0353 58.7078C30.8872 60.3843 29.2037 61.8325 28.3617 63.8901C26.9083 67.1673 26.7548 71.2067 26.219 75.3981C25.9128 75.4752 26.0654 75.3981 25.9124 75.5514C23.4639 74.9407 22.6219 72.4262 21.703 70.292C19.4067 64.881 19.024 56.1924 21.0145 49.943C21.5503 48.3423 23.8466 43.3124 22.9281 41.7879C22.4688 40.3397 20.9375 39.5012 20.096 38.3583C19.1014 36.9101 18.0294 35.0816 17.3409 33.4804C15.5039 29.2124 14.5854 24.487 12.5957 20.2189C11.6772 18.2371 10.0707 16.1799 8.76904 14.3506C7.31517 12.293 5.70778 10.8443 4.55964 8.40557C4.17737 7.56755 3.64113 6.19553 4.25347 5.28085C4.40656 4.67106 4.71229 4.44283 5.32507 4.29038C6.32012 3.45148 9.15219 4.51861 10.1464 4.97595C12.9784 6.11843 15.3508 7.18643 17.7236 8.78669C18.7948 9.54892 19.9429 10.9972 21.3202 11.3783H22.9276C25.377 11.9114 28.1316 11.5307 30.4279 12.2163C34.4847 13.5117 38.1578 15.4172 41.4492 17.4753C51.4753 23.8009 59.7402 32.7944 65.3278 43.5406C66.2463 45.2929 66.6286 46.8945 67.4705 48.7229C69.0784 52.4579 71.068 56.2686 72.6745 59.9269C74.2819 63.5085 75.8123 67.1673 78.1086 70.14C79.2568 71.7398 83.8484 72.5787 85.9151 73.4171C87.4459 74.1027 89.8187 74.7129 91.1961 75.551C93.7981 77.1508 96.4001 78.981 98.8494 80.7333C100.074 81.648 103.9 83.5535 104.13 85.0776Z" fill="#8CC6D7"/>
<path d="M26.065 18.8465C24.7642 18.8465 23.8462 18.9998 22.9277 19.2281V19.3805H23.0807C23.6935 20.6001 24.7642 21.4385 25.5292 22.5052C26.142 23.7244 26.6774 24.9444 27.2901 26.1639C27.3662 26.0873 27.4428 26.0115 27.4428 26.0115C28.5148 25.2488 29.0502 24.0297 29.0502 22.2003C28.5909 21.6672 28.5144 21.1336 28.1317 20.6001C27.6728 19.8374 26.6774 19.4567 26.065 18.8465Z" fill="#8CC6D7"/>
</svg>
