<svg width="51" height="58" viewBox="0 0 51 58" fill="none" xmlns="http://www.w3.org/2000/svg">
<path d="M4.64118 52.2021L0 0H51L46.3538 52.1939L25.4687 58L4.64118 52.2021Z" fill="#E44D26"/>
<path d="M25.4999 53.562L42.3761 48.8704L46.3466 4.26829H25.4999V53.562Z" fill="#F16529"/>
<path d="M25.4999 23.6293H17.0513L16.4678 17.0732H25.4999V10.6707H9.49017L11.2122 30.0316H25.4999V23.6293ZM25.4999 40.257L25.4721 40.2644L18.3613 38.3391L17.9067 33.2329H11.4975L12.392 43.2856L25.4705 46.9263L25.4999 46.9181V40.257Z" fill="#EBEBEB"/>
<path d="M25.478 23.6293V30.0316H33.3399L32.5988 38.335L25.478 40.2623V46.9232L38.5668 43.2856L40.1632 25.3485L40.319 23.6293H25.478ZM25.478 10.6707V17.0732H40.8999L41.4716 10.6707H25.478Z" fill="white"/>
</svg>
