<svg width="56" height="56" viewBox="0 0 56 56" fill="none" xmlns="http://www.w3.org/2000/svg">
<path d="M20.6581 0.872487C27.817 -0.963426 35.7288 0.106423 42.0424 4.00278C49.9938 8.75767 55.1846 17.7523 55.3167 27.0111C55.6073 36.3624 50.7334 45.6344 42.9009 50.7195C34.1834 56.5839 22.1243 56.8084 13.2219 51.2346C4.14777 45.8193 -1.14875 34.8963 0.211701 24.4092C1.30799 13.3276 9.86697 3.55371 20.6581 0.872487Z" fill="#010101"/>
<path d="M19.5618 5.40276C33.087 -0.0125186 49.6767 9.98594 51.0768 24.4883C53.2561 37.5378 42.4253 50.7987 29.2038 51.1817C16.6295 52.4365 4.47787 41.7776 4.12125 29.1508C3.18346 18.9278 9.91969 8.78401 19.5618 5.40276Z" fill="white"/>
<path d="M20.9224 26.2319C26.985 21.2789 32.9155 16.1541 39.1102 11.3464C35.8609 16.3391 32.5192 21.2656 29.27 26.2583C26.4831 26.2715 23.6961 26.2715 20.9224 26.2319Z" fill="#010101"/>
<path d="M26.0472 28.9924C28.8474 28.9924 31.6343 28.9924 34.4213 29.0321C28.319 33.9586 22.4149 39.123 16.207 43.9175C19.4563 38.9249 22.798 33.9851 26.0472 28.9924Z" fill="#010101"/>
</svg>
