<svg width="167" height="132" viewBox="0 0 167 132" fill="none" xmlns="http://www.w3.org/2000/svg">
<path fill-rule="evenodd" clip-rule="evenodd" d="M84 15C62.1306 15 48.4694 26.2194 43 48.6667C51.2 37.4473 60.7694 33.2389 71.7 36.0417C77.9402 37.642 82.401 42.2907 87.3292 47.4304C95.3734 55.8047 104.68 65.5 125 65.5C146.869 65.5 160.531 54.2806 166 31.8333C157.8 43.0527 148.239 47.2611 137.3 44.4583C131.06 42.858 126.599 38.2093 121.663 33.0696C113.627 24.6868 104.328 15 84 15ZM43 65.5C21.1306 65.5 7.4694 76.7194 2 99.1667C10.2 87.9388 19.7694 83.7389 30.7 86.5417C36.9402 88.142 41.401 92.7907 46.3374 97.9304C54.3734 106.305 63.6804 116 84.0082 116C105.878 116 119.539 104.781 125.008 82.3333C116.808 93.5527 107.239 97.7611 96.3082 94.9583C90.068 93.358 85.6072 88.7093 80.679 83.5696C72.6266 75.1952 63.3196 65.5 43 65.5Z" fill="#38BDF8"/>
</svg>
