<svg width="74" height="110" viewBox="0 0 74 110" fill="none" xmlns="http://www.w3.org/2000/svg">
<path d="M36.54 55.0208C36.54 44.9149 44.7106 36.6805 54.8307 36.6805C64.9092 36.6805 73.1214 44.8733 73.1214 55.0208C73.1214 65.1267 64.9507 73.3611 54.8307 73.3611C44.7521 73.3611 36.54 65.1267 36.54 55.0208Z" fill="#1ABCFE"/>
<path d="M0 91.6597C0 81.5539 8.17068 73.3195 18.2907 73.3195H36.5814V91.6597C36.5814 101.766 28.4107 110 18.2907 110C8.17068 110 0 101.807 0 91.6597Z" fill="#0ACF83"/>
<path d="M36.54 36.6805H54.8307C64.9092 36.6805 73.1214 28.4877 73.1214 18.3403C73.1214 8.2344 64.9507 0 54.8307 0H36.54V36.6805Z" fill="#FF7262"/>
<path d="M0 18.3819C0 28.4877 8.17068 36.7221 18.2907 36.7221H36.5814V0.0415879H18.2907C8.17068 0.0415879 0 8.2344 0 18.3819Z" fill="#F24E1E"/>
<path d="M0 55.0208C0 65.1267 8.17068 73.3611 18.2907 73.3611H36.5814V36.6805H18.2907C8.17068 36.6805 0 44.9149 0 55.0208Z" fill="#A259FF"/>
</svg>
