<svg width="59" height="67" viewBox="0 0 59 67" fill="none" xmlns="http://www.w3.org/2000/svg">
<path d="M29.5 66.9998C28.5839 66.9998 27.7288 66.7536 26.9349 66.3227L18.8116 61.46C17.5901 60.783 18.2008 60.5368 18.5673 60.4137C20.2163 59.8597 20.5216 59.7366 22.2317 58.7516C22.4152 58.6285 22.6595 58.69 22.8424 58.8131L29.0725 62.5679C29.3168 62.691 29.6221 62.691 29.8054 62.5679L54.1751 48.3494C54.4194 48.2263 54.5416 47.9801 54.5416 47.6724V19.2964C54.5416 18.9886 54.4194 18.7424 54.1751 18.6193L29.8054 4.46215C29.5611 4.33905 29.2557 4.33905 29.0725 4.46215L4.70272 18.6196C4.45842 18.7427 4.33627 19.0504 4.33627 19.2966V47.6724C4.33627 47.9186 4.45842 48.2263 4.70272 48.3494L11.3603 52.2271C14.9639 54.0736 17.2234 51.9193 17.2234 49.7651V21.7584C17.2234 21.3891 17.529 21.0198 17.9565 21.0198H21.0715C21.438 21.0198 21.8044 21.3276 21.8044 21.7584V49.7648C21.8044 54.6275 19.178 57.4588 14.5972 57.4588C13.1925 57.4588 12.0932 57.4588 8.97837 55.9201L2.56512 52.2271C0.977188 51.3036 0 49.5802 0 47.7337V19.3582C0 17.5117 0.977188 15.7883 2.56512 14.8648L26.9349 0.646275C28.4617 -0.215425 30.5383 -0.215425 32.0651 0.646275L56.4349 14.8648C58.0228 15.788 59 17.5114 59 19.3582V47.7339C59 49.5804 58.0228 51.3038 56.4349 52.2271L32.0651 66.446C31.2712 66.8153 30.355 67 29.5 67V66.9998ZM37.0124 47.4875C26.3239 47.4875 24.1252 42.5635 24.1252 38.3778C24.1252 38.0085 24.4306 37.6392 24.8581 37.6392H28.034C28.4004 37.6392 28.706 37.8854 28.706 38.2547C29.1946 41.5169 30.5993 43.1174 37.0734 43.1174C42.2039 43.1174 44.4028 41.948 44.4028 39.1782C44.4028 37.5777 43.7921 36.4082 35.7909 35.6079C29.1336 34.9308 24.9803 33.4536 24.9803 28.0988C24.9803 23.1127 29.1333 20.1583 36.0962 20.1583C43.914 20.1583 47.7619 22.8665 48.2505 28.7756C48.2505 28.9602 48.1894 29.1449 48.0673 29.3295C47.9451 29.4526 47.7619 29.5757 47.5787 29.5757H44.4028C44.0972 29.5757 43.7921 29.3295 43.7308 29.0218C42.9979 25.6365 41.1046 24.5286 36.0962 24.5286C30.4774 24.5286 29.8054 26.4982 29.8054 27.9754C29.8054 29.7606 30.5993 30.3143 38.1728 31.2991C45.6854 32.2839 49.2277 33.6998 49.2277 38.9933C49.1666 44.41 44.7692 47.4875 37.0124 47.4875Z" fill="#4C8D3E"/>
</svg>
