<svg width="128" height="128" viewBox="0 0 128 128" fill="none" xmlns="http://www.w3.org/2000/svg">
<path d="M63.8754 0.00243857C64.2452 0.00395394 64.615 0.00546931 64.9961 0.0070306C70.8227 0.0422543 76.3586 0.423608 81.9361 2.21343C82.2805 2.32286 82.625 2.43228 82.9799 2.54503C92.8879 5.7942 101.329 10.9663 108.84 18.1575C109.212 18.4979 109.584 18.8383 109.967 19.189C120.307 28.9703 127.396 44.3552 127.964 58.5915C128.006 60.3522 128.006 62.1109 127.991 63.872C127.988 64.4267 127.988 64.4267 127.986 64.9927C127.951 70.8196 127.569 76.3558 125.78 81.9336C125.67 82.2781 125.561 82.6226 125.448 82.9775C122.199 92.886 117.027 101.328 109.837 108.839C109.326 109.397 109.326 109.397 108.805 109.966C99.0243 120.307 83.6402 127.396 69.4048 127.964C67.6442 128.006 65.8855 128.006 64.1246 127.991C63.7548 127.989 63.385 127.988 63.0039 127.986C57.1773 127.951 51.6414 127.569 46.0639 125.78C45.7195 125.67 45.375 125.561 45.02 125.448C35.1121 122.199 26.6705 117.027 19.1598 109.836C18.602 109.325 18.602 109.325 18.033 108.804C7.69277 99.0228 0.603982 83.6379 0.0357528 69.4016C-0.00574809 67.6409 -0.00603586 65.8822 0.00935006 64.1211C0.0108653 63.7513 0.0123806 63.3815 0.0139418 63.0004C0.0491637 57.1735 0.430497 51.6373 2.22022 46.0595C2.32964 45.715 2.43906 45.3705 2.5518 45.0156C5.8008 35.1071 10.9726 26.6651 18.1634 19.154C18.5038 18.7821 18.8442 18.4102 19.1949 18.0271C30.5881 5.98151 47.5434 -0.140265 63.8754 0.00243857ZM86.9183 27.126C84.9542 29.5995 84.6082 32.1886 84.7327 35.2887C85.1134 37.8654 86.239 39.436 88.1327 41.2327C90.8028 42.9912 93.2094 43.4744 96.3846 43.07C96.8778 42.7412 97.371 42.4123 97.8792 42.0735C97.4419 41.665 97.0045 41.2565 96.5539 40.8357C95.9885 40.2936 95.4235 39.7512 94.8587 39.2086C94.5694 38.9401 94.2801 38.6716 93.982 38.395C93.1597 37.597 93.1597 37.597 91.9005 36.0945C92.0185 34.3284 92.8495 33.4737 94.0822 32.272C94.4178 31.9412 94.7534 31.6104 95.0991 31.2696C95.4514 30.9299 95.8036 30.5901 96.1666 30.24C96.5208 29.8926 96.875 29.5451 97.2399 29.1871C98.114 28.3305 98.9915 27.4776 99.8721 26.6277C98.0667 24.7402 96.9478 24.5269 94.3294 24.4479C91.2292 24.4821 89.1361 24.8917 86.9183 27.126ZM100.869 27.6242C98.4024 30.0906 95.9362 32.5569 93.3952 35.098C95.7405 37.9003 95.7405 37.9003 98.3152 40.2985C98.6119 40.5445 98.9086 40.7905 99.2143 41.0439C99.5399 41.3069 99.5399 41.3069 99.8721 41.5753C100.263 41.1231 100.653 40.6709 101.055 40.2051C101.275 39.9507 101.495 39.6964 101.721 39.4343C103.703 36.8161 103.669 34.3037 103.36 31.112C102.603 28.9349 102.603 28.9349 100.869 27.6242ZM65.1755 49.4772C64.1551 50.403 63.1184 51.3013 62.0694 52.1942C59.2467 54.6453 56.6575 57.3491 54.0355 60.0105C54.6978 61.4894 55.4199 62.5046 56.5889 63.6229C57.0616 64.075 57.5343 64.5272 58.0213 64.9931C59.8158 64.2337 60.9553 63.1734 62.3206 61.7953C62.7744 61.3397 63.2283 60.8841 63.6959 60.4148C64.1872 59.9167 64.6784 59.4187 65.1697 58.9206C65.6768 58.4103 66.1842 57.9003 66.6919 57.3905C68.026 56.0496 69.3574 54.706 70.688 53.3616C72.8188 51.2092 74.9529 49.0601 77.0887 46.9126C77.8337 46.1625 78.5769 45.4108 79.32 44.6588C79.7723 44.2032 80.2246 43.7476 80.6906 43.2783C81.0884 42.8763 81.4862 42.4744 81.8961 42.0602C82.9325 41.077 82.9325 41.077 84.4272 40.0805C77.819 36.1643 69.6398 45.4009 65.1755 49.4772ZM81.3943 44.2689C81.1606 44.5022 80.9269 44.7355 80.6861 44.9758C79.9187 45.7454 79.1623 46.525 78.4057 47.3051C77.8744 47.842 77.3425 48.3782 76.81 48.9138C75.4125 50.3227 74.0242 51.7404 72.6377 53.1601C71.2203 54.6082 69.7944 56.0478 68.3692 57.4881C65.5758 60.3137 62.792 63.1486 60.0142 65.9896C60.7712 67.6674 61.2702 68.2857 63.0036 68.9791C63.3356 68.6714 63.6676 68.3638 64.0097 68.0468C66.3345 65.9105 68.6649 63.8222 71.1308 61.8478C73.6465 59.8201 75.9935 57.6498 78.3418 55.4342C80.5655 53.3485 82.8647 51.4204 85.2718 49.5473C86.5102 48.4725 87.4825 47.4101 88.413 46.0595C88.3402 44.2025 88.2425 43.3978 86.9183 42.0735C84.2419 41.6917 83.246 42.3878 81.3943 44.2689ZM85.735 51.0109C83.9706 52.618 82.1805 54.1603 80.3168 55.6508C77.7931 57.6899 75.4339 59.8682 73.077 62.0944C70.8267 64.207 68.4932 66.1461 66.0474 68.0312C64.8262 69.0168 64.8262 69.0168 64 70.9721C65.1509 72.123 66.3018 73.274 67.4876 74.4598C73.4988 70.372 78.5354 64.756 82.9325 59.014C83.2973 58.5522 83.6621 58.0904 84.0379 57.6147C86.1673 54.8332 87.5229 52.4427 88.413 49.049C87.388 49.049 86.4269 50.3725 85.735 51.0109ZM52.0426 62.0035C50.2341 63.8122 48.4255 65.6208 46.5622 67.4843C48.1307 68.0072 48.5226 67.9756 50.0556 67.5952C50.4329 67.5037 50.8102 67.4122 51.1989 67.3179C51.5904 67.2187 51.9818 67.1194 52.3852 67.0172C52.981 66.8712 52.981 66.8712 53.5889 66.7223C54.569 66.4817 55.548 66.2361 56.5266 65.9896C56.0635 65.4154 55.5955 64.8453 55.1254 64.2768C54.8653 63.9589 54.6052 63.641 54.3372 63.3134C53.5331 62.3748 53.5331 62.3748 52.0426 62.0035ZM47.4632 77.9086C45.7118 79.6805 44.002 81.4882 42.2961 83.3038C41.4001 84.2323 40.5026 85.1594 39.6036 86.085C37.4212 88.3384 35.2583 90.6092 33.1101 92.8951C33.5883 93.456 34.0669 94.0165 34.5457 94.5768C34.8121 94.889 35.0786 95.2012 35.3532 95.5228C36.1296 96.4176 36.9333 97.2681 37.781 98.0956C38.2125 98.5169 38.6441 98.9383 39.0888 99.3724C39.582 99.1257 39.582 99.1257 40.0852 98.8741C39.7564 96.901 39.4276 94.928 39.0888 92.8951C39.6832 92.7255 39.6832 92.7255 40.2896 92.5526C42.5836 91.7138 44.6478 90.5912 46.7801 89.4073C47.2201 89.1636 47.6601 88.9199 48.1134 88.6689C52.0579 86.4562 55.8398 84.0686 59.516 81.4353C59.8281 81.212 60.1402 80.9886 60.4618 80.7585C61.3879 80.089 62.3062 79.4103 63.2215 78.7261C63.5018 78.5202 63.7821 78.3143 64.0709 78.1022C64.9274 77.4637 64.9274 77.4637 65.9929 76.4528C66.1463 74.9621 66.1463 74.9621 65.2825 74.0492C64.9723 73.7428 64.6621 73.4364 64.3425 73.1208C64.0362 72.8105 63.7298 72.5003 63.4142 72.1807C58.6466 68.4542 50.6112 74.7971 47.4632 77.9086ZM31.6154 94.3899C30.1357 95.8697 28.656 97.3495 27.1314 98.8741C29.2479 99.9324 30.7025 99.989 32.9856 99.9329C33.5067 99.9262 33.5067 99.9262 34.0384 99.9193C34.8916 99.9076 35.7447 99.8897 36.5977 99.8706C35.744 97.3095 33.7295 95.9755 31.6154 94.3899Z" fill="#F06731"/>
</svg>
