<svg width="56" height="57" viewBox="0 0 56 57" fill="none" xmlns="http://www.w3.org/2000/svg">
<g clip-path="url(#clip0_445_74)">
<path d="M0 0H56V57H0V0Z" fill="#F0DB4F"/>
<path d="M51.4168 43.4056C51.007 40.8049 49.3408 38.6213 44.4062 36.584C42.6921 35.7821 40.7811 35.2079 40.2115 33.8858C40.0092 33.1164 39.9826 32.6829 40.1104 32.2169C40.4777 30.7052 42.2503 30.2339 43.6556 30.6673C44.5606 30.9762 45.4176 31.686 45.934 32.8184C48.3507 31.2254 48.3454 31.2362 50.0328 30.1418C49.4153 29.1665 49.0853 28.7167 48.6807 28.2996C47.2275 26.647 45.2473 25.7964 42.08 25.8614C41.5317 25.9318 40.9781 26.0076 40.4298 26.0781C38.8488 26.4845 37.3423 27.3297 36.4587 28.4621C33.8077 31.5235 34.5636 36.882 37.7895 39.0873C40.9674 41.5147 45.6359 42.0674 46.2321 44.3376C46.8123 47.1172 44.2253 48.0166 41.6541 47.6969C39.7591 47.296 38.7051 46.3153 37.5659 44.5327C35.4686 45.768 35.4686 45.768 33.3127 47.0305C33.8237 48.1683 34.3613 48.6831 35.2184 49.6692C39.2747 53.8575 49.426 53.6516 51.2466 47.3122C51.321 47.0955 51.8108 45.6434 51.4168 43.4056ZM30.4435 26.1973H25.2054C25.2054 30.8028 25.1842 35.3758 25.1842 39.9813C25.1842 42.9126 25.3333 45.6 24.8648 46.4236C24.0983 48.0436 22.1127 47.8432 21.2078 47.5289C20.2869 47.0683 19.8184 46.4127 19.2755 45.4862C19.1264 45.2207 19.0146 45.0148 18.9773 44.9986C17.5561 45.8818 16.14 46.7703 14.7188 47.6535C15.4268 49.1327 16.4701 50.4168 17.8062 51.2512C19.8024 52.4703 22.4853 52.8442 25.2907 52.1886C27.1165 51.6467 28.6921 50.5252 29.5172 48.8185C30.7096 46.5807 30.4541 43.8716 30.4435 40.8753C30.4701 35.988 30.4435 31.1008 30.4435 26.1973Z" fill="#323330"/>
</g>
<defs>
<clipPath id="clip0_445_74">
<rect width="56" height="57" fill="white"/>
</clipPath>
</defs>
</svg>
