<svg width="74" height="63" viewBox="0 0 74 63" fill="none" xmlns="http://www.w3.org/2000/svg">
<path d="M3 36.5184V27.9277L31.6026 12V19.8919L10.4762 32.0664L31.6074 44.4874V52.4513L3 36.5184ZM70.0785 13.7058L45.12 50.7943H36.5513L61.5581 13.7032L70.0785 13.7058ZM63.1643 46.3525C63.4472 46.3584 63.7278 46.2973 63.9859 46.1739C64.244 46.0504 64.4732 45.8675 64.6571 45.6383C65.0713 45.1139 65.2848 44.4425 65.2552 43.7578C65.2793 43.0576 65.0671 42.3713 64.6571 41.8234C64.4841 41.5841 64.2618 41.3902 64.0074 41.2569C63.7529 41.1235 63.4731 41.0541 63.1896 41.0541C62.906 41.0541 62.6262 41.1235 62.3718 41.2569C62.1174 41.3902 61.8951 41.5841 61.7221 41.8234C61.3121 42.3713 61.0999 43.0576 61.124 43.7578C61.0936 44.4378 61.2968 45.1064 61.6955 45.6383C61.8733 45.8685 62.0979 46.0524 62.3524 46.1762C62.6069 46.2999 62.8846 46.3602 63.1643 46.3525ZM68.4362 49.0294C66.9966 50.4154 65.1241 51.1806 63.1837 51.1758C61.2433 51.1711 59.3741 50.3967 57.9405 49.0037C57.281 48.3183 56.7569 47.4993 56.3991 46.5948C56.0412 45.6904 55.8569 44.7188 55.8569 43.7373C55.8569 42.7558 56.0412 41.7842 56.3991 40.8798C56.7569 39.9753 57.281 39.1563 57.9405 38.4709C59.3736 37.0738 61.2458 36.2989 63.1884 36.2989C65.131 36.2989 67.0032 37.0738 68.4362 38.4709C69.1085 39.1484 69.6415 39.9672 70.0014 40.8755C70.3613 41.7838 70.5403 42.7618 70.5271 43.7476C70.5449 44.733 70.3682 45.7115 70.0084 46.6196C69.6486 47.5277 69.1138 48.3452 68.4386 49.0191L68.4362 49.0294ZM43.5669 24.6728C43.8498 24.6787 44.1304 24.6177 44.3886 24.4942C44.6467 24.3707 44.8759 24.1878 45.0598 23.9586C45.474 23.4342 45.6875 22.7628 45.6578 22.0781C45.6819 21.3779 45.4698 20.6916 45.0598 20.1437C44.8865 19.9048 44.6641 19.7114 44.4097 19.5783C44.1553 19.4453 43.8756 19.3761 43.5922 19.3761C43.3088 19.3761 43.0292 19.4453 42.7748 19.5783C42.5204 19.7114 42.298 19.9048 42.1247 20.1437C41.7147 20.6916 41.5025 21.3779 41.5266 22.0781C41.4962 22.7581 41.6994 23.4267 42.0982 23.9586C42.2759 24.1888 42.5006 24.3727 42.7551 24.4965C43.0096 24.6202 43.2872 24.6805 43.5669 24.6728ZM48.8389 27.342C47.3993 28.728 45.5268 29.4932 43.5864 29.4884C41.646 29.4837 39.7768 28.7093 38.3432 27.3163C37.6837 26.6309 37.1596 25.8119 36.8017 24.9074C36.4439 24.003 36.2595 23.0314 36.2595 22.0499C36.2595 21.0684 36.4439 20.0968 36.8017 19.1924C37.1596 18.2879 37.6837 17.4689 38.3432 16.7835C39.7762 15.3864 41.6484 14.6115 43.591 14.6115C45.5336 14.6115 47.4058 15.3864 48.8389 16.7835C49.5135 17.4639 50.0476 18.2865 50.4072 19.199C50.7668 20.1115 50.9439 21.0938 50.9274 22.0833C50.9434 23.0666 50.7659 24.0426 50.4062 24.9484C50.0464 25.8541 49.5125 26.6695 48.8389 27.342Z" fill="#90A93A"/>
</svg>
