<svg width="118" height="118" viewBox="0 0 118 118" fill="none" xmlns="http://www.w3.org/2000/svg">
<g clip-path="url(#clip0_122_155)" filter="url(#filter0_d_122_155)">
<path d="M4 95.8164C4 103.651 10.3504 110 18.1836 110H99.816C107.651 110 114 103.65 114 95.8164V14.184C114 6.34949 107.65 0 99.8164 0H18.184C10.3495 0 4 6.35035 4 14.1836V95.8164Z" fill="#563D7C"/>
<path d="M49.6148 48.657V33.0795H63.3265C64.6328 33.0795 65.8918 33.1882 67.1043 33.4061C68.3169 33.6235 69.3898 34.0119 70.3227 34.5718C71.2551 35.1317 72.0015 35.909 72.5614 36.9037C73.1208 37.8989 73.401 39.1738 73.401 40.7279C73.401 43.5265 72.5614 45.5477 70.8822 46.7913C69.2034 48.0352 67.0579 48.657 64.4459 48.657H49.6148ZM34.9697 21.6992V88.3008H67.2444C70.2295 88.3008 73.1367 87.9278 75.9662 87.1814C78.7957 86.4351 81.3141 85.2848 83.5218 83.7302C85.7291 82.1756 87.4861 80.1698 88.792 77.7137C90.0982 75.2572 90.7509 72.3499 90.7509 68.9919C90.7509 64.8252 89.7403 61.2653 87.7195 58.3116C85.6982 55.3575 82.6354 53.2898 78.531 52.1082C81.5161 50.6782 83.7706 48.8434 85.2943 46.6048C86.8175 44.3661 87.5794 41.568 87.5794 38.2095C87.5794 35.1003 87.0663 32.4887 86.0402 30.3742C85.0141 28.2601 83.5682 26.5654 81.7025 25.2905C79.8373 24.0157 77.5986 23.0983 74.9865 22.5388C72.3749 21.9789 69.4831 21.6992 66.3116 21.6992H34.9697ZM49.6148 76.9205V58.6377H65.5652C68.7367 58.6377 71.2865 59.3682 73.2145 60.83C75.1421 62.2914 76.1063 64.732 76.1063 68.1523C76.1063 69.8938 75.8107 71.3238 75.2198 72.4432C74.629 73.5625 73.8363 74.4489 72.8411 75.1016C71.8464 75.7548 70.6957 76.221 69.3898 76.5011C68.0836 76.7804 66.7159 76.9205 65.2855 76.9205H49.6148Z" fill="white"/>
</g>
<defs>
<filter id="filter0_d_122_155" x="0" y="0" width="118" height="118" filterUnits="userSpaceOnUse" color-interpolation-filters="sRGB">
<feFlood flood-opacity="0" result="BackgroundImageFix"/>
<feColorMatrix in="SourceAlpha" type="matrix" values="0 0 0 0 0 0 0 0 0 0 0 0 0 0 0 0 0 0 127 0" result="hardAlpha"/>
<feOffset dy="4"/>
<feGaussianBlur stdDeviation="2"/>
<feComposite in2="hardAlpha" operator="out"/>
<feColorMatrix type="matrix" values="0 0 0 0 0 0 0 0 0 0 0 0 0 0 0 0 0 0 0.25 0"/>
<feBlend mode="normal" in2="BackgroundImageFix" result="effect1_dropShadow_122_155"/>
<feBlend mode="normal" in="SourceGraphic" in2="effect1_dropShadow_122_155" result="shape"/>
</filter>
<clipPath id="clip0_122_155">
<rect width="110" height="110" fill="white" transform="translate(4)"/>
</clipPath>
</defs>
</svg>
