<svg width="110" height="110" viewBox="0 0 110 110" fill="none" xmlns="http://www.w3.org/2000/svg">
<path d="M97.0905 0H12.9095C5.77976 0 0 5.77976 0 12.9095V97.0905C0 104.22 5.77976 110 12.9095 110H97.0905C104.22 110 110 104.22 110 97.0905V12.9095C110 5.77976 104.22 0 97.0905 0Z" fill="#3178C6"/>
<path fill-rule="evenodd" clip-rule="evenodd" d="M68.0923 87.5324V98.2875C69.8407 99.1839 71.9086 99.856 74.296 100.304C76.6833 100.752 79.1996 100.977 81.8445 100.977C84.4225 100.977 86.8714 100.73 89.1915 100.237C91.5113 99.7439 93.5456 98.9319 95.2941 97.8003C97.0425 96.6687 98.4267 95.19 99.4468 93.3638C100.467 91.5377 100.977 89.2801 100.977 86.5913C100.977 84.6419 100.685 82.9335 100.102 81.4657C99.5196 79.9981 98.6789 78.693 97.5806 77.5503C96.4822 76.4075 95.1652 75.3825 93.6298 74.475C92.0943 73.5674 90.3626 72.7105 88.4347 71.9037C87.0227 71.3212 85.756 70.7555 84.6352 70.2063C83.5144 69.6574 82.562 69.0974 81.7773 68.526C80.9927 67.9547 80.3875 67.3494 79.9617 66.711C79.5357 66.0724 79.3227 65.3498 79.3227 64.5432C79.3227 63.8037 79.5133 63.1371 79.8944 62.5433C80.2754 61.9494 80.8135 61.4398 81.5083 61.014C82.2031 60.5882 83.0551 60.2578 84.0639 60.0226C85.0723 59.7873 86.1931 59.6696 87.426 59.6696C88.3227 59.6696 89.2697 59.737 90.2674 59.8713C91.2648 60.0058 92.2681 60.2131 93.2766 60.493C94.2853 60.7731 95.2662 61.1261 96.2189 61.5518C97.1713 61.9776 98.0513 62.4705 98.8584 63.0307V52.9812C97.2219 52.3538 95.4342 51.8888 93.4952 51.5865C91.5562 51.2839 89.3314 51.1326 86.8208 51.1326C84.2655 51.1326 81.8445 51.4073 79.5582 51.9562C77.2717 52.5051 75.2599 53.362 73.5228 54.5273C71.7854 55.6925 70.4123 57.1768 69.4036 58.9808C68.3949 60.7845 67.8906 62.9411 67.8906 65.4505C67.8906 68.6549 68.8152 71.3883 70.6646 73.6513C72.514 75.9146 75.3216 77.8304 79.0875 79.3989C80.5669 80.0038 81.9454 80.5974 83.2232 81.1801C84.501 81.7626 85.6047 82.3676 86.535 82.9949C87.4652 83.6224 88.1995 84.3058 88.7373 85.0452C89.2754 85.7847 89.5444 86.6248 89.5444 87.5659C89.5444 88.2607 89.3764 88.9049 89.0402 89.4985C88.7038 90.0923 88.1938 90.6077 87.5102 91.0448C86.8265 91.4816 85.9747 91.8232 84.9549 92.0698C83.9348 92.3164 82.7411 92.4395 81.3738 92.4395C79.0426 92.4395 76.7339 92.0305 74.4473 91.2126C72.1608 90.3949 70.0426 89.168 68.0923 87.5324ZM50.0113 61.0331H63.8086V52.2069H25.3516V61.0331H39.0813V100.332H50.0113V61.0331Z" fill="white"/>
</svg>
