<svg width="30" height="67" viewBox="0 0 30 67" fill="none" xmlns="http://www.w3.org/2000/svg">
<path d="M14.791 0.182978L16.5733 3.5411C16.974 4.16081 17.4081 4.70933 17.9195 5.22016C19.4185 6.7052 20.8159 8.29018 22.1019 9.96425C25.1218 13.9421 27.1588 18.3596 28.6134 23.1371C29.4858 26.0556 29.9596 29.0494 29.9951 32.0768C30.1411 41.1274 27.0482 48.8988 20.8121 55.3575C19.7977 56.3818 18.7019 57.3214 17.5354 58.1671C16.9177 58.1671 16.6255 57.6919 16.3709 57.2543C15.9072 56.443 15.5986 55.5519 15.4609 54.6269C15.2418 53.5319 15.0978 52.437 15.1687 51.3064V50.7956C15.1187 50.6867 14.5739 0.44049 14.791 0.182978Z" fill="#599636"/>
<path d="M14.791 0.0720259C14.7179 -0.0745256 14.6449 0.0364348 14.5719 0.107617C14.6073 0.840375 14.3527 1.49358 13.9541 2.11747C13.5158 2.73717 12.9356 3.21242 12.3533 3.72325C9.11843 6.53285 6.57224 9.92657 4.5332 13.7223C1.82006 18.8306 0.421742 24.3054 0.0252046 30.069C-0.156368 32.148 0.680534 39.4839 1.33378 41.6005C3.11611 47.2197 6.31762 51.9282 10.4646 56.0149C11.483 56.9989 12.5725 57.9117 13.6995 58.7889C14.0271 58.7889 14.0626 58.4958 14.1377 58.2781C14.2814 57.8122 14.3909 57.3364 14.4654 56.8545L15.1959 51.3818L14.791 0.0720259Z" fill="#6CAC48"/>
<path d="M16.5733 60.3905C16.6464 59.5531 17.0471 58.858 17.4833 58.165C17.045 57.9829 16.7194 57.6207 16.4648 57.2166C16.2452 56.8341 16.0635 56.4309 15.9222 56.0128C15.4129 54.4803 15.3044 52.8724 15.1583 51.3064V50.358C14.9767 50.5046 14.9392 51.744 14.9392 51.9282C14.833 53.5834 14.614 55.2293 14.2838 56.8544C14.1753 57.5118 14.1023 58.1671 13.6995 58.7512C13.6995 58.8245 13.6995 58.8978 13.7349 59.0067C14.3903 60.9411 14.5698 62.9112 14.6804 64.919V65.6517C14.6804 66.5268 14.6449 66.3426 15.3691 66.6357C15.6613 66.7446 15.9869 66.7823 16.279 67C16.4982 67 16.5337 66.8179 16.5337 66.6713L16.4251 65.4675V62.1094C16.3897 61.5232 16.4982 60.9411 16.5712 60.3926L16.5733 60.3905Z" fill="#C2BFBF"/>
</svg>
