<svg width="125" height="110" viewBox="0 0 125 110" fill="none" xmlns="http://www.w3.org/2000/svg">
<path d="M102.278 35.6525C100.963 35.2036 99.6388 34.7856 98.3052 34.3983C98.5263 33.4988 98.7303 32.5941 98.9171 31.6843C101.926 17.0605 99.9585 5.27925 93.245 1.40099C86.8168 -2.32049 76.2747 1.55777 65.64 10.8306C64.5944 11.7456 63.5702 12.688 62.5674 13.6577C61.8988 13.0135 61.2132 12.383 60.5104 11.7662C49.364 1.85076 38.1919 -2.32563 31.4861 1.56548C25.058 5.29467 23.1475 16.3692 25.8551 30.2297C26.1259 31.6004 26.4302 32.9651 26.7678 34.3238C25.1865 34.7736 23.6592 35.2542 22.1987 35.763C9.14706 40.3249 0.800781 47.4775 0.800781 54.8948C0.800781 62.5588 9.75902 70.2433 23.3687 74.9029C24.4726 75.2781 25.5868 75.6268 26.7113 75.9489C26.3462 77.4036 26.023 78.8745 25.7419 80.3618C23.1707 93.9832 25.1762 104.796 31.5915 108.502C38.2176 112.328 49.3331 108.396 60.1684 98.9126C61.0255 98.1622 61.8826 97.3697 62.7397 96.5353C63.823 97.5822 64.9372 98.5982 66.0823 99.5834C76.573 108.625 86.9325 112.277 93.3375 108.561C99.9585 104.721 102.111 93.1042 99.3157 78.9713C99.1014 77.8919 98.8546 76.7902 98.5752 75.6662C99.3568 75.4349 100.122 75.1959 100.871 74.9492C115.013 70.2536 124.226 62.6616 124.226 54.9025C124.221 47.4492 115.607 40.2504 102.278 35.6525ZM69.1086 14.8143C78.2186 6.87014 86.7346 3.73463 90.6171 5.97575C94.7492 8.36336 96.3562 17.9909 93.7592 30.6177C93.5878 31.4402 93.4027 32.26 93.2038 33.0773C87.7672 31.8413 82.2542 30.9689 76.7015 30.4661C73.5223 25.8885 70.0371 21.5308 66.27 17.4229C67.1922 16.5285 68.1367 15.659 69.1035 14.8143H69.1086ZM37.2431 61.2326C38.359 63.3915 39.5255 65.5238 40.7426 67.6296C41.9819 69.7781 43.2736 71.895 44.6175 73.9802C40.7968 73.565 37 72.9534 33.2423 72.1478C34.3325 68.6216 35.6747 64.9592 37.2431 61.2326ZM37.2431 48.8114C35.7004 45.1644 34.3942 41.5766 33.322 38.1121C36.8446 37.3231 40.5986 36.678 44.512 36.1897C43.2007 38.2355 41.9391 40.3112 40.7272 42.417C39.5153 44.5228 38.3513 46.6542 37.2354 48.8114H37.2431ZM40.0458 55.0233C41.6708 51.6359 43.421 48.3136 45.2963 45.0565C47.1699 41.801 49.1643 38.6201 51.2796 35.5137C54.9513 35.2362 58.7156 35.0897 62.5185 35.0897C66.3214 35.0897 70.1088 35.2362 73.778 35.5163C75.871 38.6158 77.8535 41.7856 79.7253 45.0256C81.5972 48.2657 83.3705 51.5725 85.0453 54.9462C83.3928 58.3455 81.6238 61.6815 79.7382 64.9541C77.868 68.2095 75.8967 71.3999 73.8243 74.5251C70.1603 74.7821 66.3677 74.9235 62.5108 74.9235C58.6539 74.9235 54.9333 74.8027 51.3361 74.5688C49.2054 71.4521 47.1947 68.2575 45.304 64.9849C43.4133 61.7124 41.658 58.3918 40.0381 55.0233H40.0458ZM84.3022 67.5936C85.5449 65.4381 86.738 63.2544 87.8813 61.0424C89.4487 64.5945 90.8321 68.2248 92.0262 71.919C88.2243 72.7747 84.3801 73.431 80.5096 73.8851C81.8158 71.8137 83.08 69.7165 84.3022 67.5936ZM87.8299 48.8139C86.6917 46.6465 85.5081 44.5048 84.279 42.3887C83.0791 40.3018 81.8286 38.2406 80.5276 36.2051C84.4641 36.7037 88.2413 37.3668 91.7819 38.1764C90.6436 41.7861 89.3246 45.3364 87.8299 48.8139ZM62.57 21.1984C65.1375 24.0026 67.5618 26.9345 69.8337 29.9829C64.9741 29.7516 60.111 29.7516 55.2444 29.9829C57.6434 26.8114 60.099 23.8687 62.57 21.1984ZM34.1396 6.13252C38.2691 3.7372 47.3996 7.16056 57.0238 15.7112C57.6383 16.2587 58.258 16.8318 58.8751 17.4255C55.0885 21.5328 51.5788 25.8866 48.3689 30.4584C42.8285 30.9574 37.3264 31.8159 31.8975 33.0285C31.5838 31.7674 31.301 30.4978 31.049 29.2196C28.722 17.3381 30.2622 8.38135 34.1396 6.13252ZM28.1203 70.8601C27.0918 70.5672 26.0762 70.2493 25.0734 69.9066C19.0567 67.8506 14.0864 65.1674 10.6744 62.2452C7.61974 59.6263 6.07185 57.0125 6.07185 54.8948C6.07185 50.3945 12.7725 44.653 23.9472 40.7593C25.3511 40.271 26.767 39.8246 28.1949 39.4203C29.8545 44.7514 31.8645 49.9672 34.2116 55.0336C31.8365 60.17 29.8017 65.4569 28.1203 70.8601ZM56.6946 94.9342C51.9044 99.1285 47.1064 102.102 42.8767 103.6C39.0764 104.945 36.0501 104.983 34.2219 103.927C30.329 101.678 28.7091 92.9937 30.9178 81.3461C31.1801 79.9754 31.4801 78.6047 31.8178 77.234C37.3011 78.4146 42.8584 79.2209 48.4512 79.6473C51.6924 84.2428 55.2312 88.6214 59.0448 92.7547C58.2785 93.5078 57.4943 94.2325 56.6946 94.9342ZM62.7165 88.9664C60.2172 86.2653 57.7231 83.2762 55.2907 80.0636C57.6546 80.1562 60.0613 80.2024 62.5108 80.2024C65.0255 80.2024 67.5145 80.1484 69.9674 80.0379C67.7038 83.1353 65.2836 86.1153 62.7165 88.9664ZM94.7337 96.3143C93.9983 100.283 92.5199 102.93 90.6917 103.989C86.8014 106.245 78.4834 103.313 69.5149 95.5792C68.4864 94.6951 67.4579 93.7468 66.4114 92.7522C70.1507 88.6027 73.6066 84.2065 76.7555 79.5933C82.3793 79.117 87.9636 78.254 93.4687 77.0104C93.7206 78.0281 93.9435 79.0253 94.1372 80.0019C95.374 86.2473 95.5514 91.8963 94.7337 96.3143ZM99.2077 69.9349C98.534 70.1585 97.8398 70.3744 97.1353 70.5852C95.4091 65.2289 93.3207 59.9962 90.8846 54.923C93.2293 49.9176 95.2359 44.7607 96.891 39.4871C98.1535 39.8546 99.38 40.2401 100.56 40.6488C111.982 44.5862 118.95 50.4151 118.95 54.8948C118.95 59.6751 111.424 65.8793 99.2077 69.9349Z" fill="#00D8FF"/>
<path d="M62.5108 65.9358C64.6991 65.943 66.8402 65.3009 68.6632 64.0909C70.4861 62.8809 71.9089 61.1574 72.7512 59.1386C73.5936 57.1199 73.8177 54.8967 73.3951 52.7506C72.9726 50.6045 71.9224 48.6319 70.3776 47.0828C68.8328 45.5336 66.8628 44.4775 64.7171 44.0481C62.5714 43.6188 60.3465 43.8355 58.3241 44.6709C56.3017 45.5063 54.5728 46.9228 53.3563 48.7409C52.1398 50.5591 51.4904 52.6972 51.4904 54.8845C51.4874 56.3336 51.7701 57.7691 52.3224 59.1089C52.8747 60.4488 53.6858 61.6667 54.7093 62.693C55.7327 63.7194 56.9485 64.534 58.2872 65.0905C59.6258 65.6469 61.061 65.9342 62.5108 65.9358Z" fill="#00D8FF"/>
</svg>
