<svg width="116" height="110" viewBox="0 0 116 110" fill="none" xmlns="http://www.w3.org/2000/svg">
<path d="M80.4068 76.8231C84.683 76.3805 87.9271 72.6944 87.7796 68.2706C87.6325 63.8472 83.9456 60.3082 79.5219 60.3082H79.2272C74.6555 60.4558 71.1167 64.2894 71.2643 68.8603C71.4118 71.0722 72.2963 72.989 73.6235 74.3161C68.6099 84.1957 60.9421 91.4207 49.4403 97.4663C41.6249 101.595 33.5148 103.07 25.4047 102.038C18.7689 101.153 13.6078 98.204 10.3632 93.3376C5.64481 86.1125 5.20257 78.2973 9.18406 70.4825C11.986 64.8792 16.4092 60.7504 19.2111 58.6861C18.6213 56.7693 17.7364 53.5254 17.2942 51.1664C-4.08757 66.6489 -1.87548 87.5871 4.61277 97.4663C9.47874 104.839 19.3587 109.41 30.2707 109.41C33.2197 109.41 36.1687 109.115 39.1181 108.378C57.9931 104.692 72.2967 93.4851 80.4068 76.8231ZM106.36 58.539C95.1527 45.4155 78.6374 38.1905 59.7625 38.1905H57.4033C56.0761 35.5363 53.2742 33.7666 50.1777 33.7666H49.8825C45.3117 33.9142 41.7729 37.7478 41.92 42.3192C42.0676 46.7426 45.7539 50.2815 50.1777 50.2815H50.4723C53.7165 50.134 56.5184 48.0696 57.698 45.2679H60.3523C71.5594 45.2679 82.1762 48.5118 91.7615 54.8524C99.1342 59.7185 104.443 66.0591 107.392 73.7264C109.899 79.9194 109.751 85.965 107.097 91.1261C102.968 98.9409 96.0377 103.217 86.8951 103.217C80.9966 103.217 75.3933 101.447 72.4439 100.12C70.822 101.595 67.8726 103.954 65.808 105.429C72.1492 108.378 78.6374 110 84.8306 110C98.9867 110 109.456 102.185 113.438 94.37C117.714 85.8174 117.419 71.0722 106.36 58.539ZM31.4503 79.3292C31.5978 83.7531 35.2842 87.2916 39.7079 87.2916H40.003C44.5743 87.1445 48.1131 83.3104 47.9656 78.7395C47.8185 74.3157 44.1316 70.7771 39.7079 70.7771H39.4132C39.1181 70.7771 38.6754 70.7771 38.3812 70.9242C32.3352 60.8975 29.8284 49.9864 30.7134 38.19C31.3027 29.3428 34.2522 21.6751 39.4132 15.3345C43.6894 9.8787 51.9471 7.22459 57.5508 7.07749C73.1812 6.78238 79.8166 26.246 80.2593 34.0613C82.1762 34.5035 85.4204 35.5359 87.6325 36.2732C85.8626 12.3862 71.1167 0 56.961 0C43.6894 0 31.4503 9.5845 26.5838 23.7399C19.8009 42.6138 24.2246 60.7504 32.4823 75.0534C31.7454 76.0854 31.3027 77.7071 31.4503 79.3292Z" fill="#A678EE"/>
</svg>
