<svg width="160" height="110" viewBox="0 0 160 110" fill="none" xmlns="http://www.w3.org/2000/svg">
<path d="M159.66 77.5192C159.202 73.794 157.317 70.5626 154.045 67.9031C154.004 67.8535 153.959 67.8075 153.911 67.7656L153.745 67.6469L153.692 67.6093L151.955 66.3593L151.895 66.3155L151.674 66.1593C151.593 66.1118 151.506 66.075 151.415 66.0499C145.918 62.7716 136.818 60.4746 122.895 65.3967C119.573 59.7965 119.195 55.3087 121.42 48.4334C121.816 47.2365 121.448 46.4458 120.262 45.9333C117.879 44.9176 114.616 45.4364 112.301 46.0489C111.221 46.3302 110.572 46.9427 110.367 47.8709C108.9 54.7462 104.639 61.0278 100.518 67.0906L100.275 67.4468C97.7351 62.0528 98.2624 57.8745 100.031 52.6399C100.384 51.5961 100.106 50.9023 99.1296 50.3835C96.403 48.9741 92.3132 49.9429 90.6847 50.4241C88.6195 51.0273 86.4046 56.6182 83.9307 63.3123C83.3068 64.9967 82.7702 66.4374 82.4489 67.1093C81.6845 68.6719 80.9546 70.4532 80.1809 72.3439C78.4339 76.6223 76.4654 81.4381 73.6515 84.4633C72.6282 82.1976 74.2379 78.6255 75.8009 75.1597C77.6508 71.0626 79.3978 67.1906 77.3857 64.7186C77.0675 64.3277 76.6727 64.0063 76.2258 63.7742C75.7789 63.542 75.2892 63.4039 74.787 63.3685C74.1318 63.3186 73.4741 63.4257 72.8684 63.681C73.0774 61.9153 73.0868 60.5215 72.5721 58.837C71.8358 56.4338 69.9235 55.0869 67.2905 55.1587C61.2945 55.3337 56.222 59.809 53.0181 63.5341C50.8843 66.0343 46.1549 67.9406 42.0026 69.6126C40.3617 70.3095 38.8019 70.9345 37.501 71.5595C35.4264 69.8032 32.7903 68.0312 30.0138 66.1593C22.2147 60.9153 13.3767 54.9681 13.071 46.9052C12.6343 34.9953 26.1735 26.548 37.9908 20.5195C46.9473 15.9568 54.7339 12.9317 61.7968 11.2785C71.7173 8.95648 80.0966 9.42526 86.6978 12.666C90.3104 14.438 92.0012 18.2913 90.9281 22.254C88.1204 32.5514 76.4872 39.608 66.5387 42.7831C60.5458 44.6957 55.4452 45.4958 50.9404 45.2332C45.2939 44.9051 40.683 42.0675 38.7114 40.858C38.3955 40.6419 38.0615 40.4537 37.7131 40.2955L37.6226 40.2736C37.4441 40.2291 37.2568 40.2347 37.0812 40.2899C36.9057 40.345 36.7487 40.4475 36.6275 40.5862C36.2219 41.0705 36.3654 41.8362 36.5121 42.2237C38.4306 47.2459 42.3926 50.4179 48.2856 51.6523C50.2142 52.0392 52.1774 52.2267 54.1443 52.2117C67.9363 52.2117 85.5342 44.2457 91.9981 37.686C96.4062 33.217 99.6163 28.6231 100.945 20.7008C102.333 12.4035 96.7181 6.63762 90.9967 3.98124C77.0924 -2.4472 61.3008 0.0935526 50.5005 3.35621C37.866 7.17202 24.7947 14.1099 14.6433 22.3978C2.1273 32.6076 -2.39619 42.0862 1.1914 50.6023C4.8757 59.3308 13.8603 64.7905 22.5485 70.072C25.3562 71.7752 28.0266 73.3971 30.4319 75.0722C29.7081 75.4253 28.9687 75.7847 28.2169 76.1441C20.9232 79.6849 12.6499 83.6695 8.06086 90.2542C4.72908 95.0513 4.10515 99.8265 6.20779 104.449C7.33087 106.908 9.32744 108.577 12.1008 109.408C13.5435 109.818 15.0376 110.017 16.5369 109.999C21.9371 109.999 27.88 107.811 31.1151 105.789C36.8303 102.195 40.5333 97.3702 42.1243 91.448C43.5406 86.179 43.2006 80.9444 41.1416 76.2723L48.1452 72.7346C44.7666 83.9851 47.3559 90.7042 50.2011 94.4106C51.2493 95.7763 53.1398 96.5983 55.2518 96.6357C57.3638 96.6732 59.3073 95.8763 60.4054 94.52C62.4831 91.9418 64.018 88.926 65.4312 85.9102C65.3563 87.8791 65.4499 89.8729 66.1206 91.5636C66.7227 93.0856 67.7148 94.095 68.9938 94.4825C70.354 94.8982 71.9481 94.5482 73.483 93.4981C80.3992 88.7572 85.1286 77.3786 88.9284 68.2312C89.4681 66.9312 89.9859 65.6811 90.4882 64.5123C91.4283 67.8825 92.736 71.1388 94.3877 74.2222C94.7559 74.8909 94.7247 75.1847 94.2255 75.7347C93.4737 76.5598 92.4255 77.5567 91.3149 78.613C87.9519 81.81 83.7654 85.8008 83.2038 89.3104C82.9854 90.7167 83.9525 91.998 85.4531 92.2887C89.9672 93.1887 95.4048 91.873 100.003 88.7729C104.183 85.9602 105.756 82.0382 104.683 77.1504C103.644 72.444 106.015 66.5999 111.73 59.7683C112.666 63.6841 113.914 66.8499 115.636 69.6219L115.589 69.6594C111.427 73.3002 105.725 78.2849 106.611 84.332C106.685 84.9071 106.878 85.4604 107.178 85.9565C107.477 86.4526 107.877 86.8807 108.351 87.2134C108.858 87.5561 109.43 87.7902 110.031 87.901C110.632 88.0118 111.25 87.9969 111.845 87.8572C117.295 86.7103 121.398 84.4008 124.38 80.8037C127.362 77.2067 126.274 73.219 125.269 70.1251C133.068 68.0062 140.013 68.0594 146.514 70.2813C150.164 71.5314 152.781 73.5846 154.291 76.4191C156.191 79.9849 155.165 83.2757 151.393 85.6852C150.236 86.4259 149.677 86.879 149.643 87.4509C149.635 87.5836 149.66 87.7163 149.714 87.8376C149.768 87.9589 149.851 88.0653 149.955 88.1478C150.392 88.5072 151.739 89.1323 154.787 87.2103C157.595 85.4446 159.242 83.0413 159.663 80.0224C159.748 79.1901 159.747 78.3513 159.66 77.5192ZM34.9585 85.3508L34.9273 85.7508C34.4406 90.3261 32.1196 94.3138 28.0173 97.6264C25.4404 99.7078 22.6421 100.986 20.1401 101.23C18.3931 101.398 17.1234 101.161 16.3685 100.52C15.8038 100.042 15.5012 99.3265 15.4326 98.3327C14.921 90.3698 27.3871 82.4569 34.4032 79.8537C34.9039 81.6402 35.0918 83.5001 34.9585 85.3508ZM66.8881 62.8935C65.7338 69.4844 62.3677 81.9257 57.0768 86.754C56.8241 86.9853 56.6119 87.0665 56.5152 87.0447C56.4185 87.0228 56.3437 86.9072 56.2657 86.7321C54.4999 82.6319 55.1519 75.7066 57.8255 70.2657C59.8813 66.0718 62.8169 63.2935 66.0988 62.4528C66.235 62.4152 66.3755 62.3952 66.5168 62.3935C66.6273 62.3857 66.7372 62.4154 66.8288 62.4778C66.8674 62.539 66.8926 62.6077 66.9029 62.6793C66.9131 62.7509 66.908 62.8239 66.8881 62.8935ZM92.934 86.9197C91.9388 87.9603 90.5755 87.8197 90.8969 87.4384L95.9632 82.0507C95.5545 83.9039 94.3472 85.4383 92.934 86.9197ZM113.951 82.26C113.469 82.4979 112.948 82.6451 112.413 82.6945C112.27 79.8599 115.012 76.6692 117.716 74.5409C118.443 77.4973 116.955 80.6225 113.951 82.26Z" fill="#D06599"/>
</svg>
