<svg width="96" height="110" viewBox="0 0 96 110" fill="none" xmlns="http://www.w3.org/2000/svg">
<path d="M81.5595 35.0788V74.7048L47.8294 94.626L47.5244 94.903V109.713L47.8294 110L95.3333 82.6082V27.3918L94.8846 27.2822L81.4921 34.7565L81.5595 35.0788Z" fill="#2F406A"/>
<path d="M13.9909 75.0294L47.8294 94.626V110L0 82.5V27.5L0.490818 27.426L13.8446 35.1762L13.9909 35.6201V75.0294Z" fill="#2379BD"/>
<path d="M13.9909 35.6201L0 27.5L47.721 0L95.3333 27.3918L81.5595 35.0788L47.721 15.8071L13.9909 35.6201Z" fill="#03AFEF"/>
<path d="M47.2488 70.4974L46.8824 70.1242V55.2446L47.2488 55.0558L47.3378 54.6889L60.1166 47.2476L60.5076 47.3349V62.6665L47.2488 70.4974Z" fill="#2F406A"/>
<path d="M33.7689 63.1442V47.2249L34.1394 47.2067L47.1382 54.7584L47.2488 55.0558V70.4974L33.7689 63.1442Z" fill="#2379BD"/>
<path d="M47.0276 39.3937L33.7689 47.2249L47.2488 55.0558L60.5076 47.3349L47.0276 39.3937Z" fill="#03AFEF"/>
<path d="M30.7487 80.2037L30.3827 79.8305V64.9506L30.7487 64.7621L30.8381 64.3952L43.6165 56.9539L44.0075 57.0413V72.3725L30.7487 80.2037Z" fill="#2F406A"/>
<path d="M17.2691 72.8506V56.9309L17.6393 56.9126L30.6381 64.4647L30.7487 64.7621V80.2037L17.2691 72.8506Z" fill="#2379BD"/>
<path d="M30.5279 49.1L17.2691 56.9309L30.7487 64.7621L44.0075 57.0413L30.5279 49.1Z" fill="#03AFEF"/>
<path d="M64.9272 80.5714L64.5608 80.1982V65.3182L64.9272 65.1297L65.0162 64.7628L77.795 57.3216L78.186 57.4089V72.7402L64.9272 80.5714Z" fill="#2F406A"/>
<path d="M51.4472 73.2182V57.2985L51.8178 57.2803L64.8166 64.8324L64.9272 65.1297V80.5714L51.4472 73.2182Z" fill="#2379BD"/>
<path d="M64.706 49.4677L51.4472 57.2985L64.9272 65.1297L78.186 57.4089L64.706 49.4677Z" fill="#03AFEF"/>
<path d="M48.4271 90.2777L48.061 89.9045V75.0245L48.4271 74.8361L48.5165 74.4688L61.2952 67.0279L61.6859 67.1152V82.4465L48.4271 90.2777Z" fill="#2F406A"/>
<path d="M34.9475 82.9246V67.0048L35.3176 66.9866L48.3169 74.5383L48.4271 74.8361V90.2777L34.9475 82.9246Z" fill="#2379BD"/>
<path d="M48.2063 59.1736L34.9475 67.0048L48.4271 74.8361L61.6859 67.1152L48.2063 59.1736Z" fill="#03AFEF"/>
<path d="M47.2488 49.3941L46.8824 49.0205V34.1409L47.2488 33.9524L47.3378 33.5851L60.1166 26.1442L60.5076 26.2316V41.5628L47.2488 49.3941Z" fill="#2F406A"/>
<path d="M33.7689 42.0409V26.1212L34.1394 26.103L47.1382 33.6546L47.2488 33.9524V49.3941L33.7689 42.0409Z" fill="#2379BD"/>
<path d="M47.0276 18.29L33.7689 26.1212L47.2488 33.9524L60.5076 26.2316L47.0276 18.29Z" fill="#03AFEF"/>
<path d="M30.7487 59.1L30.3827 58.7268V43.8472L30.7487 43.6584L30.8381 43.2915L43.6165 35.8502L44.0075 35.9375V51.2691L30.7487 59.1Z" fill="#2F406A"/>
<path d="M17.2691 51.7468V35.8275L17.6393 35.8093L30.6381 43.361L30.7487 43.6584V59.1L17.2691 51.7468Z" fill="#2379BD"/>
<path d="M30.5279 27.9963L17.2691 35.8275L30.7487 43.6584L44.0075 35.9375L30.5279 27.9963Z" fill="#03AFEF"/>
<path d="M64.9272 59.4677L64.5608 59.0944V44.2149L64.9272 44.026L65.0162 43.6591L77.795 36.2178L78.186 36.3052V51.6368L64.9272 59.4677Z" fill="#2F406A"/>
<path d="M51.4472 52.1145V36.1952L51.8178 36.177L64.8166 43.7286L64.9272 44.026V59.4677L51.4472 52.1145Z" fill="#2379BD"/>
<path d="M64.706 28.3639L51.4472 36.1952L64.9272 44.026L78.186 36.3052L64.706 28.3639Z" fill="#03AFEF"/>
<path d="M48.4271 69.174L48.061 68.8008V53.9208L48.4271 53.7323L48.5165 53.3654L61.2952 45.9242L61.6859 46.0115V61.3428L48.4271 69.174Z" fill="#2F406A"/>
<path d="M34.9475 61.8208V45.9011L35.3176 45.8829L48.3169 53.435L48.4271 53.7323V69.174L34.9475 61.8208Z" fill="#2379BD"/>
<path d="M48.2063 38.0699L34.9475 45.9011L48.4271 53.7323L61.6859 46.0115L48.2063 38.0699Z" fill="#03AFEF"/>
</svg>
