<svg width="43" height="43" viewBox="0 0 43 43" fill="none" xmlns="http://www.w3.org/2000/svg">
<path d="M3.30512 32.2897C2.60662 31.8915 2.02562 31.316 1.62087 30.6212C1.21611 29.9265 1.00194 29.1373 1 28.3332V5.55554C1 3.04999 3.05 1 5.55556 1H28.3334C30.0417 1 30.9711 1.87694 31.7501 3.27777M10.111 16.186C10.111 14.5749 10.7511 13.0298 11.8903 11.8905C13.0296 10.7513 14.5747 10.1112 16.1859 10.1112H35.9252C36.7229 10.1112 37.5129 10.2684 38.2499 10.5737C38.9869 10.8789 39.6566 11.3264 40.2207 11.8905C40.7848 12.4546 41.2323 13.1243 41.5376 13.8613C41.8429 14.5983 42 15.3883 42 16.186V35.9252C42 36.7229 41.8429 37.5129 41.5376 38.2499C41.2323 38.9869 40.7848 39.6566 40.2207 40.2207C39.6566 40.7848 38.9869 41.2323 38.2499 41.5376C37.5129 41.8429 36.7229 42 35.9252 42H16.1859C15.3881 42 14.5982 41.8429 13.8612 41.5376C13.1241 41.2323 12.4544 40.7848 11.8903 40.2207C11.3262 39.6566 10.8788 38.9869 10.5735 38.2499C10.2682 37.5129 10.111 36.7229 10.111 35.9252V16.186Z" stroke="black" stroke-width="2" stroke-linecap="round" stroke-linejoin="round"/>
</svg>
