<svg width="42" height="43" viewBox="0 0 42 43" fill="none" xmlns="http://www.w3.org/2000/svg">
<path d="M31.9188 6.35805C31.0291 6.80738 27.0092 12.5844 24.472 17.1739C22.2973 21.1215 19.8589 26.2245 18.3103 30.1079C17.6842 31.6805 17.124 32.9322 17.0252 32.9322C16.9263 32.9322 16.1355 31.8089 15.2129 30.4609C13.5324 27.9255 10.7646 24.7481 9.80904 24.2988C9.11708 23.9458 7.27185 24.4593 7.00825 25.0691C6.9094 25.39 7.70021 26.4812 9.31478 28.2143C10.6987 29.6586 12.7087 32.1299 13.796 33.7346C14.8834 35.3072 15.9708 36.7515 16.2344 36.8798C16.498 37.0082 17.1899 37.0403 17.783 36.944C18.8045 36.7515 18.9034 36.591 20.1225 33.3173C23.2528 24.8765 28.1624 15.9222 33.5663 8.79723C34.456 7.60974 35.115 6.48643 34.9832 6.29386C34.7196 5.87664 32.9073 5.90873 31.9188 6.35805Z" fill="black"/>
</svg>
