<svg width="220" height="257" viewBox="0 0 220 257" fill="none" xmlns="http://www.w3.org/2000/svg">
<path d="M82.437 42.2565L45.9434 21.1283L9.46045 42.2565V21.1283L45.9487 0L82.4423 21.1283V42.2565H82.437Z" fill="#A435F0"/>
<path d="M9.46045 59.9998H28.5754V106.574C28.5754 118.607 37.5343 124.474 45.9487 124.474C54.4356 124.474 63.3291 118.451 63.3291 106.413V59.9998H82.4423V107.685C82.4423 118.769 78.968 127.323 72.0176 133.188C65.0636 139.049 56.3787 141.903 45.7878 141.903C35.2075 141.903 26.5173 139.054 19.7296 133.188C12.9348 127.328 9.46045 119.091 9.46045 108.158V59.9998Z" fill="black"/>
<path fill-rule="evenodd" clip-rule="evenodd" d="M44.1733 239.218C34.5087 238.626 25.2537 232.715 20.7544 224.076C16.5789 216.059 16.6446 205.987 20.9122 198.031C25.6898 189.126 35.1665 183.695 45.6558 183.228C45.6558 183.228 48.2621 183.061 50.0018 182.073C55.1635 179.14 55.9343 170.482 50.3868 166.947C48.8934 165.996 47.1108 165.555 45.3337 165.561C27.8099 165.728 10.8644 176.679 3.74139 192.926C-2.24495 206.582 -0.999696 223.142 7.13322 235.806C13.6058 245.883 24.1617 253.252 35.8716 255.8C51.8966 259.288 69.6467 253.361 80.3586 240.863C90.9793 228.471 94.2243 210.153 88.2762 194.774C84.8662 185.958 78.8242 177.918 70.7396 173.081C70.3172 172.829 69.8748 172.621 69.4186 172.455C77.5516 179.42 82.7077 189.755 82.7077 201.283C82.7077 222.236 65.6747 239.246 44.6933 239.246C44.5218 239.246 44.5045 239.238 44.1733 239.218Z" fill="#1292EE"/>
<path d="M177.409 236.219C173.034 236.219 168.95 234.51 165.866 231.426L127.78 193.215C124.696 190.09 122.988 185.964 122.988 181.589C122.988 177.213 124.696 173.088 127.78 170.005L165.992 131.835C169.117 128.751 173.2 127.042 177.534 127.042H177.576C181.951 127.042 186.035 128.751 189.118 131.876L214.871 157.878C217.954 161.004 219.621 165.087 219.621 169.504C219.621 173.88 217.913 178.005 214.787 181.089L190.535 205.216L178.409 192.923L202.036 169.421L177.534 144.669L140.573 181.631L177.409 218.592L190.535 205.341L202.745 217.509L188.993 231.385C185.91 234.51 181.785 236.219 177.409 236.219Z" fill="#97C93E"/>
<path d="M167.295 7.00632C167.444 7.00542 167.593 7.00451 167.746 7.00358C168.223 7.00133 168.7 7.00049 169.177 7.00026C169.421 7.00013 169.421 7.00013 169.671 7C171.99 7.00198 174.251 7.04453 176.544 7.42029C176.688 7.44247 176.833 7.46465 176.982 7.4875C186.339 8.93461 195.314 12.987 202.392 19.3102C202.505 19.4109 202.618 19.5115 202.735 19.6152C203.053 19.8994 203.369 20.1862 203.684 20.4734C203.815 20.5906 203.945 20.7077 204.076 20.8248C204.735 21.4174 205.367 22.0138 205.937 22.6942C206.139 22.9288 206.353 23.1421 206.576 23.357C207.172 23.946 207.684 24.6016 208.207 25.2552C208.326 25.3992 208.444 25.5431 208.563 25.6869C210.055 27.5065 211.426 29.4285 212.592 31.4737C212.686 31.6394 212.782 31.8048 212.878 31.9697C216.943 38.9623 219.573 47.1521 219.606 55.2951C219.607 55.4438 219.608 55.5926 219.609 55.7458C219.611 56.2229 219.612 56.7 219.613 57.1772C219.613 57.4215 219.613 57.4215 219.613 57.6707C219.611 59.9897 219.568 62.2514 219.193 64.5438C219.17 64.6885 219.148 64.8332 219.125 64.9823C217.678 74.3387 213.626 83.3139 207.303 90.3915C207.202 90.505 207.101 90.6184 206.998 90.7353C206.713 91.0533 206.427 91.3687 206.139 91.6839C206.022 91.8146 205.905 91.9454 205.788 92.0762C205.195 92.735 204.599 93.3665 203.919 93.937C203.684 94.1394 203.471 94.3525 203.256 94.5756C202.667 95.1725 202.011 95.6837 201.358 96.2072C201.214 96.3256 201.07 96.444 200.926 96.5627C199.106 98.0545 197.184 99.4256 195.139 100.592C194.973 100.686 194.808 100.782 194.643 100.878C187.651 104.943 179.461 107.573 171.318 107.606C171.169 107.607 171.02 107.608 170.867 107.609C170.39 107.611 169.913 107.612 169.436 107.613C169.191 107.613 169.191 107.613 168.942 107.613C166.623 107.611 164.361 107.568 162.069 107.193C161.924 107.17 161.78 107.148 161.631 107.125C152.274 105.678 143.299 101.626 136.221 95.3026C136.051 95.1516 136.051 95.1516 135.878 94.9977C135.56 94.7135 135.244 94.4266 134.929 94.1394C134.798 94.0222 134.667 93.9051 134.537 93.7881C133.878 93.1954 133.246 92.599 132.676 91.9186C132.473 91.684 132.26 91.4707 132.037 91.2558C131.44 90.6668 130.929 90.0113 130.406 89.3576C130.287 89.2136 130.169 89.0697 130.05 88.926C128.558 87.1064 127.187 85.1843 126.021 83.1391C125.927 82.9734 125.831 82.8081 125.735 82.6431C121.67 75.6506 119.04 67.4607 119.006 59.3177C119.005 59.169 119.005 59.0203 119.004 58.867C119.001 58.3899 119 57.9128 119 57.4356C119 57.2728 119 57.1099 119 56.9422C119.002 54.6231 119.045 52.3614 119.42 50.069C119.442 49.9243 119.465 49.7796 119.487 49.6305C120.935 40.2741 124.987 31.299 131.31 24.2213C131.411 24.1079 131.511 23.9944 131.615 23.8775C131.899 23.5596 132.186 23.2442 132.473 22.9289C132.591 22.7982 132.708 22.6675 132.825 22.5367C133.417 21.8779 134.014 21.2463 134.694 20.6758C134.929 20.4735 135.142 20.2603 135.357 20.0372C135.946 19.4403 136.602 18.9292 137.255 18.4056C137.399 18.2873 137.543 18.1688 137.687 18.0502C139.506 16.5583 141.429 15.1873 143.474 14.0211C143.639 13.9265 143.805 13.8313 143.97 13.7353C150.962 9.67011 159.152 7.03965 167.295 7.00632ZM145.316 39.0893C145.149 39.3397 145.01 39.5874 144.88 39.8592C144.819 39.9876 144.819 39.9876 144.756 40.1187C144.292 41.2731 144.346 42.54 144.743 43.704C145.316 45.0349 146.345 46.0424 147.645 46.6577C148.396 46.9294 149.159 46.8925 149.949 46.8891C150.122 46.8897 150.295 46.8905 150.468 46.8914C150.942 46.8936 151.415 46.8933 151.889 46.8925C152.4 46.8922 152.912 46.8941 153.423 46.8957C154.425 46.8984 155.426 46.899 156.428 46.8987C157.242 46.8986 158.056 46.8991 158.871 46.9C159.105 46.9003 159.34 46.9006 159.575 46.9008C159.692 46.901 159.808 46.9011 159.929 46.9012C162.138 46.9037 164.347 46.9036 166.556 46.9027C168.576 46.902 170.595 46.9046 172.614 46.9089C174.689 46.9133 176.764 46.9152 178.839 46.9146C180.003 46.9144 181.168 46.915 182.332 46.9183C183.323 46.921 184.315 46.9214 185.306 46.919C185.811 46.9178 186.317 46.9176 186.822 46.9203C187.286 46.9228 187.749 46.9222 188.213 46.9192C188.458 46.9184 188.703 46.9208 188.948 46.9233C190.356 46.9089 191.575 46.52 192.603 45.529C193.721 44.3283 194.226 43.1272 194.169 41.4651C194.006 39.9937 193.268 38.8921 192.157 37.9448C190.956 37.0858 189.67 36.9396 188.229 36.9494C188.059 36.9485 187.888 36.9476 187.713 36.9467C187.245 36.9443 186.777 36.9451 186.309 36.9465C185.803 36.9474 185.296 36.9453 184.79 36.9436C183.8 36.9408 182.809 36.9408 181.819 36.9419C181.014 36.9427 180.209 36.9426 179.403 36.9417C179.288 36.9416 179.174 36.9415 179.055 36.9414C178.822 36.9411 178.589 36.9409 178.355 36.9407C176.17 36.9385 173.985 36.9396 171.8 36.9418C169.803 36.9437 167.806 36.9418 165.809 36.9381C163.755 36.9343 161.702 36.9329 159.648 36.9341C159.416 36.9342 159.183 36.9344 158.951 36.9345C158.779 36.9346 158.779 36.9346 158.604 36.9347C157.801 36.935 156.997 36.9337 156.193 36.9318C155.213 36.9295 154.233 36.9296 153.253 36.9325C152.753 36.9339 152.253 36.9344 151.754 36.932C151.211 36.9294 150.668 36.9318 150.126 36.9348C149.891 36.9325 149.891 36.9325 149.652 36.9301C147.839 36.9499 146.444 37.6716 145.316 39.0893ZM145.338 54.4435C144.514 55.5951 144.357 56.8555 144.528 58.2383C144.796 59.4755 145.438 60.5318 146.431 61.3128C147.332 61.8854 148.053 62.2321 149.124 62.2365C149.278 62.2374 149.432 62.2383 149.591 62.2393C149.76 62.2396 149.929 62.24 150.102 62.2404C150.282 62.2412 150.462 62.242 150.642 62.2429C151.232 62.2456 151.823 62.247 152.413 62.2483C152.617 62.2488 152.82 62.2493 153.024 62.2499C153.981 62.2523 154.939 62.2542 155.896 62.2552C156.999 62.2565 158.102 62.2599 159.205 62.2651C160.058 62.269 160.912 62.2709 161.766 62.2714C162.275 62.2717 162.785 62.2728 163.294 62.2761C163.774 62.2791 164.253 62.2796 164.733 62.2783C164.991 62.2782 165.249 62.2807 165.507 62.2832C167.071 62.2743 168.292 61.8877 169.436 60.7959C170.46 59.6963 170.803 58.5473 170.78 57.0722C170.728 55.7443 170.271 54.6923 169.35 53.719C168.443 52.895 167.297 52.3648 166.065 52.3608C165.91 52.3597 165.755 52.3586 165.596 52.3574C165.344 52.3576 165.344 52.3576 165.087 52.3578C164.907 52.357 164.727 52.3561 164.547 52.3552C164.059 52.3529 163.571 52.3523 163.083 52.3521C162.778 52.3519 162.472 52.3514 162.167 52.3507C161.1 52.3483 160.034 52.3472 158.967 52.3474C157.976 52.3476 156.984 52.3449 155.992 52.3408C155.139 52.3374 154.285 52.336 153.432 52.3362C152.923 52.3363 152.414 52.3355 151.905 52.3328C151.426 52.3303 150.947 52.3303 150.468 52.3321C150.21 52.3325 149.953 52.3304 149.695 52.3281C147.843 52.341 146.523 53.0331 145.338 54.4435ZM178.095 52.9123C177.956 52.9976 177.817 53.0829 177.675 53.1708C177.499 53.2987 177.499 53.2987 177.319 53.4292C177.159 53.5372 177.159 53.5372 176.996 53.6473C176.061 54.5121 175.587 55.5797 175.469 56.8359C175.417 58.3671 175.806 59.6138 176.859 60.7474C177.898 61.7109 178.85 62.2362 180.28 62.2383C180.384 62.2389 180.488 62.2396 180.595 62.2402C180.94 62.2421 181.285 62.243 181.63 62.2437C181.87 62.2445 182.11 62.2452 182.35 62.246C182.854 62.2473 183.357 62.2481 183.861 62.2485C184.505 62.2492 185.148 62.2523 185.792 62.256C186.288 62.2584 186.785 62.2591 187.281 62.2593C187.518 62.2597 187.755 62.2607 187.992 62.2624C188.325 62.2646 188.658 62.2644 188.991 62.2635C189.088 62.2647 189.185 62.2659 189.284 62.2672C190.632 62.2567 191.754 61.7007 192.725 60.7863C193.838 59.605 194.174 58.4126 194.156 56.8102C194.035 55.4296 193.319 54.3799 192.327 53.4616C191.31 52.6095 190.375 52.3772 189.062 52.3725C188.958 52.3716 188.854 52.3708 188.747 52.3699C188.404 52.3674 188.06 52.3658 187.717 52.3645C187.599 52.364 187.481 52.3635 187.36 52.3629C186.737 52.3603 186.114 52.3584 185.491 52.3572C184.849 52.3558 184.208 52.3513 183.566 52.3462C183.071 52.3428 182.576 52.3417 182.081 52.3413C181.844 52.3406 181.608 52.3391 181.372 52.3367C179.657 52.2871 179.657 52.2871 178.095 52.9123ZM145.397 69.7133C144.595 71.0851 144.254 72.2839 144.576 73.8752C144.991 75.2576 145.832 76.3392 147.077 77.0799C148.039 77.5612 148.873 77.6736 149.94 77.6655C150.16 77.6663 150.16 77.6663 150.384 77.667C150.692 77.6674 151 77.6664 151.309 77.6643C151.776 77.6615 152.244 77.6643 152.711 77.6676C153.013 77.6672 153.314 77.6666 153.615 77.6655C153.753 77.6666 153.891 77.6676 154.033 77.6687C155.544 77.6502 156.837 77.2391 157.933 76.1753C158.984 75.0659 159.318 73.774 159.314 72.2788C159.259 71.0371 158.732 69.9977 157.909 69.0671C157.075 68.3184 155.909 67.7633 154.788 67.7519C154.647 67.7502 154.506 67.7485 154.36 67.7468C154.208 67.7459 154.055 67.7449 153.898 67.7439C153.74 67.7429 153.583 67.7419 153.421 67.7408C153.087 67.739 152.754 67.7376 152.42 67.7366C151.912 67.7344 151.404 67.7287 150.896 67.723C150.572 67.7217 150.248 67.7206 149.924 67.7197C149.773 67.7174 149.621 67.7152 149.466 67.7129C147.822 67.7172 146.429 68.4107 145.397 69.7133ZM165.042 69.3256C164.732 69.7359 164.491 70.1569 164.266 70.618C164.222 70.7 164.178 70.7819 164.133 70.8664C163.644 71.921 163.76 73.201 164.088 74.2851C164.6 75.6309 165.567 76.6902 166.878 77.2954C167.893 77.7025 168.875 77.6869 169.948 77.6784C170.164 77.6791 170.381 77.68 170.598 77.6812C171.182 77.6836 171.766 77.682 172.35 77.6794C172.964 77.6773 173.578 77.6784 174.192 77.6791C175.223 77.6797 176.254 77.6776 177.285 77.674C178.473 77.6699 179.661 77.6699 180.85 77.6721C181.997 77.6742 183.145 77.6733 184.292 77.6711C184.778 77.6702 185.265 77.6703 185.751 77.6713C186.325 77.6723 186.899 77.6707 187.472 77.6672C187.682 77.6663 187.891 77.6663 188.101 77.6672C189.866 77.6742 191.381 77.45 192.699 76.1753C193.692 75.1676 194.128 73.9486 194.185 72.5404C194.125 71.0251 193.426 69.8783 192.359 68.849C191.036 67.778 189.64 67.6806 188.011 67.6932C187.79 67.6925 187.569 67.6916 187.349 67.6904C186.753 67.688 186.157 67.6896 185.561 67.6922C184.936 67.6943 184.31 67.6932 183.684 67.6925C182.634 67.6919 181.584 67.694 180.534 67.6976C179.323 67.7017 178.111 67.7017 176.899 67.6995C175.73 67.6974 174.561 67.6983 173.392 67.7005C172.896 67.7014 172.4 67.7013 171.904 67.7003C171.32 67.6993 170.735 67.7009 170.151 67.7044C169.937 67.7053 169.723 67.7054 169.509 67.7044C167.703 67.6974 166.358 68.002 165.042 69.3256Z" fill="#262B34"/>
<path d="M150.095 36.9505C150.265 36.9497 150.435 36.9489 150.61 36.948C151.078 36.9459 151.547 36.9469 152.015 36.9485C152.522 36.9497 153.028 36.9479 153.535 36.9465C154.526 36.9442 155.517 36.9447 156.509 36.9462C157.315 36.9473 158.121 36.9475 158.927 36.9469C159.041 36.9469 159.156 36.9468 159.275 36.9467C159.508 36.9465 159.741 36.9464 159.975 36.9462C162.162 36.9447 164.349 36.9464 166.536 36.9492C168.41 36.9515 170.284 36.9511 172.159 36.9487C174.338 36.9459 176.517 36.9449 178.696 36.9464C178.928 36.9466 179.161 36.9468 179.393 36.9469C179.508 36.947 179.622 36.9471 179.74 36.9472C180.544 36.9476 181.349 36.9469 182.153 36.9457C183.134 36.9442 184.116 36.9446 185.097 36.9473C185.597 36.9487 186.097 36.9492 186.597 36.9475C187.14 36.9457 187.684 36.9479 188.227 36.9505C188.384 36.9493 188.54 36.9482 188.701 36.947C190.256 36.9612 191.568 37.3396 192.699 38.4377C193.656 39.4429 194.134 40.5201 194.193 41.911C194.142 43.368 193.627 44.4968 192.612 45.5342C191.377 46.643 190.156 46.8963 188.532 46.8883C188.359 46.8889 188.185 46.8896 188.012 46.8905C187.538 46.8923 187.063 46.8918 186.589 46.8908C186.077 46.8902 185.565 46.8918 185.052 46.8932C184.049 46.8954 183.047 46.8955 182.044 46.8948C181.228 46.8943 180.413 46.8945 179.598 46.8952C179.424 46.8953 179.424 46.8953 179.246 46.8955C179.01 46.8957 178.774 46.8958 178.539 46.896C176.328 46.8978 174.117 46.8971 171.906 46.8956C169.884 46.8944 167.862 46.896 165.84 46.8991C163.762 46.9023 161.685 46.9035 159.608 46.9027C158.442 46.9022 157.276 46.9025 156.111 46.9048C155.118 46.9067 154.126 46.9067 153.134 46.9045C152.627 46.9034 152.121 46.9031 151.615 46.9051C151.152 46.9069 150.688 46.9063 150.224 46.9038C149.978 46.903 149.732 46.9049 149.485 46.9068C148.012 46.8942 146.945 46.4046 145.85 45.4166C144.773 44.3135 144.442 42.9844 144.457 41.4971C144.558 40.1389 145.208 39.1002 146.186 38.1828C147.393 37.1783 148.548 36.9391 150.095 36.9505Z" fill="#FEFEFE"/>
<path d="M169.795 67.7204C170.016 67.7195 170.236 67.7184 170.457 67.7171C171.054 67.7142 171.65 67.7138 172.247 67.7141C172.747 67.7141 173.246 67.713 173.745 67.7119C174.924 67.7094 176.103 67.7091 177.282 67.7099C178.496 67.7108 179.709 67.7078 180.922 67.7031C181.966 67.6991 183.01 67.6976 184.055 67.6981C184.677 67.6984 185.3 67.6977 185.922 67.6945C186.508 67.6916 187.094 67.6919 187.68 67.6945C187.894 67.6949 188.108 67.6943 188.322 67.6924C189.958 67.6792 191.376 67.9005 192.603 69.0837C193.537 70.0866 194.13 71.1409 194.185 72.5404C194.121 74.1263 193.565 75.3371 192.436 76.4291C191.072 77.5978 189.504 77.6734 187.793 77.6658C187.576 77.6667 187.359 77.6678 187.143 77.6691C186.558 77.672 185.974 77.6717 185.39 77.6705C184.9 77.6699 184.411 77.6708 183.922 77.6717C182.766 77.6739 181.611 77.6735 180.456 77.6713C179.267 77.6691 178.079 77.6712 176.89 77.6754C175.867 77.6788 174.843 77.6797 173.819 77.6786C173.209 77.678 172.599 77.6783 171.989 77.6809C171.415 77.6833 170.842 77.6825 170.268 77.6794C170.058 77.6787 169.849 77.6792 169.64 77.6808C167.863 77.6937 166.496 77.359 165.187 76.0874C164.126 74.9287 163.795 73.6471 163.834 72.0906C163.9 71.4412 164.086 70.9305 164.395 70.3595C164.473 70.2103 164.473 70.2103 164.552 70.0581C165.158 69.0271 166.154 68.2646 167.277 67.8567C168.095 67.6648 168.96 67.7187 169.795 67.7204Z" fill="#1BBB9A"/>
<path d="M149.124 52.3763C149.355 52.3749 149.355 52.3749 149.591 52.3735C149.844 52.373 149.844 52.373 150.102 52.3725C150.282 52.3717 150.462 52.3708 150.642 52.3699C151.232 52.3672 151.823 52.3658 152.413 52.3645C152.617 52.364 152.82 52.3635 153.024 52.363C153.982 52.3605 154.939 52.3587 155.897 52.3576C156.999 52.3563 158.102 52.3529 159.205 52.3477C160.059 52.3438 160.912 52.3419 161.766 52.3414C162.275 52.3411 162.785 52.34 163.294 52.3367C163.774 52.3337 164.253 52.3332 164.733 52.3345C164.991 52.3346 165.249 52.3321 165.507 52.3296C167.068 52.3385 168.297 52.7228 169.436 53.817C170.609 55.144 170.847 56.4699 170.756 58.196C170.632 59.406 169.928 60.3873 169.048 61.1836C167.825 62.1484 166.561 62.275 165.043 62.2697C164.863 62.2704 164.683 62.2713 164.502 62.2724C164.016 62.2747 163.53 62.2746 163.044 62.2738C162.637 62.2734 162.229 62.2742 161.822 62.275C160.861 62.2768 159.9 62.2766 158.938 62.2751C157.949 62.2736 156.96 62.2755 155.971 62.2789C155.12 62.2818 154.268 62.2826 153.416 62.2819C152.909 62.2815 152.401 62.2818 151.894 62.284C151.416 62.286 150.939 62.2855 150.461 62.283C150.204 62.2823 149.947 62.2842 149.691 62.2861C148.114 62.2732 146.966 61.8123 145.83 60.7196C145.136 59.9689 144.555 58.9876 144.493 57.9526C144.485 57.8398 144.477 57.727 144.468 57.6108C144.41 56.1803 144.813 55.0036 145.785 53.9462C146.749 52.9699 147.736 52.382 149.124 52.3763Z" fill="#FEFEFE"/>
<path d="M180.353 52.3453C180.509 52.3443 180.509 52.3443 180.669 52.3432C181.01 52.3415 181.351 52.3426 181.693 52.3439C181.932 52.3437 182.171 52.3433 182.41 52.3428C182.91 52.3423 183.41 52.3431 183.91 52.3449C184.548 52.3471 185.187 52.3458 185.825 52.3435C186.319 52.3421 186.812 52.3426 187.306 52.3436C187.541 52.3438 187.777 52.3435 188.012 52.3426C188.342 52.3416 188.672 52.3431 189.002 52.3453C189.097 52.3445 189.193 52.3437 189.292 52.3429C190.635 52.359 191.756 52.9145 192.725 53.8267C193.778 54.9438 194.158 56.0484 194.139 57.562C194.073 58.9223 193.474 60.1478 192.481 61.0771C191.395 61.9326 190.426 62.2356 189.062 62.2405C188.958 62.2413 188.854 62.2422 188.747 62.243C188.403 62.2456 188.06 62.2471 187.717 62.2484C187.54 62.2492 187.54 62.2492 187.36 62.25C186.737 62.2527 186.114 62.2545 185.491 62.2557C184.849 62.2572 184.208 62.2616 183.566 62.2667C183.071 62.2701 182.576 62.2712 182.081 62.2717C181.844 62.2723 181.608 62.2738 181.371 62.2762C179.015 62.2987 179.015 62.2987 178.095 61.7006C177.956 61.618 177.817 61.5354 177.675 61.4502C176.594 60.6397 175.764 59.5601 175.51 58.2112C175.401 56.5431 175.604 55.3528 176.633 54.0175C177.636 52.9092 178.87 52.3331 180.353 52.3453Z" fill="#1BBB9A"/>
<path d="M148.924 67.7498C149.064 67.7478 149.204 67.7457 149.348 67.7436C149.991 67.7378 150.634 67.7325 151.277 67.7295C151.614 67.7274 151.952 67.7239 152.29 67.7189C152.779 67.7118 153.268 67.709 153.757 67.7071C153.906 67.7042 154.055 67.7013 154.209 67.6982C155.704 67.7021 156.956 68.1844 158.028 69.2368C159.058 70.4565 159.384 71.6165 159.288 73.1755C159.146 74.642 158.455 75.7949 157.328 76.7326C156.2 77.4971 154.958 77.6764 153.624 77.6701C153.478 77.6709 153.332 77.6717 153.181 77.6725C152.874 77.6734 152.568 77.6731 152.261 77.6714C151.796 77.6696 151.331 77.674 150.865 77.6789C150.565 77.6791 150.265 77.6788 149.965 77.6782C149.828 77.6799 149.691 77.6816 149.55 77.6834C148.059 77.6651 146.867 77.1281 145.801 76.0965C145.397 75.6415 145.12 75.1821 144.88 74.6244C144.839 74.5345 144.798 74.4445 144.756 74.3518C144.278 73.1511 144.357 71.8635 144.847 70.6821C145.624 69.141 147.133 67.774 148.924 67.7498Z" fill="#FEFEFE"/>
</svg>
