<svg width="64" height="64" viewBox="0 0 64 64" fill="none" xmlns="http://www.w3.org/2000/svg">
<path d="M56 8H8C3.582 8 0 11.582 0 16V48C0 52.418 3.582 56 8 56H56C60.418 56 64 52.418 64 48V16C64 11.582 60.418 8 56 8ZM42.832 29.3476L59.7656 14.8359C59.8829 15.2109 60 15.5859 60 16V48C60 48.2774 59.8945 48.5235 59.8399 48.7851L42.832 29.3476ZM56 12C56.2656 12 56.5 12.1016 56.75 12.1524L32 33.3672L7.25 12.1524C7.5 12.1016 7.73438 12 8 12H56ZM4.15825 48.7812C4.1035 48.5195 4 48.2774 4 48V16C4 15.5859 4.11912 15.2109 4.23637 14.8359L21.1641 29.3438L4.15825 48.7812ZM8 52C7.59575 52 7.2285 51.8828 6.85938 51.7695L24.2031 31.9491L30.6992 37.5155C31.0722 37.8399 31.5371 38 32 38C32.4629 38 32.9277 37.8399 33.3008 37.5156L39.7969 31.9492L57.1406 51.7696C56.7735 51.8828 56.4062 52 56 52H8Z" fill="black"/>
</svg>
