<svg width="284" height="81" viewBox="0 0 284 81" fill="none" xmlns="http://www.w3.org/2000/svg">
<path d="M64.4315 35.3717C57.8534 35.2035 38.4565 35.0353 38.4565 35.0353C38.4565 35.0353 54.0162 14.3448 61.775 3.95755C61.775 3.95755 57.5161 0.761473 43.2636 0.0465594C38.8782 -0.163709 22.0113 -0.205766 10.1623 12.6206C-0.0421618 23.6808 2.83261e-06 37.4323 2.83261e-06 43.3619C2.83261e-06 50.0064 0.0421682 61.1506 7.96961 70.024C16.3187 79.402 28.1255 81 37.9083 81C69.4073 81 69.9554 73.8929 69.9554 57.2396C69.9133 40.5022 71.0096 35.5399 64.4315 35.3717ZM37.4867 72.5472C29.3906 72.5472 22.8546 66.0289 22.8546 57.9546C22.8546 49.8802 29.3906 43.3619 37.4867 43.3619C45.5828 43.3619 52.1187 49.8802 52.1187 57.9546C52.1187 66.0289 45.5828 72.5472 37.4867 72.5472Z" fill="black"/>
<path d="M91.791 46.9297C89.9225 46.9297 88.3275 47.5905 87.0059 48.9121C85.6842 50.2337 85.0234 51.8288 85.0234 53.6973V55.9531H98.5586V53.6973C98.5586 51.8288 97.8978 50.2337 96.5762 48.9121C95.2546 47.5905 93.6595 46.9297 91.791 46.9297ZM85.0234 60.4648V64.9766C85.0234 66.207 85.4678 67.2666 86.3564 68.1553C87.2451 69.0439 88.3047 69.4883 89.5352 69.4883H100.814C102.318 69.4883 103.07 70.2402 103.07 71.7441C103.07 73.248 102.318 74 100.814 74H89.5352C87.0059 74 84.8639 73.1341 83.1094 71.4023C81.3776 69.6478 80.5117 67.5059 80.5117 64.9766V53.6973C80.5117 50.5755 81.6055 47.9209 83.793 45.7334C86.0033 43.5231 88.6693 42.418 91.791 42.418C94.9583 42.418 97.6243 43.5117 99.7891 45.6992C101.977 47.8639 103.07 50.5299 103.07 53.6973V60.4648H85.0234ZM112.094 62.7207V53.6973C112.094 50.5755 113.188 47.9209 115.375 45.7334C117.585 43.5231 120.251 42.418 123.373 42.418C126.54 42.418 129.206 43.5117 131.371 45.6992C133.559 47.8639 134.652 50.5299 134.652 53.6973V62.7207C134.652 65.8424 133.547 68.5085 131.337 70.7188C129.149 72.9062 126.495 74 123.373 74C120.251 74 117.585 72.9062 115.375 70.7188C113.188 68.5085 112.094 65.8424 112.094 62.7207ZM130.141 62.7207V53.6973C130.141 51.8288 129.48 50.2337 128.158 48.9121C126.837 47.5905 125.242 46.9297 123.373 46.9297C121.505 46.9297 119.91 47.5905 118.588 48.9121C117.266 50.2337 116.605 51.8288 116.605 53.6973V62.7207C116.605 64.612 117.255 66.2184 118.554 67.54C119.875 68.8389 121.482 69.4883 123.373 69.4883C125.242 69.4883 126.837 68.8275 128.158 67.5059C129.48 66.1842 130.141 64.5892 130.141 62.7207ZM148.188 51.4414V64.9766C148.188 66.207 148.632 67.2666 149.521 68.1553C150.409 69.0439 151.469 69.4883 152.699 69.4883H159.467C160.971 69.4883 161.723 70.2402 161.723 71.7441C161.723 73.248 160.971 74 159.467 74H152.699C150.17 74 148.028 73.1341 146.273 71.4023C144.542 69.6478 143.676 67.5059 143.676 64.9766V51.4414C143.676 48.9121 144.542 46.7816 146.273 45.0498C148.028 43.2952 150.17 42.418 152.699 42.418H159.467C160.971 42.418 161.723 43.1699 161.723 44.6738C161.723 46.1777 160.971 46.9297 159.467 46.9297H152.699C151.446 46.9297 150.375 47.374 149.486 48.2627C148.62 49.1286 148.188 50.1882 148.188 51.4414ZM170.746 62.7207V53.6973C170.746 50.5755 171.84 47.9209 174.027 45.7334C176.238 43.5231 178.904 42.418 182.025 42.418C185.193 42.418 187.859 43.5117 190.023 45.6992C192.211 47.8639 193.305 50.5299 193.305 53.6973V62.7207C193.305 65.8424 192.2 68.5085 189.989 70.7188C187.802 72.9062 185.147 74 182.025 74C178.904 74 176.238 72.9062 174.027 70.7188C171.84 68.5085 170.746 65.8424 170.746 62.7207ZM188.793 62.7207V53.6973C188.793 51.8288 188.132 50.2337 186.811 48.9121C185.489 47.5905 183.894 46.9297 182.025 46.9297C180.157 46.9297 178.562 47.5905 177.24 48.9121C175.919 50.2337 175.258 51.8288 175.258 53.6973V62.7207C175.258 64.612 175.907 66.2184 177.206 67.54C178.528 68.8389 180.134 69.4883 182.025 69.4883C183.894 69.4883 185.489 68.8275 186.811 67.5059C188.132 66.1842 188.793 64.5892 188.793 62.7207ZM202.328 51.4414C202.328 49.8008 202.727 48.2855 203.524 46.8955C205.233 43.9105 207.842 42.418 211.352 42.418H220.375V31.1387C220.375 29.6348 221.127 28.8828 222.631 28.8828C224.135 28.8828 224.887 29.6348 224.887 31.1387V71.7441C224.887 73.248 224.135 74 222.631 74H211.352C208.822 74 206.68 73.1341 204.926 71.4023C203.194 69.6478 202.328 67.5059 202.328 64.9766V51.4414ZM211.352 46.9297C210.098 46.9297 209.027 47.374 208.139 48.2627C207.273 49.1286 206.84 50.1882 206.84 51.4414V64.9766C206.84 66.207 207.284 67.2666 208.173 68.1553C209.062 69.0439 210.121 69.4883 211.352 69.4883H220.375V46.9297H211.352ZM245.189 46.9297C243.321 46.9297 241.726 47.5905 240.404 48.9121C239.083 50.2337 238.422 51.8288 238.422 53.6973V55.9531H251.957V53.6973C251.957 51.8288 251.296 50.2337 249.975 48.9121C248.653 47.5905 247.058 46.9297 245.189 46.9297ZM238.422 60.4648V64.9766C238.422 66.207 238.866 67.2666 239.755 68.1553C240.644 69.0439 241.703 69.4883 242.934 69.4883H254.213C255.717 69.4883 256.469 70.2402 256.469 71.7441C256.469 73.248 255.717 74 254.213 74H242.934C240.404 74 238.262 73.1341 236.508 71.4023C234.776 69.6478 233.91 67.5059 233.91 64.9766V53.6973C233.91 50.5755 235.004 47.9209 237.191 45.7334C239.402 43.5231 242.068 42.418 245.189 42.418C248.357 42.418 251.023 43.5117 253.188 45.6992C255.375 47.8639 256.469 50.5299 256.469 53.6973V60.4648H238.422ZM265.492 44.6738C265.492 43.1699 266.244 42.418 267.748 42.418H281.283C282.787 42.418 283.539 43.1699 283.539 44.6738V49.1855C283.539 50.6895 282.787 51.4414 281.283 51.4414C279.779 51.4414 279.027 50.6895 279.027 49.1855V46.9297H270.004V71.7441C270.004 73.248 269.252 74 267.748 74C266.244 74 265.492 73.248 265.492 71.7441V44.6738Z" fill="black"/>
</svg>
