<svg width="70" height="81" viewBox="0 0 70 81" fill="none" xmlns="http://www.w3.org/2000/svg">
<path d="M64.4315 35.3717C57.8534 35.2035 38.4565 35.0353 38.4565 35.0353C38.4565 35.0353 54.0162 14.3448 61.775 3.95755C61.775 3.95755 57.5161 0.761473 43.2636 0.0465594C38.8782 -0.163709 22.0113 -0.205766 10.1623 12.6206C-0.0421618 23.6808 2.83261e-06 37.4323 2.83261e-06 43.3619C2.83261e-06 50.0064 0.0421682 61.1506 7.96961 70.024C16.3187 79.402 28.1255 81 37.9083 81C69.4073 81 69.9554 73.8929 69.9554 57.2396C69.9133 40.5022 71.0096 35.5399 64.4315 35.3717ZM37.4867 72.5472C29.3906 72.5472 22.8546 66.0289 22.8546 57.9546C22.8546 49.8802 29.3906 43.3619 37.4867 43.3619C45.5828 43.3619 52.1187 49.8802 52.1187 57.9546C52.1187 66.0289 45.5828 72.5472 37.4867 72.5472Z" fill="black"/>
</svg>
