<svg width="601" height="97" viewBox="0 0 601 97" fill="none" xmlns="http://www.w3.org/2000/svg">
<path d="M119.877 25.4883C119.877 28.1315 119.297 30.5273 118.138 32.6758C116.992 34.8242 115.462 36.4909 113.548 37.6758C112.22 38.4961 110.736 39.0885 109.095 39.4531C107.468 39.8177 105.319 40 102.65 40H95.3062V10.918H102.572C105.41 10.918 107.663 11.1263 109.33 11.543C111.009 11.9466 112.429 12.5065 113.587 13.2227C115.567 14.4596 117.11 16.1068 118.216 18.1641C119.323 20.2214 119.877 22.6628 119.877 25.4883ZM115.834 25.4297C115.834 23.151 115.436 21.2305 114.642 19.668C113.848 18.1055 112.663 16.875 111.087 15.9766C109.942 15.3255 108.724 14.8763 107.435 14.6289C106.146 14.3685 104.603 14.2383 102.806 14.2383H99.1734V36.6797H102.806C104.668 36.6797 106.289 36.543 107.67 36.2695C109.063 35.9961 110.339 35.4883 111.498 34.7461C112.943 33.8216 114.024 32.6042 114.74 31.0938C115.469 29.5833 115.834 27.6953 115.834 25.4297ZM130.179 14.5312H126.038V10.7227H130.179V14.5312ZM129.945 40H126.273V18.1836H129.945V40ZM153.196 33.7109C153.196 35.7031 152.369 37.3372 150.716 38.6133C149.075 39.8893 146.829 40.5273 143.977 40.5273C142.363 40.5273 140.878 40.3385 139.524 39.9609C138.183 39.5703 137.057 39.1471 136.145 38.6914V34.5703H136.341C137.499 35.4427 138.789 36.1393 140.208 36.6602C141.627 37.168 142.988 37.4219 144.29 37.4219C145.904 37.4219 147.167 37.1615 148.079 36.6406C148.99 36.1198 149.446 35.2995 149.446 34.1797C149.446 33.3203 149.199 32.6693 148.704 32.2266C148.209 31.7839 147.259 31.4062 145.852 31.0938C145.332 30.9766 144.648 30.8398 143.802 30.6836C142.968 30.5273 142.207 30.3581 141.516 30.1758C139.602 29.668 138.242 28.9258 137.434 27.9492C136.64 26.9596 136.243 25.7487 136.243 24.3164C136.243 23.418 136.425 22.5716 136.79 21.7773C137.167 20.9831 137.734 20.2734 138.489 19.6484C139.218 19.0365 140.143 18.5547 141.262 18.2031C142.395 17.8385 143.658 17.6562 145.052 17.6562C146.354 17.6562 147.669 17.819 148.997 18.1445C150.338 18.457 151.451 18.8411 152.337 19.2969V23.2227H152.141C151.204 22.5326 150.065 21.9531 148.723 21.4844C147.382 21.0026 146.067 20.7617 144.778 20.7617C143.437 20.7617 142.304 21.0221 141.38 21.543C140.455 22.0508 139.993 22.8125 139.993 23.8281C139.993 24.7266 140.273 25.4036 140.833 25.8594C141.38 26.3151 142.265 26.6862 143.489 26.9727C144.166 27.1289 144.921 27.2852 145.755 27.4414C146.601 27.5977 147.304 27.7409 147.864 27.8711C149.57 28.2617 150.885 28.9323 151.809 29.8828C152.734 30.8464 153.196 32.1224 153.196 33.7109ZM177.131 29.4727H161.057C161.057 30.8138 161.259 31.9857 161.662 32.9883C162.066 33.9779 162.62 34.7917 163.323 35.4297C164 36.0547 164.801 36.5234 165.725 36.8359C166.662 37.1484 167.691 37.3047 168.811 37.3047C170.295 37.3047 171.786 37.0117 173.284 36.4258C174.794 35.8268 175.868 35.2409 176.506 34.668H176.702V38.6719C175.465 39.1927 174.202 39.6289 172.912 39.9805C171.623 40.332 170.269 40.5078 168.85 40.5078C165.23 40.5078 162.405 39.5312 160.373 37.5781C158.342 35.612 157.327 32.8255 157.327 29.2188C157.327 25.651 158.297 22.819 160.237 20.7227C162.19 18.6263 164.755 17.5781 167.932 17.5781C170.875 17.5781 173.14 18.4375 174.729 20.1562C176.33 21.875 177.131 24.3164 177.131 27.4805V29.4727ZM173.557 26.6602C173.544 24.7331 173.056 23.2422 172.092 22.1875C171.142 21.1328 169.69 20.6055 167.737 20.6055C165.771 20.6055 164.202 21.1849 163.03 22.3438C161.871 23.5026 161.213 24.9414 161.057 26.6602H173.557ZM201.34 40H197.668V27.5781C197.668 26.5755 197.609 25.638 197.492 24.7656C197.375 23.8802 197.16 23.1901 196.848 22.6953C196.522 22.1484 196.053 21.7448 195.441 21.4844C194.829 21.2109 194.035 21.0742 193.059 21.0742C192.056 21.0742 191.008 21.3216 189.914 21.8164C188.82 22.3112 187.772 22.9427 186.77 23.7109V40H183.098V18.1836H186.77V20.6055C187.915 19.6549 189.1 18.9128 190.324 18.3789C191.548 17.8451 192.805 17.5781 194.094 17.5781C196.451 17.5781 198.247 18.2878 199.484 19.707C200.721 21.1263 201.34 23.1706 201.34 25.8398V40ZM200.48 8.37891C200.337 10.3581 199.836 11.849 198.977 12.8516C198.117 13.8542 196.965 14.3555 195.52 14.3555C194.816 14.3555 194.165 14.2318 193.566 13.9844C192.967 13.724 192.401 13.3529 191.867 12.8711C191.255 12.3112 190.734 11.8945 190.305 11.6211C189.888 11.3346 189.426 11.1914 188.918 11.1914C188.241 11.1914 187.733 11.4844 187.395 12.0703C187.056 12.6562 186.861 13.444 186.809 14.4336H184.25C184.354 12.4674 184.868 10.9831 185.793 9.98047C186.717 8.97786 187.85 8.47656 189.191 8.47656C189.842 8.47656 190.467 8.60677 191.066 8.86719C191.678 9.11458 192.258 9.47266 192.805 9.94141C193.417 10.4753 193.957 10.8789 194.426 11.1523C194.908 11.4128 195.363 11.543 195.793 11.543C196.457 11.543 196.971 11.2435 197.336 10.6445C197.714 10.0456 197.922 9.29036 197.961 8.37891H200.48ZM225.763 40H222.111V37.6758C221.785 37.8971 221.343 38.2096 220.783 38.6133C220.236 39.0039 219.702 39.3164 219.181 39.5508C218.569 39.8503 217.866 40.0977 217.072 40.293C216.278 40.5013 215.347 40.6055 214.279 40.6055C212.313 40.6055 210.646 39.9544 209.279 38.6523C207.912 37.3503 207.228 35.6901 207.228 33.6719C207.228 32.0182 207.58 30.6836 208.283 29.668C208.999 28.6393 210.015 27.832 211.33 27.2461C212.658 26.6602 214.253 26.263 216.115 26.0547C217.977 25.8464 219.976 25.6901 222.111 25.5859V25.0195C222.111 24.1862 221.961 23.4961 221.662 22.9492C221.375 22.4023 220.959 21.9727 220.412 21.6602C219.891 21.3607 219.266 21.1589 218.537 21.0547C217.808 20.9505 217.046 20.8984 216.252 20.8984C215.288 20.8984 214.214 21.0286 213.029 21.2891C211.844 21.5365 210.62 21.901 209.357 22.3828H209.162V18.6523C209.878 18.457 210.913 18.2422 212.267 18.0078C213.621 17.7734 214.956 17.6562 216.271 17.6562C217.808 17.6562 219.142 17.7865 220.275 18.0469C221.421 18.2943 222.41 18.724 223.244 19.3359C224.064 19.9349 224.689 20.7096 225.119 21.6602C225.548 22.6107 225.763 23.7891 225.763 25.1953V40ZM222.111 34.6289V28.5547C220.991 28.6198 219.67 28.7174 218.146 28.8477C216.636 28.9779 215.438 29.1667 214.552 29.4141C213.498 29.7135 212.645 30.1823 211.994 30.8203C211.343 31.4453 211.017 32.3112 211.017 33.418C211.017 34.668 211.395 35.612 212.15 36.25C212.905 36.875 214.058 37.1875 215.607 37.1875C216.896 37.1875 218.074 36.9401 219.142 36.4453C220.21 35.9375 221.199 35.332 222.111 34.6289ZM250.929 40H247.257V37.7148C246.202 38.6263 245.102 39.3359 243.956 39.8438C242.81 40.3516 241.567 40.6055 240.226 40.6055C237.622 40.6055 235.551 39.6029 234.015 37.5977C232.491 35.5924 231.73 32.8125 231.73 29.2578C231.73 27.4089 231.99 25.7617 232.511 24.3164C233.045 22.8711 233.761 21.6406 234.659 20.625C235.545 19.6354 236.573 18.8802 237.745 18.3594C238.93 17.8385 240.154 17.5781 241.417 17.5781C242.563 17.5781 243.579 17.7018 244.464 17.9492C245.349 18.1836 246.28 18.5547 247.257 19.0625V9.60938H250.929V40ZM247.257 34.6289V22.1094C246.267 21.6667 245.382 21.3607 244.601 21.1914C243.82 21.0221 242.967 20.9375 242.042 20.9375C239.985 20.9375 238.383 21.6536 237.237 23.0859C236.092 24.5182 235.519 26.5495 235.519 29.1797C235.519 31.7708 235.961 33.7435 236.847 35.0977C237.732 36.4388 239.152 37.1094 241.105 37.1094C242.146 37.1094 243.201 36.8815 244.269 36.4258C245.336 35.957 246.333 35.3581 247.257 34.6289ZM277.149 29.1016C277.149 32.6562 276.238 35.4622 274.415 37.5195C272.592 39.5768 270.151 40.6055 267.091 40.6055C264.005 40.6055 261.55 39.5768 259.727 37.5195C257.917 35.4622 257.012 32.6562 257.012 29.1016C257.012 25.5469 257.917 22.7409 259.727 20.6836C261.55 18.6133 264.005 17.5781 267.091 17.5781C270.151 17.5781 272.592 18.6133 274.415 20.6836C276.238 22.7409 277.149 25.5469 277.149 29.1016ZM273.36 29.1016C273.36 26.276 272.807 24.1797 271.7 22.8125C270.593 21.4323 269.057 20.7422 267.091 20.7422C265.098 20.7422 263.549 21.4323 262.442 22.8125C261.348 24.1797 260.802 26.276 260.802 29.1016C260.802 31.8359 261.355 33.9128 262.462 35.332C263.568 36.7383 265.111 37.4414 267.091 37.4414C269.044 37.4414 270.574 36.7448 271.68 35.3516C272.8 33.9453 273.36 31.862 273.36 29.1016ZM316.582 18.1836L303.848 48.0469H299.922L303.984 38.9453L295.293 18.1836H299.277L305.977 34.3555L312.734 18.1836H316.582ZM361.112 25.4883C361.112 28.1315 360.533 30.5273 359.374 32.6758C358.228 34.8242 356.698 36.4909 354.784 37.6758C353.456 38.4961 351.972 39.0885 350.331 39.4531C348.704 39.8177 346.555 40 343.886 40H336.542V10.918H343.808C346.646 10.918 348.899 11.1263 350.566 11.543C352.245 11.9466 353.665 12.5065 354.823 13.2227C356.803 14.4596 358.346 16.1068 359.452 18.1641C360.559 20.2214 361.112 22.6628 361.112 25.4883ZM357.07 25.4297C357.07 23.151 356.672 21.2305 355.878 19.668C355.084 18.1055 353.899 16.875 352.323 15.9766C351.178 15.3255 349.96 14.8763 348.671 14.6289C347.382 14.3685 345.839 14.2383 344.042 14.2383H340.409V36.6797H344.042C345.904 36.6797 347.525 36.543 348.905 36.2695C350.299 35.9961 351.575 35.4883 352.734 34.7461C354.179 33.8216 355.26 32.6042 355.976 31.0938C356.705 29.5833 357.07 27.6953 357.07 25.4297ZM385.731 29.4727H369.657C369.657 30.8138 369.859 31.9857 370.262 32.9883C370.666 33.9779 371.22 34.7917 371.923 35.4297C372.6 36.0547 373.401 36.5234 374.325 36.8359C375.262 37.1484 376.291 37.3047 377.411 37.3047C378.895 37.3047 380.386 37.0117 381.884 36.4258C383.394 35.8268 384.468 35.2409 385.106 34.668H385.302V38.6719C384.065 39.1927 382.802 39.6289 381.512 39.9805C380.223 40.332 378.869 40.5078 377.45 40.5078C373.83 40.5078 371.005 39.5312 368.973 37.5781C366.942 35.612 365.927 32.8255 365.927 29.2188C365.927 25.651 366.897 22.819 368.837 20.7227C370.79 18.6263 373.355 17.5781 376.532 17.5781C379.475 17.5781 381.74 18.4375 383.329 20.1562C384.93 21.875 385.731 24.3164 385.731 27.4805V29.4727ZM382.157 26.6602C382.144 24.7331 381.656 23.2422 380.692 22.1875C379.742 21.1328 378.29 20.6055 376.337 20.6055C374.371 20.6055 372.802 21.1849 371.63 22.3438C370.471 23.5026 369.813 24.9414 369.657 26.6602H382.157ZM407.284 33.7109C407.284 35.7031 406.457 37.3372 404.803 38.6133C403.163 39.8893 400.916 40.5273 398.065 40.5273C396.45 40.5273 394.966 40.3385 393.612 39.9609C392.271 39.5703 391.144 39.1471 390.233 38.6914V34.5703H390.428C391.587 35.4427 392.876 36.1393 394.295 36.6602C395.715 37.168 397.075 37.4219 398.377 37.4219C399.992 37.4219 401.255 37.1615 402.166 36.6406C403.078 36.1198 403.534 35.2995 403.534 34.1797C403.534 33.3203 403.286 32.6693 402.791 32.2266C402.297 31.7839 401.346 31.4062 399.94 31.0938C399.419 30.9766 398.735 30.8398 397.889 30.6836C397.056 30.5273 396.294 30.3581 395.604 30.1758C393.69 29.668 392.329 28.9258 391.522 27.9492C390.728 26.9596 390.33 25.7487 390.33 24.3164C390.33 23.418 390.513 22.5716 390.877 21.7773C391.255 20.9831 391.821 20.2734 392.577 19.6484C393.306 19.0365 394.23 18.5547 395.35 18.2031C396.483 17.8385 397.746 17.6562 399.139 17.6562C400.441 17.6562 401.756 17.819 403.084 18.1445C404.426 18.457 405.539 18.8411 406.424 19.2969V23.2227H406.229C405.291 22.5326 404.152 21.9531 402.811 21.4844C401.47 21.0026 400.155 20.7617 398.866 20.7617C397.524 20.7617 396.392 21.0221 395.467 21.543C394.543 22.0508 394.08 22.8125 394.08 23.8281C394.08 24.7266 394.36 25.4036 394.92 25.8594C395.467 26.3151 396.353 26.6862 397.577 26.9727C398.254 27.1289 399.009 27.2852 399.842 27.4414C400.689 27.5977 401.392 27.7409 401.952 27.8711C403.657 28.2617 404.972 28.9323 405.897 29.8828C406.821 30.8464 407.284 32.1224 407.284 33.7109ZM429.91 40H426.258V37.6758C425.932 37.8971 425.49 38.2096 424.93 38.6133C424.383 39.0039 423.849 39.3164 423.328 39.5508C422.716 39.8503 422.013 40.0977 421.219 40.293C420.424 40.5013 419.493 40.6055 418.426 40.6055C416.46 40.6055 414.793 39.9544 413.426 38.6523C412.059 37.3503 411.375 35.6901 411.375 33.6719C411.375 32.0182 411.727 30.6836 412.43 29.668C413.146 28.6393 414.161 27.832 415.477 27.2461C416.805 26.6602 418.4 26.263 420.262 26.0547C422.124 25.8464 424.122 25.6901 426.258 25.5859V25.0195C426.258 24.1862 426.108 23.4961 425.809 22.9492C425.522 22.4023 425.105 21.9727 424.559 21.6602C424.038 21.3607 423.413 21.1589 422.684 21.0547C421.954 20.9505 421.193 20.8984 420.398 20.8984C419.435 20.8984 418.361 21.0286 417.176 21.2891C415.991 21.5365 414.767 21.901 413.504 22.3828H413.309V18.6523C414.025 18.457 415.06 18.2422 416.414 18.0078C417.768 17.7734 419.103 17.6562 420.418 17.6562C421.954 17.6562 423.289 17.7865 424.422 18.0469C425.568 18.2943 426.557 18.724 427.391 19.3359C428.211 19.9349 428.836 20.7096 429.266 21.6602C429.695 22.6107 429.91 23.7891 429.91 25.1953V40ZM426.258 34.6289V28.5547C425.138 28.6198 423.816 28.7174 422.293 28.8477C420.783 28.9779 419.585 29.1667 418.699 29.4141C417.645 29.7135 416.792 30.1823 416.141 30.8203C415.49 31.4453 415.164 32.3112 415.164 33.418C415.164 34.668 415.542 35.612 416.297 36.25C417.052 36.875 418.204 37.1875 419.754 37.1875C421.043 37.1875 422.221 36.9401 423.289 36.4453C424.357 35.9375 425.346 35.332 426.258 34.6289ZM450.994 22.1875H450.798C450.252 22.0573 449.718 21.9661 449.197 21.9141C448.689 21.849 448.084 21.8164 447.38 21.8164C446.248 21.8164 445.154 22.0703 444.099 22.5781C443.045 23.0729 442.029 23.7174 441.052 24.5117V40H437.38V18.1836H441.052V21.4062C442.511 20.2344 443.793 19.4076 444.9 18.9258C446.02 18.431 447.159 18.1836 448.318 18.1836C448.956 18.1836 449.418 18.2031 449.705 18.2422C449.991 18.2682 450.421 18.3268 450.994 18.418V22.1875ZM468.464 22.1875H468.269C467.722 22.0573 467.188 21.9661 466.667 21.9141C466.159 21.849 465.554 21.8164 464.851 21.8164C463.718 21.8164 462.624 22.0703 461.57 22.5781C460.515 23.0729 459.499 23.7174 458.523 24.5117V40H454.851V18.1836H458.523V21.4062C459.981 20.2344 461.264 19.4076 462.37 18.9258C463.49 18.431 464.629 18.1836 465.788 18.1836C466.426 18.1836 466.889 18.2031 467.175 18.2422C467.461 18.2682 467.891 18.3268 468.464 18.418V22.1875ZM490.915 29.1016C490.915 32.6562 490.003 35.4622 488.18 37.5195C486.358 39.5768 483.916 40.6055 480.856 40.6055C477.77 40.6055 475.316 39.5768 473.493 37.5195C471.683 35.4622 470.778 32.6562 470.778 29.1016C470.778 25.5469 471.683 22.7409 473.493 20.6836C475.316 18.6133 477.77 17.5781 480.856 17.5781C483.916 17.5781 486.358 18.6133 488.18 20.6836C490.003 22.7409 490.915 25.5469 490.915 29.1016ZM487.126 29.1016C487.126 26.276 486.572 24.1797 485.466 22.8125C484.359 21.4323 482.822 20.7422 480.856 20.7422C478.864 20.7422 477.315 21.4323 476.208 22.8125C475.114 24.1797 474.567 26.276 474.567 29.1016C474.567 31.8359 475.121 33.9128 476.227 35.332C477.334 36.7383 478.877 37.4414 480.856 37.4414C482.809 37.4414 484.339 36.7448 485.446 35.3516C486.566 33.9453 487.126 31.862 487.126 29.1016ZM500.729 40H497.057V9.60938H500.729V40ZM512.105 40H508.434V9.60938H512.105V40ZM536.724 40H533.072V37.6758C532.746 37.8971 532.304 38.2096 531.744 38.6133C531.197 39.0039 530.663 39.3164 530.142 39.5508C529.53 39.8503 528.827 40.0977 528.033 40.293C527.239 40.5013 526.308 40.6055 525.24 40.6055C523.274 40.6055 521.607 39.9544 520.24 38.6523C518.873 37.3503 518.189 35.6901 518.189 33.6719C518.189 32.0182 518.541 30.6836 519.244 29.668C519.96 28.6393 520.976 27.832 522.291 27.2461C523.619 26.6602 525.214 26.263 527.076 26.0547C528.938 25.8464 530.936 25.6901 533.072 25.5859V25.0195C533.072 24.1862 532.922 23.4961 532.623 22.9492C532.336 22.4023 531.92 21.9727 531.373 21.6602C530.852 21.3607 530.227 21.1589 529.498 21.0547C528.768 20.9505 528.007 20.8984 527.212 20.8984C526.249 20.8984 525.175 21.0286 523.99 21.2891C522.805 21.5365 521.581 21.901 520.318 22.3828H520.123V18.6523C520.839 18.457 521.874 18.2422 523.228 18.0078C524.582 17.7734 525.917 17.6562 527.232 17.6562C528.768 17.6562 530.103 17.7865 531.236 18.0469C532.382 18.2943 533.371 18.724 534.205 19.3359C535.025 19.9349 535.65 20.7096 536.08 21.6602C536.509 22.6107 536.724 23.7891 536.724 25.1953V40ZM533.072 34.6289V28.5547C531.952 28.6198 530.63 28.7174 529.107 28.8477C527.597 28.9779 526.399 29.1667 525.513 29.4141C524.459 29.7135 523.606 30.1823 522.955 30.8203C522.304 31.4453 521.978 32.3112 521.978 33.418C521.978 34.668 522.356 35.612 523.111 36.25C523.866 36.875 525.018 37.1875 526.568 37.1875C527.857 37.1875 529.035 36.9401 530.103 36.4453C531.171 35.9375 532.16 35.332 533.072 34.6289ZM561.89 40H558.218V37.7148C557.163 38.6263 556.063 39.3359 554.917 39.8438C553.771 40.3516 552.528 40.6055 551.187 40.6055C548.583 40.6055 546.512 39.6029 544.976 37.5977C543.452 35.5924 542.691 32.8125 542.691 29.2578C542.691 27.4089 542.951 25.7617 543.472 24.3164C544.006 22.8711 544.722 21.6406 545.62 20.625C546.506 19.6354 547.534 18.8802 548.706 18.3594C549.891 17.8385 551.115 17.5781 552.378 17.5781C553.524 17.5781 554.54 17.7018 555.425 17.9492C556.31 18.1836 557.241 18.5547 558.218 19.0625V9.60938H561.89V40ZM558.218 34.6289V22.1094C557.228 21.6667 556.343 21.3607 555.562 21.1914C554.78 21.0221 553.928 20.9375 553.003 20.9375C550.946 20.9375 549.344 21.6536 548.198 23.0859C547.053 24.5182 546.48 26.5495 546.48 29.1797C546.48 31.7708 546.922 33.7435 547.808 35.0977C548.693 36.4388 550.112 37.1094 552.066 37.1094C553.107 37.1094 554.162 36.8815 555.23 36.4258C556.297 35.957 557.293 35.3581 558.218 34.6289ZM588.11 29.1016C588.11 32.6562 587.199 35.4622 585.376 37.5195C583.553 39.5768 581.111 40.6055 578.052 40.6055C574.966 40.6055 572.511 39.5768 570.688 37.5195C568.878 35.4622 567.973 32.6562 567.973 29.1016C567.973 25.5469 568.878 22.7409 570.688 20.6836C572.511 18.6133 574.966 17.5781 578.052 17.5781C581.111 17.5781 583.553 18.6133 585.376 20.6836C587.199 22.7409 588.11 25.5469 588.11 29.1016ZM584.321 29.1016C584.321 26.276 583.768 24.1797 582.661 22.8125C581.554 21.4323 580.018 20.7422 578.052 20.7422C576.059 20.7422 574.51 21.4323 573.403 22.8125C572.309 24.1797 571.762 26.276 571.762 29.1016C571.762 31.8359 572.316 33.9128 573.423 35.332C574.529 36.7383 576.072 37.4414 578.052 37.4414C580.005 37.4414 581.535 36.7448 582.641 35.3516C583.761 33.9453 584.321 31.862 584.321 29.1016ZM226.378 76.8281C226.378 78.599 226.124 80.2201 225.616 81.6914C225.109 83.1497 224.392 84.3867 223.468 85.4023C222.609 86.3659 221.593 87.1146 220.421 87.6484C219.262 88.1693 218.032 88.4297 216.73 88.4297C215.597 88.4297 214.568 88.306 213.644 88.0586C212.732 87.8112 211.801 87.4271 210.851 86.9062V96.0469H207.179V66.1836H210.851V68.4688C211.827 67.6484 212.921 66.9648 214.132 66.418C215.356 65.8581 216.658 65.5781 218.038 65.5781C220.668 65.5781 222.713 66.5742 224.171 68.5664C225.642 70.5456 226.378 73.2995 226.378 76.8281ZM222.589 76.9258C222.589 74.2956 222.14 72.3294 221.241 71.0273C220.343 69.7253 218.963 69.0742 217.101 69.0742C216.046 69.0742 214.985 69.3021 213.917 69.7578C212.849 70.2135 211.827 70.8125 210.851 71.5547V83.918C211.892 84.3867 212.784 84.7057 213.527 84.875C214.282 85.0443 215.135 85.1289 216.085 85.1289C218.129 85.1289 219.724 84.4388 220.87 83.0586C222.016 81.6784 222.589 79.6341 222.589 76.9258ZM251.095 77.1016C251.095 80.6562 250.183 83.4622 248.36 85.5195C246.537 87.5768 244.096 88.6055 241.036 88.6055C237.95 88.6055 235.496 87.5768 233.673 85.5195C231.863 83.4622 230.958 80.6562 230.958 77.1016C230.958 73.5469 231.863 70.7409 233.673 68.6836C235.496 66.6133 237.95 65.5781 241.036 65.5781C244.096 65.5781 246.537 66.6133 248.36 68.6836C250.183 70.7409 251.095 73.5469 251.095 77.1016ZM247.305 77.1016C247.305 74.276 246.752 72.1797 245.645 70.8125C244.539 69.4323 243.002 68.7422 241.036 68.7422C239.044 68.7422 237.494 69.4323 236.387 70.8125C235.294 72.1797 234.747 74.276 234.747 77.1016C234.747 79.8359 235.3 81.9128 236.407 83.332C237.514 84.7383 239.057 85.4414 241.036 85.4414C242.989 85.4414 244.519 84.7448 245.626 83.3516C246.746 81.9453 247.305 79.862 247.305 77.1016ZM270.811 70.1875H270.616C270.069 70.0573 269.535 69.9661 269.014 69.9141C268.506 69.849 267.901 69.8164 267.198 69.8164C266.065 69.8164 264.971 70.0703 263.916 70.5781C262.862 71.0729 261.846 71.7174 260.87 72.5117V88H257.198V66.1836H260.87V69.4062C262.328 68.2344 263.61 67.4076 264.717 66.9258C265.837 66.431 266.976 66.1836 268.135 66.1836C268.773 66.1836 269.235 66.2031 269.522 66.2422C269.808 66.2682 270.238 66.3268 270.811 66.418V70.1875ZM313.681 85.8516C312.093 86.5807 310.354 87.2188 308.466 87.7656C306.591 88.2995 304.775 88.5664 303.017 88.5664C300.752 88.5664 298.675 88.2539 296.787 87.6289C294.899 87.0039 293.291 86.0664 291.962 84.8164C290.621 83.5534 289.586 81.9779 288.857 80.0898C288.128 78.1888 287.763 75.9688 287.763 73.4297C287.763 68.7812 289.117 65.1159 291.826 62.4336C294.547 59.7383 298.278 58.3906 303.017 58.3906C304.671 58.3906 306.357 58.5924 308.076 58.9961C309.808 59.3867 311.67 60.0573 313.662 61.0078V65.5977H313.31C312.907 65.2852 312.321 64.875 311.552 64.3672C310.784 63.8594 310.029 63.4362 309.287 63.0977C308.388 62.694 307.366 62.362 306.22 62.1016C305.087 61.8281 303.798 61.6914 302.353 61.6914C299.098 61.6914 296.52 62.7396 294.619 64.8359C292.731 66.9193 291.787 69.7448 291.787 73.3125C291.787 77.0755 292.776 80.0052 294.755 82.1016C296.735 84.1849 299.43 85.2266 302.841 85.2266C304.091 85.2266 305.335 85.1029 306.572 84.8555C307.822 84.6081 308.916 84.2891 309.853 83.8984V76.7695H302.06V73.3711H313.681V85.8516ZM338.808 77.4727H322.734C322.734 78.8138 322.935 79.9857 323.339 80.9883C323.743 81.9779 324.296 82.7917 324.999 83.4297C325.676 84.0547 326.477 84.5234 327.402 84.8359C328.339 85.1484 329.368 85.3047 330.488 85.3047C331.972 85.3047 333.463 85.0117 334.96 84.4258C336.471 83.8268 337.545 83.2409 338.183 82.668H338.378V86.6719C337.141 87.1927 335.878 87.6289 334.589 87.9805C333.3 88.332 331.946 88.5078 330.527 88.5078C326.907 88.5078 324.081 87.5312 322.05 85.5781C320.019 83.612 319.003 80.8255 319.003 77.2188C319.003 73.651 319.973 70.819 321.913 68.7227C323.866 66.6263 326.432 65.5781 329.609 65.5781C332.551 65.5781 334.817 66.4375 336.405 68.1562C338.007 69.875 338.808 72.3164 338.808 75.4805V77.4727ZM335.234 74.6602C335.221 72.7331 334.732 71.2422 333.769 70.1875C332.818 69.1328 331.366 68.6055 329.413 68.6055C327.447 68.6055 325.878 69.1849 324.706 70.3438C323.547 71.5026 322.89 72.9414 322.734 74.6602H335.234ZM363.368 77.1016C363.368 80.6562 362.457 83.4622 360.634 85.5195C358.811 87.5768 356.369 88.6055 353.309 88.6055C350.223 88.6055 347.769 87.5768 345.946 85.5195C344.136 83.4622 343.231 80.6562 343.231 77.1016C343.231 73.5469 344.136 70.7409 345.946 68.6836C347.769 66.6133 350.223 65.5781 353.309 65.5781C356.369 65.5781 358.811 66.6133 360.634 68.6836C362.457 70.7409 363.368 73.5469 363.368 77.1016ZM359.579 77.1016C359.579 74.276 359.026 72.1797 357.919 70.8125C356.812 69.4323 355.276 68.7422 353.309 68.7422C351.317 68.7422 349.768 69.4323 348.661 70.8125C347.567 72.1797 347.02 74.276 347.02 77.1016C347.02 79.8359 347.574 81.9128 348.68 83.332C349.787 84.7383 351.33 85.4414 353.309 85.4414C355.263 85.4414 356.792 84.7448 357.899 83.3516C359.019 81.9453 359.579 79.862 359.579 77.1016ZM385.604 86.6328C384.38 87.2188 383.215 87.6745 382.108 88C381.014 88.3255 379.849 88.4883 378.612 88.4883C377.036 88.4883 375.591 88.2604 374.276 87.8047C372.961 87.3359 371.834 86.6328 370.897 85.6953C369.946 84.7578 369.211 83.5729 368.69 82.1406C368.169 80.7083 367.909 79.0352 367.909 77.1211C367.909 73.5534 368.885 70.7539 370.838 68.7227C372.804 66.6914 375.396 65.6758 378.612 65.6758C379.862 65.6758 381.086 65.8516 382.284 66.2031C383.495 66.5547 384.601 66.9844 385.604 67.4922V71.5742H385.409C384.289 70.7018 383.13 70.0312 381.932 69.5625C380.747 69.0938 379.588 68.8594 378.455 68.8594C376.372 68.8594 374.725 69.5625 373.514 70.9688C372.316 72.362 371.717 74.4128 371.717 77.1211C371.717 79.7513 372.303 81.776 373.475 83.1953C374.66 84.6016 376.32 85.3047 378.455 85.3047C379.198 85.3047 379.953 85.207 380.721 85.0117C381.489 84.8164 382.179 84.5625 382.791 84.25C383.325 83.9766 383.827 83.6901 384.295 83.3906C384.764 83.0781 385.135 82.8112 385.409 82.5898H385.604V86.6328ZM409.324 77.1016C409.324 80.6562 408.413 83.4622 406.59 85.5195C404.767 87.5768 402.326 88.6055 399.266 88.6055C396.18 88.6055 393.725 87.5768 391.902 85.5195C390.092 83.4622 389.188 80.6562 389.188 77.1016C389.188 73.5469 390.092 70.7409 391.902 68.6836C393.725 66.6133 396.18 65.5781 399.266 65.5781C402.326 65.5781 404.767 66.6133 406.59 68.6836C408.413 70.7409 409.324 73.5469 409.324 77.1016ZM405.535 77.1016C405.535 74.276 404.982 72.1797 403.875 70.8125C402.768 69.4323 401.232 68.7422 399.266 68.7422C397.273 68.7422 395.724 69.4323 394.617 70.8125C393.523 72.1797 392.977 74.276 392.977 77.1016C392.977 79.8359 393.53 81.9128 394.637 83.332C395.743 84.7383 397.286 85.4414 399.266 85.4414C401.219 85.4414 402.749 84.7448 403.855 83.3516C404.975 81.9453 405.535 79.862 405.535 77.1016ZM433.123 88H429.451V85.7148C428.396 86.6263 427.296 87.3359 426.15 87.8438C425.004 88.3516 423.761 88.6055 422.42 88.6055C419.815 88.6055 417.745 87.6029 416.209 85.5977C414.685 83.5924 413.923 80.8125 413.923 77.2578C413.923 75.4089 414.184 73.7617 414.705 72.3164C415.239 70.8711 415.955 69.6406 416.853 68.625C417.739 67.6354 418.767 66.8802 419.939 66.3594C421.124 65.8385 422.348 65.5781 423.611 65.5781C424.757 65.5781 425.772 65.7018 426.658 65.9492C427.543 66.1836 428.474 66.5547 429.451 67.0625V57.6094H433.123V88ZM429.451 82.6289V70.1094C428.461 69.6667 427.576 69.3607 426.795 69.1914C426.013 69.0221 425.16 68.9375 424.236 68.9375C422.179 68.9375 420.577 69.6536 419.431 71.0859C418.285 72.5182 417.713 74.5495 417.713 77.1797C417.713 79.7708 418.155 81.7435 419.041 83.0977C419.926 84.4388 421.345 85.1094 423.298 85.1094C424.34 85.1094 425.395 84.8815 426.463 84.4258C427.53 83.957 428.526 83.3581 429.451 82.6289ZM459.011 77.4727H442.937C442.937 78.8138 443.139 79.9857 443.542 80.9883C443.946 81.9779 444.499 82.7917 445.202 83.4297C445.879 84.0547 446.68 84.5234 447.605 84.8359C448.542 85.1484 449.571 85.3047 450.691 85.3047C452.175 85.3047 453.666 85.0117 455.163 84.4258C456.674 83.8268 457.748 83.2409 458.386 82.668H458.581V86.6719C457.344 87.1927 456.081 87.6289 454.792 87.9805C453.503 88.332 452.149 88.5078 450.73 88.5078C447.11 88.5078 444.284 87.5312 442.253 85.5781C440.222 83.612 439.206 80.8255 439.206 77.2188C439.206 73.651 440.176 70.819 442.116 68.7227C444.07 66.6263 446.635 65.5781 449.812 65.5781C452.754 65.5781 455.02 66.4375 456.609 68.1562C458.21 69.875 459.011 72.3164 459.011 75.4805V77.4727ZM455.437 74.6602C455.424 72.7331 454.935 71.2422 453.972 70.1875C453.021 69.1328 451.57 68.6055 449.616 68.6055C447.65 68.6055 446.081 69.1849 444.909 70.3438C443.751 71.5026 443.093 72.9414 442.937 74.6602H455.437ZM478.591 70.1875H478.395C477.848 70.0573 477.315 69.9661 476.794 69.9141C476.286 69.849 475.68 69.8164 474.977 69.8164C473.845 69.8164 472.751 70.0703 471.696 70.5781C470.641 71.0729 469.626 71.7174 468.649 72.5117V88H464.977V66.1836H468.649V69.4062C470.108 68.2344 471.39 67.4076 472.497 66.9258C473.617 66.431 474.756 66.1836 475.915 66.1836C476.553 66.1836 477.015 66.2031 477.302 66.2422C477.588 66.2682 478.018 66.3268 478.591 66.418V70.1875Z" fill="white"/>
<path d="M64.4315 42.3717C57.8534 42.2035 38.4565 42.0353 38.4565 42.0353C38.4565 42.0353 54.0162 21.3448 61.775 10.9576C61.775 10.9576 57.5161 7.76147 43.2636 7.04656C38.8782 6.83629 22.0113 6.79423 10.1623 19.6206C-0.0421618 30.6808 2.83261e-06 44.4323 2.83261e-06 50.3619C2.83261e-06 57.0064 0.0421682 68.1506 7.96961 77.024C16.3187 86.402 28.1255 88 37.9083 88C69.4073 88 69.9554 80.8929 69.9554 64.2396C69.9133 47.5022 71.0096 42.5399 64.4315 42.3717ZM37.4867 79.5472C29.3906 79.5472 22.8546 73.0289 22.8546 64.9546C22.8546 56.8802 29.3906 50.3619 37.4867 50.3619C45.5828 50.3619 52.1187 56.8802 52.1187 64.9546C52.1187 73.0289 45.5828 79.5472 37.4867 79.5472Z" fill="white"/>
</svg>
