<svg width="59" height="65" viewBox="0 0 59 65" fill="none" xmlns="http://www.w3.org/2000/svg">
<path d="M56.7919 0.000732422H2.2074C0.988159 0.000732422 0 1.0894 0 2.43264V62.5687C0 63.9122 0.988159 65.0007 2.2074 65.0007H56.7926C58.012 65.0007 59 63.9121 59 62.5687V2.43264C58.9994 1.0894 58.0111 0.000732422 56.7919 0.000732422ZM15.6748 53.4875C15.6748 54.3831 15.0162 55.1085 14.2032 55.1085H8.31164C7.49938 55.1085 6.84004 54.383 6.84004 53.4875V25.1175C6.84004 24.2217 7.49938 23.4962 8.31164 23.4962H14.2032C15.0162 23.4962 15.6748 24.2217 15.6748 25.1175V53.4875ZM15.6748 16.8862C15.6748 17.782 15.0162 18.5075 14.2032 18.5075H8.31164C7.49938 18.5075 6.84004 17.7819 6.84004 16.8862V11.1226C6.84004 10.2268 7.49938 9.50133 8.31164 9.50133H14.2032C15.0162 9.50133 15.6748 10.2268 15.6748 11.1226V16.8862ZM52.1594 53.4875C52.1594 54.3831 51.5001 55.1085 50.6878 55.1085H44.7962C43.9831 55.1085 43.3246 54.383 43.3246 53.4875V41.5086C43.3246 37.5365 43.1363 34.9675 42.7581 33.8011C42.3806 32.6345 41.7678 31.7282 40.9186 31.0823C40.0695 30.4353 39.0481 30.1127 37.8532 30.1127C36.3228 30.1127 34.9498 30.5747 33.7342 31.498C32.5187 32.4222 31.6858 33.6453 31.2347 35.1693C30.7844 36.6934 30.5592 39.5111 30.5592 43.621V53.4875C30.5592 54.3831 29.9 55.1085 29.0876 55.1085H23.1961C22.3838 55.1085 21.7245 54.383 21.7245 53.4875V25.1175C21.7245 24.2217 22.3837 23.4962 23.1961 23.4962H28.4586C29.2717 23.4962 29.9302 24.2217 29.9302 25.1175V27.2786C29.9302 28.1744 30.3284 28.3187 30.8749 27.6564C33.6238 24.3287 36.9769 22.6645 40.9348 22.6645C42.884 22.6645 44.6653 23.0511 46.2796 23.8245C47.8933 24.5978 49.1146 25.5852 49.9425 26.7858C50.7702 27.9862 51.3471 29.3489 51.6716 30.873C51.9961 32.3969 52.1595 34.5791 52.1595 37.4198V53.4875H52.1594Z" fill="black"/>
</svg>
