<svg width="64" height="65" viewBox="0 0 64 65" fill="none" xmlns="http://www.w3.org/2000/svg">
<path fill-rule="evenodd" clip-rule="evenodd" d="M32 0C14.32 0 0 14.9116 0 33.322C0 48.0671 9.16 60.5212 21.88 64.9363C23.48 65.2279 24.08 64.2282 24.08 63.3535C24.08 62.5621 24.04 59.938 24.04 57.1473C16 58.6885 13.92 55.1063 13.28 53.232C12.92 52.274 11.36 49.3166 10 48.5252C8.88 47.9004 7.28 46.3593 9.96 46.3176C12.48 46.276 14.28 48.7335 14.88 49.7332C17.76 54.7731 22.36 53.3569 24.2 52.4822C24.48 50.3163 25.32 48.8585 26.24 48.0254C19.12 47.1923 11.68 44.3183 11.68 31.5726C11.68 27.9489 12.92 24.9499 14.96 22.6173C14.64 21.7843 13.52 18.3688 15.28 13.787C15.28 13.787 17.96 12.9123 24.08 17.2025C26.64 16.4528 29.36 16.0779 32.08 16.0779C34.8 16.0779 37.52 16.4528 40.08 17.2025C46.2 12.8706 48.88 13.787 48.88 13.787C50.64 18.3688 49.52 21.7843 49.2 22.6173C51.24 24.9499 52.48 27.9072 52.48 31.5726C52.48 44.36 45 47.1923 37.88 48.0254C39.04 49.0667 40.04 51.066 40.04 54.19C40.04 58.6468 40 62.2289 40 63.3535C40 64.2282 40.6 65.2696 42.2 64.9363C54.84 60.5212 64 48.0254 64 33.322C64 14.9116 49.68 0 32 0Z" fill="black"/>
</svg>
