<svg width="84" height="92" viewBox="0 0 84 92" fill="none" xmlns="http://www.w3.org/2000/svg">
<path d="M80.382 0H3.1243C1.39862 0 0 1.54087 0 3.44207V88.5573C0 90.4589 1.39862 91.9996 3.1243 91.9996H80.383C82.1089 91.9996 83.5073 90.4587 83.5073 88.5573V3.44207C83.5065 1.54087 82.1077 0 80.382 0ZM22.1858 75.704C22.1858 76.9717 21.2536 77.9983 20.1029 77.9983H11.7641C10.6145 77.9983 9.68125 76.9715 9.68125 75.704V35.5497C9.68125 34.2818 10.6145 33.255 11.7641 33.255H20.1029C21.2536 33.255 22.1858 34.2818 22.1858 35.5497V75.704ZM22.1858 23.8993C22.1858 25.1672 21.2536 26.194 20.1029 26.194H11.7641C10.6145 26.194 9.68125 25.167 9.68125 23.8993V15.7417C9.68125 14.4737 10.6145 13.4469 11.7641 13.4469H20.1029C21.2536 13.4469 22.1858 14.4737 22.1858 15.7417V23.8993ZM73.8252 75.704C73.8252 76.9717 72.8922 77.9983 71.7424 77.9983H63.4036C62.2527 77.9983 61.3207 76.9715 61.3207 75.704V58.7493C61.3207 53.1273 61.0542 49.4912 60.5189 47.8403C59.9845 46.1891 59.1172 44.9064 57.9153 43.9921C56.7136 43.0765 55.2678 42.6198 53.5767 42.6198C51.4106 42.6198 49.4673 43.2737 47.7467 44.5806C46.0263 45.8886 44.8473 47.6198 44.2089 49.7769C43.5716 51.934 43.2529 55.9222 43.2529 61.7392V75.704C43.2529 76.9717 42.3198 77.9983 41.17 77.9983H32.8312C31.6815 77.9983 30.7483 76.9715 30.7483 75.704V35.5497C30.7483 34.2818 31.6814 33.255 32.8312 33.255H40.2797C41.4305 33.255 42.3625 34.2818 42.3625 35.5497V38.6085C42.3625 39.8764 42.9261 40.0806 43.6997 39.1432C47.5905 34.4332 52.3363 32.0778 57.9383 32.0778C60.697 32.0778 63.2183 32.625 65.5031 33.7197C67.7871 34.8142 69.5157 36.2116 70.6875 37.9109C71.8591 39.61 72.6756 41.5388 73.1349 43.6959C73.5941 45.8528 73.8254 48.9415 73.8254 52.9621V75.704H73.8252Z" fill="white"/>
</svg>
