<svg width="593" height="97" viewBox="0 0 593 97" fill="none" xmlns="http://www.w3.org/2000/svg">
<path d="M121.377 25.4883C121.377 28.1315 120.797 30.5273 119.638 32.6758C118.492 34.8242 116.962 36.4909 115.048 37.6758C113.72 38.4961 112.236 39.0885 110.595 39.4531C108.968 39.8177 106.819 40 104.15 40H96.8062V10.918H104.072C106.91 10.918 109.163 11.1263 110.83 11.543C112.509 11.9466 113.929 12.5065 115.087 13.2227C117.067 14.4596 118.61 16.1068 119.716 18.1641C120.823 20.2214 121.377 22.6628 121.377 25.4883ZM117.334 25.4297C117.334 23.151 116.936 21.2305 116.142 19.668C115.348 18.1055 114.163 16.875 112.587 15.9766C111.442 15.3255 110.224 14.8763 108.935 14.6289C107.646 14.3685 106.103 14.2383 104.306 14.2383H100.673V36.6797H104.306C106.168 36.6797 107.789 36.543 109.17 36.2695C110.563 35.9961 111.839 35.4883 112.998 34.7461C114.443 33.8216 115.524 32.6042 116.24 31.0938C116.969 29.5833 117.334 27.6953 117.334 25.4297ZM131.679 14.5312H127.538V10.7227H131.679V14.5312ZM131.445 40H127.773V18.1836H131.445V40ZM154.696 33.7109C154.696 35.7031 153.869 37.3372 152.216 38.6133C150.575 39.8893 148.329 40.5273 145.477 40.5273C143.863 40.5273 142.378 40.3385 141.024 39.9609C139.683 39.5703 138.557 39.1471 137.645 38.6914V34.5703H137.841C138.999 35.4427 140.289 36.1393 141.708 36.6602C143.127 37.168 144.488 37.4219 145.79 37.4219C147.404 37.4219 148.667 37.1615 149.579 36.6406C150.49 36.1198 150.946 35.2995 150.946 34.1797C150.946 33.3203 150.699 32.6693 150.204 32.2266C149.709 31.7839 148.759 31.4062 147.352 31.0938C146.832 30.9766 146.148 30.8398 145.302 30.6836C144.468 30.5273 143.707 30.3581 143.016 30.1758C141.102 29.668 139.742 28.9258 138.934 27.9492C138.14 26.9596 137.743 25.7487 137.743 24.3164C137.743 23.418 137.925 22.5716 138.29 21.7773C138.667 20.9831 139.234 20.2734 139.989 19.6484C140.718 19.0365 141.643 18.5547 142.762 18.2031C143.895 17.8385 145.158 17.6562 146.552 17.6562C147.854 17.6562 149.169 17.819 150.497 18.1445C151.838 18.457 152.951 18.8411 153.837 19.2969V23.2227H153.641C152.704 22.5326 151.565 21.9531 150.223 21.4844C148.882 21.0026 147.567 20.7617 146.278 20.7617C144.937 20.7617 143.804 21.0221 142.88 21.543C141.955 22.0508 141.493 22.8125 141.493 23.8281C141.493 24.7266 141.773 25.4036 142.333 25.8594C142.88 26.3151 143.765 26.6862 144.989 26.9727C145.666 27.1289 146.421 27.2852 147.255 27.4414C148.101 27.5977 148.804 27.7409 149.364 27.8711C151.07 28.2617 152.385 28.9323 153.309 29.8828C154.234 30.8464 154.696 32.1224 154.696 33.7109ZM178.631 29.4727H162.557C162.557 30.8138 162.759 31.9857 163.162 32.9883C163.566 33.9779 164.12 34.7917 164.823 35.4297C165.5 36.0547 166.301 36.5234 167.225 36.8359C168.162 37.1484 169.191 37.3047 170.311 37.3047C171.795 37.3047 173.286 37.0117 174.784 36.4258C176.294 35.8268 177.368 35.2409 178.006 34.668H178.202V38.6719C176.965 39.1927 175.702 39.6289 174.412 39.9805C173.123 40.332 171.769 40.5078 170.35 40.5078C166.73 40.5078 163.905 39.5312 161.873 37.5781C159.842 35.612 158.827 32.8255 158.827 29.2188C158.827 25.651 159.797 22.819 161.737 20.7227C163.69 18.6263 166.255 17.5781 169.432 17.5781C172.375 17.5781 174.64 18.4375 176.229 20.1562C177.83 21.875 178.631 24.3164 178.631 27.4805V29.4727ZM175.057 26.6602C175.044 24.7331 174.556 23.2422 173.592 22.1875C172.642 21.1328 171.19 20.6055 169.237 20.6055C167.271 20.6055 165.702 21.1849 164.53 22.3438C163.371 23.5026 162.713 24.9414 162.557 26.6602H175.057ZM202.84 40H199.168V27.5781C199.168 26.5755 199.109 25.638 198.992 24.7656C198.875 23.8802 198.66 23.1901 198.348 22.6953C198.022 22.1484 197.553 21.7448 196.941 21.4844C196.329 21.2109 195.535 21.0742 194.559 21.0742C193.556 21.0742 192.508 21.3216 191.414 21.8164C190.32 22.3112 189.272 22.9427 188.27 23.7109V40H184.598V18.1836H188.27V20.6055C189.415 19.6549 190.6 18.9128 191.824 18.3789C193.048 17.8451 194.305 17.5781 195.594 17.5781C197.951 17.5781 199.747 18.2878 200.984 19.707C202.221 21.1263 202.84 23.1706 202.84 25.8398V40ZM201.98 8.37891C201.837 10.3581 201.336 11.849 200.477 12.8516C199.617 13.8542 198.465 14.3555 197.02 14.3555C196.316 14.3555 195.665 14.2318 195.066 13.9844C194.467 13.724 193.901 13.3529 193.367 12.8711C192.755 12.3112 192.234 11.8945 191.805 11.6211C191.388 11.3346 190.926 11.1914 190.418 11.1914C189.741 11.1914 189.233 11.4844 188.895 12.0703C188.556 12.6562 188.361 13.444 188.309 14.4336H185.75C185.854 12.4674 186.368 10.9831 187.293 9.98047C188.217 8.97786 189.35 8.47656 190.691 8.47656C191.342 8.47656 191.967 8.60677 192.566 8.86719C193.178 9.11458 193.758 9.47266 194.305 9.94141C194.917 10.4753 195.457 10.8789 195.926 11.1523C196.408 11.4128 196.863 11.543 197.293 11.543C197.957 11.543 198.471 11.2435 198.836 10.6445C199.214 10.0456 199.422 9.29036 199.461 8.37891H201.98ZM227.263 40H223.611V37.6758C223.285 37.8971 222.843 38.2096 222.283 38.6133C221.736 39.0039 221.202 39.3164 220.681 39.5508C220.069 39.8503 219.366 40.0977 218.572 40.293C217.778 40.5013 216.847 40.6055 215.779 40.6055C213.813 40.6055 212.146 39.9544 210.779 38.6523C209.412 37.3503 208.728 35.6901 208.728 33.6719C208.728 32.0182 209.08 30.6836 209.783 29.668C210.499 28.6393 211.515 27.832 212.83 27.2461C214.158 26.6602 215.753 26.263 217.615 26.0547C219.477 25.8464 221.476 25.6901 223.611 25.5859V25.0195C223.611 24.1862 223.461 23.4961 223.162 22.9492C222.875 22.4023 222.459 21.9727 221.912 21.6602C221.391 21.3607 220.766 21.1589 220.037 21.0547C219.308 20.9505 218.546 20.8984 217.752 20.8984C216.788 20.8984 215.714 21.0286 214.529 21.2891C213.344 21.5365 212.12 21.901 210.857 22.3828H210.662V18.6523C211.378 18.457 212.413 18.2422 213.767 18.0078C215.121 17.7734 216.456 17.6562 217.771 17.6562C219.308 17.6562 220.642 17.7865 221.775 18.0469C222.921 18.2943 223.91 18.724 224.744 19.3359C225.564 19.9349 226.189 20.7096 226.619 21.6602C227.048 22.6107 227.263 23.7891 227.263 25.1953V40ZM223.611 34.6289V28.5547C222.491 28.6198 221.17 28.7174 219.646 28.8477C218.136 28.9779 216.938 29.1667 216.052 29.4141C214.998 29.7135 214.145 30.1823 213.494 30.8203C212.843 31.4453 212.517 32.3112 212.517 33.418C212.517 34.668 212.895 35.612 213.65 36.25C214.405 36.875 215.558 37.1875 217.107 37.1875C218.396 37.1875 219.574 36.9401 220.642 36.4453C221.71 35.9375 222.699 35.332 223.611 34.6289ZM252.429 40H248.757V37.7148C247.702 38.6263 246.602 39.3359 245.456 39.8438C244.31 40.3516 243.067 40.6055 241.726 40.6055C239.122 40.6055 237.051 39.6029 235.515 37.5977C233.991 35.5924 233.23 32.8125 233.23 29.2578C233.23 27.4089 233.49 25.7617 234.011 24.3164C234.545 22.8711 235.261 21.6406 236.159 20.625C237.045 19.6354 238.073 18.8802 239.245 18.3594C240.43 17.8385 241.654 17.5781 242.917 17.5781C244.063 17.5781 245.079 17.7018 245.964 17.9492C246.849 18.1836 247.78 18.5547 248.757 19.0625V9.60938H252.429V40ZM248.757 34.6289V22.1094C247.767 21.6667 246.882 21.3607 246.101 21.1914C245.32 21.0221 244.467 20.9375 243.542 20.9375C241.485 20.9375 239.883 21.6536 238.737 23.0859C237.592 24.5182 237.019 26.5495 237.019 29.1797C237.019 31.7708 237.461 33.7435 238.347 35.0977C239.232 36.4388 240.652 37.1094 242.605 37.1094C243.646 37.1094 244.701 36.8815 245.769 36.4258C246.836 35.957 247.833 35.3581 248.757 34.6289ZM278.649 29.1016C278.649 32.6562 277.738 35.4622 275.915 37.5195C274.092 39.5768 271.651 40.6055 268.591 40.6055C265.505 40.6055 263.05 39.5768 261.227 37.5195C259.417 35.4622 258.512 32.6562 258.512 29.1016C258.512 25.5469 259.417 22.7409 261.227 20.6836C263.05 18.6133 265.505 17.5781 268.591 17.5781C271.651 17.5781 274.092 18.6133 275.915 20.6836C277.738 22.7409 278.649 25.5469 278.649 29.1016ZM274.86 29.1016C274.86 26.276 274.307 24.1797 273.2 22.8125C272.093 21.4323 270.557 20.7422 268.591 20.7422C266.598 20.7422 265.049 21.4323 263.942 22.8125C262.848 24.1797 262.302 26.276 262.302 29.1016C262.302 31.8359 262.855 33.9128 263.962 35.332C265.068 36.7383 266.611 37.4414 268.591 37.4414C270.544 37.4414 272.074 36.7448 273.18 35.3516C274.3 33.9453 274.86 31.862 274.86 29.1016ZM318.082 18.1836L305.348 48.0469H301.422L305.484 38.9453L296.793 18.1836H300.777L307.477 34.3555L314.234 18.1836H318.082ZM362.612 25.4883C362.612 28.1315 362.033 30.5273 360.874 32.6758C359.728 34.8242 358.198 36.4909 356.284 37.6758C354.956 38.4961 353.472 39.0885 351.831 39.4531C350.204 39.8177 348.055 40 345.386 40H338.042V10.918H345.308C348.146 10.918 350.399 11.1263 352.066 11.543C353.745 11.9466 355.165 12.5065 356.323 13.2227C358.303 14.4596 359.846 16.1068 360.952 18.1641C362.059 20.2214 362.612 22.6628 362.612 25.4883ZM358.57 25.4297C358.57 23.151 358.172 21.2305 357.378 19.668C356.584 18.1055 355.399 16.875 353.823 15.9766C352.678 15.3255 351.46 14.8763 350.171 14.6289C348.882 14.3685 347.339 14.2383 345.542 14.2383H341.909V36.6797H345.542C347.404 36.6797 349.025 36.543 350.405 36.2695C351.799 35.9961 353.075 35.4883 354.234 34.7461C355.679 33.8216 356.76 32.6042 357.476 31.0938C358.205 29.5833 358.57 27.6953 358.57 25.4297ZM387.231 29.4727H371.157C371.157 30.8138 371.359 31.9857 371.762 32.9883C372.166 33.9779 372.72 34.7917 373.423 35.4297C374.1 36.0547 374.901 36.5234 375.825 36.8359C376.762 37.1484 377.791 37.3047 378.911 37.3047C380.395 37.3047 381.886 37.0117 383.384 36.4258C384.894 35.8268 385.968 35.2409 386.606 34.668H386.802V38.6719C385.565 39.1927 384.302 39.6289 383.012 39.9805C381.723 40.332 380.369 40.5078 378.95 40.5078C375.33 40.5078 372.505 39.5312 370.473 37.5781C368.442 35.612 367.427 32.8255 367.427 29.2188C367.427 25.651 368.397 22.819 370.337 20.7227C372.29 18.6263 374.855 17.5781 378.032 17.5781C380.975 17.5781 383.24 18.4375 384.829 20.1562C386.43 21.875 387.231 24.3164 387.231 27.4805V29.4727ZM383.657 26.6602C383.644 24.7331 383.156 23.2422 382.192 22.1875C381.242 21.1328 379.79 20.6055 377.837 20.6055C375.871 20.6055 374.302 21.1849 373.13 22.3438C371.971 23.5026 371.313 24.9414 371.157 26.6602H383.657ZM408.784 33.7109C408.784 35.7031 407.957 37.3372 406.303 38.6133C404.663 39.8893 402.416 40.5273 399.565 40.5273C397.95 40.5273 396.466 40.3385 395.112 39.9609C393.771 39.5703 392.644 39.1471 391.733 38.6914V34.5703H391.928C393.087 35.4427 394.376 36.1393 395.795 36.6602C397.215 37.168 398.575 37.4219 399.877 37.4219C401.492 37.4219 402.755 37.1615 403.666 36.6406C404.578 36.1198 405.034 35.2995 405.034 34.1797C405.034 33.3203 404.786 32.6693 404.291 32.2266C403.797 31.7839 402.846 31.4062 401.44 31.0938C400.919 30.9766 400.235 30.8398 399.389 30.6836C398.556 30.5273 397.794 30.3581 397.104 30.1758C395.19 29.668 393.829 28.9258 393.022 27.9492C392.228 26.9596 391.83 25.7487 391.83 24.3164C391.83 23.418 392.013 22.5716 392.377 21.7773C392.755 20.9831 393.321 20.2734 394.077 19.6484C394.806 19.0365 395.73 18.5547 396.85 18.2031C397.983 17.8385 399.246 17.6562 400.639 17.6562C401.941 17.6562 403.256 17.819 404.584 18.1445C405.926 18.457 407.039 18.8411 407.924 19.2969V23.2227H407.729C406.791 22.5326 405.652 21.9531 404.311 21.4844C402.97 21.0026 401.655 20.7617 400.366 20.7617C399.024 20.7617 397.892 21.0221 396.967 21.543C396.043 22.0508 395.58 22.8125 395.58 23.8281C395.58 24.7266 395.86 25.4036 396.42 25.8594C396.967 26.3151 397.853 26.6862 399.077 26.9727C399.754 27.1289 400.509 27.2852 401.342 27.4414C402.189 27.5977 402.892 27.7409 403.452 27.8711C405.157 28.2617 406.472 28.9323 407.397 29.8828C408.321 30.8464 408.784 32.1224 408.784 33.7109ZM431.41 40H427.758V37.6758C427.432 37.8971 426.99 38.2096 426.43 38.6133C425.883 39.0039 425.349 39.3164 424.828 39.5508C424.216 39.8503 423.513 40.0977 422.719 40.293C421.924 40.5013 420.993 40.6055 419.926 40.6055C417.96 40.6055 416.293 39.9544 414.926 38.6523C413.559 37.3503 412.875 35.6901 412.875 33.6719C412.875 32.0182 413.227 30.6836 413.93 29.668C414.646 28.6393 415.661 27.832 416.977 27.2461C418.305 26.6602 419.9 26.263 421.762 26.0547C423.624 25.8464 425.622 25.6901 427.758 25.5859V25.0195C427.758 24.1862 427.608 23.4961 427.309 22.9492C427.022 22.4023 426.605 21.9727 426.059 21.6602C425.538 21.3607 424.913 21.1589 424.184 21.0547C423.454 20.9505 422.693 20.8984 421.898 20.8984C420.935 20.8984 419.861 21.0286 418.676 21.2891C417.491 21.5365 416.267 21.901 415.004 22.3828H414.809V18.6523C415.525 18.457 416.56 18.2422 417.914 18.0078C419.268 17.7734 420.603 17.6562 421.918 17.6562C423.454 17.6562 424.789 17.7865 425.922 18.0469C427.068 18.2943 428.057 18.724 428.891 19.3359C429.711 19.9349 430.336 20.7096 430.766 21.6602C431.195 22.6107 431.41 23.7891 431.41 25.1953V40ZM427.758 34.6289V28.5547C426.638 28.6198 425.316 28.7174 423.793 28.8477C422.283 28.9779 421.085 29.1667 420.199 29.4141C419.145 29.7135 418.292 30.1823 417.641 30.8203C416.99 31.4453 416.664 32.3112 416.664 33.418C416.664 34.668 417.042 35.612 417.797 36.25C418.552 36.875 419.704 37.1875 421.254 37.1875C422.543 37.1875 423.721 36.9401 424.789 36.4453C425.857 35.9375 426.846 35.332 427.758 34.6289ZM452.494 22.1875H452.298C451.752 22.0573 451.218 21.9661 450.697 21.9141C450.189 21.849 449.584 21.8164 448.88 21.8164C447.748 21.8164 446.654 22.0703 445.599 22.5781C444.545 23.0729 443.529 23.7174 442.552 24.5117V40H438.88V18.1836H442.552V21.4062C444.011 20.2344 445.293 19.4076 446.4 18.9258C447.52 18.431 448.659 18.1836 449.818 18.1836C450.456 18.1836 450.918 18.2031 451.205 18.2422C451.491 18.2682 451.921 18.3268 452.494 18.418V22.1875ZM469.964 22.1875H469.769C469.222 22.0573 468.688 21.9661 468.167 21.9141C467.659 21.849 467.054 21.8164 466.351 21.8164C465.218 21.8164 464.124 22.0703 463.07 22.5781C462.015 23.0729 460.999 23.7174 460.023 24.5117V40H456.351V18.1836H460.023V21.4062C461.481 20.2344 462.764 19.4076 463.87 18.9258C464.99 18.431 466.129 18.1836 467.288 18.1836C467.926 18.1836 468.389 18.2031 468.675 18.2422C468.961 18.2682 469.391 18.3268 469.964 18.418V22.1875ZM492.415 29.1016C492.415 32.6562 491.503 35.4622 489.68 37.5195C487.858 39.5768 485.416 40.6055 482.356 40.6055C479.27 40.6055 476.816 39.5768 474.993 37.5195C473.183 35.4622 472.278 32.6562 472.278 29.1016C472.278 25.5469 473.183 22.7409 474.993 20.6836C476.816 18.6133 479.27 17.5781 482.356 17.5781C485.416 17.5781 487.858 18.6133 489.68 20.6836C491.503 22.7409 492.415 25.5469 492.415 29.1016ZM488.626 29.1016C488.626 26.276 488.072 24.1797 486.966 22.8125C485.859 21.4323 484.322 20.7422 482.356 20.7422C480.364 20.7422 478.815 21.4323 477.708 22.8125C476.614 24.1797 476.067 26.276 476.067 29.1016C476.067 31.8359 476.621 33.9128 477.727 35.332C478.834 36.7383 480.377 37.4414 482.356 37.4414C484.309 37.4414 485.839 36.7448 486.946 35.3516C488.066 33.9453 488.626 31.862 488.626 29.1016ZM502.229 40H498.557V9.60938H502.229V40ZM513.605 40H509.934V9.60938H513.605V40ZM538.224 40H534.572V37.6758C534.246 37.8971 533.804 38.2096 533.244 38.6133C532.697 39.0039 532.163 39.3164 531.642 39.5508C531.03 39.8503 530.327 40.0977 529.533 40.293C528.739 40.5013 527.808 40.6055 526.74 40.6055C524.774 40.6055 523.107 39.9544 521.74 38.6523C520.373 37.3503 519.689 35.6901 519.689 33.6719C519.689 32.0182 520.041 30.6836 520.744 29.668C521.46 28.6393 522.476 27.832 523.791 27.2461C525.119 26.6602 526.714 26.263 528.576 26.0547C530.438 25.8464 532.436 25.6901 534.572 25.5859V25.0195C534.572 24.1862 534.422 23.4961 534.123 22.9492C533.836 22.4023 533.42 21.9727 532.873 21.6602C532.352 21.3607 531.727 21.1589 530.998 21.0547C530.268 20.9505 529.507 20.8984 528.712 20.8984C527.749 20.8984 526.675 21.0286 525.49 21.2891C524.305 21.5365 523.081 21.901 521.818 22.3828H521.623V18.6523C522.339 18.457 523.374 18.2422 524.728 18.0078C526.082 17.7734 527.417 17.6562 528.732 17.6562C530.268 17.6562 531.603 17.7865 532.736 18.0469C533.882 18.2943 534.871 18.724 535.705 19.3359C536.525 19.9349 537.15 20.7096 537.58 21.6602C538.009 22.6107 538.224 23.7891 538.224 25.1953V40ZM534.572 34.6289V28.5547C533.452 28.6198 532.13 28.7174 530.607 28.8477C529.097 28.9779 527.899 29.1667 527.013 29.4141C525.959 29.7135 525.106 30.1823 524.455 30.8203C523.804 31.4453 523.478 32.3112 523.478 33.418C523.478 34.668 523.856 35.612 524.611 36.25C525.366 36.875 526.518 37.1875 528.068 37.1875C529.357 37.1875 530.535 36.9401 531.603 36.4453C532.671 35.9375 533.66 35.332 534.572 34.6289ZM563.39 40H559.718V37.7148C558.663 38.6263 557.563 39.3359 556.417 39.8438C555.271 40.3516 554.028 40.6055 552.687 40.6055C550.083 40.6055 548.012 39.6029 546.476 37.5977C544.952 35.5924 544.191 32.8125 544.191 29.2578C544.191 27.4089 544.451 25.7617 544.972 24.3164C545.506 22.8711 546.222 21.6406 547.12 20.625C548.006 19.6354 549.034 18.8802 550.206 18.3594C551.391 17.8385 552.615 17.5781 553.878 17.5781C555.024 17.5781 556.04 17.7018 556.925 17.9492C557.81 18.1836 558.741 18.5547 559.718 19.0625V9.60938H563.39V40ZM559.718 34.6289V22.1094C558.728 21.6667 557.843 21.3607 557.062 21.1914C556.28 21.0221 555.428 20.9375 554.503 20.9375C552.446 20.9375 550.844 21.6536 549.698 23.0859C548.553 24.5182 547.98 26.5495 547.98 29.1797C547.98 31.7708 548.422 33.7435 549.308 35.0977C550.193 36.4388 551.612 37.1094 553.566 37.1094C554.607 37.1094 555.662 36.8815 556.73 36.4258C557.797 35.957 558.793 35.3581 559.718 34.6289ZM589.61 29.1016C589.61 32.6562 588.699 35.4622 586.876 37.5195C585.053 39.5768 582.611 40.6055 579.552 40.6055C576.466 40.6055 574.011 39.5768 572.188 37.5195C570.378 35.4622 569.473 32.6562 569.473 29.1016C569.473 25.5469 570.378 22.7409 572.188 20.6836C574.011 18.6133 576.466 17.5781 579.552 17.5781C582.611 17.5781 585.053 18.6133 586.876 20.6836C588.699 22.7409 589.61 25.5469 589.61 29.1016ZM585.821 29.1016C585.821 26.276 585.268 24.1797 584.161 22.8125C583.054 21.4323 581.518 20.7422 579.552 20.7422C577.559 20.7422 576.01 21.4323 574.903 22.8125C573.809 24.1797 573.262 26.276 573.262 29.1016C573.262 31.8359 573.816 33.9128 574.923 35.332C576.029 36.7383 577.572 37.4414 579.552 37.4414C581.505 37.4414 583.035 36.7448 584.141 35.3516C585.261 33.9453 585.821 31.862 585.821 29.1016ZM227.878 76.8281C227.878 78.599 227.624 80.2201 227.116 81.6914C226.609 83.1497 225.892 84.3867 224.968 85.4023C224.109 86.3659 223.093 87.1146 221.921 87.6484C220.762 88.1693 219.532 88.4297 218.23 88.4297C217.097 88.4297 216.068 88.306 215.144 88.0586C214.232 87.8112 213.301 87.4271 212.351 86.9062V96.0469H208.679V66.1836H212.351V68.4688C213.327 67.6484 214.421 66.9648 215.632 66.418C216.856 65.8581 218.158 65.5781 219.538 65.5781C222.168 65.5781 224.213 66.5742 225.671 68.5664C227.142 70.5456 227.878 73.2995 227.878 76.8281ZM224.089 76.9258C224.089 74.2956 223.64 72.3294 222.741 71.0273C221.843 69.7253 220.463 69.0742 218.601 69.0742C217.546 69.0742 216.485 69.3021 215.417 69.7578C214.349 70.2135 213.327 70.8125 212.351 71.5547V83.918C213.392 84.3867 214.284 84.7057 215.027 84.875C215.782 85.0443 216.635 85.1289 217.585 85.1289C219.629 85.1289 221.224 84.4388 222.37 83.0586C223.516 81.6784 224.089 79.6341 224.089 76.9258ZM252.595 77.1016C252.595 80.6562 251.683 83.4622 249.86 85.5195C248.037 87.5768 245.596 88.6055 242.536 88.6055C239.45 88.6055 236.996 87.5768 235.173 85.5195C233.363 83.4622 232.458 80.6562 232.458 77.1016C232.458 73.5469 233.363 70.7409 235.173 68.6836C236.996 66.6133 239.45 65.5781 242.536 65.5781C245.596 65.5781 248.037 66.6133 249.86 68.6836C251.683 70.7409 252.595 73.5469 252.595 77.1016ZM248.805 77.1016C248.805 74.276 248.252 72.1797 247.145 70.8125C246.039 69.4323 244.502 68.7422 242.536 68.7422C240.544 68.7422 238.994 69.4323 237.887 70.8125C236.794 72.1797 236.247 74.276 236.247 77.1016C236.247 79.8359 236.8 81.9128 237.907 83.332C239.014 84.7383 240.557 85.4414 242.536 85.4414C244.489 85.4414 246.019 84.7448 247.126 83.3516C248.246 81.9453 248.805 79.862 248.805 77.1016ZM272.311 70.1875H272.116C271.569 70.0573 271.035 69.9661 270.514 69.9141C270.006 69.849 269.401 69.8164 268.698 69.8164C267.565 69.8164 266.471 70.0703 265.416 70.5781C264.362 71.0729 263.346 71.7174 262.37 72.5117V88H258.698V66.1836H262.37V69.4062C263.828 68.2344 265.11 67.4076 266.217 66.9258C267.337 66.431 268.476 66.1836 269.635 66.1836C270.273 66.1836 270.735 66.2031 271.022 66.2422C271.308 66.2682 271.738 66.3268 272.311 66.418V70.1875ZM315.181 85.8516C313.593 86.5807 311.854 87.2188 309.966 87.7656C308.091 88.2995 306.275 88.5664 304.517 88.5664C302.252 88.5664 300.175 88.2539 298.287 87.6289C296.399 87.0039 294.791 86.0664 293.462 84.8164C292.121 83.5534 291.086 81.9779 290.357 80.0898C289.628 78.1888 289.263 75.9688 289.263 73.4297C289.263 68.7812 290.617 65.1159 293.326 62.4336C296.047 59.7383 299.778 58.3906 304.517 58.3906C306.171 58.3906 307.857 58.5924 309.576 58.9961C311.308 59.3867 313.17 60.0573 315.162 61.0078V65.5977H314.81C314.407 65.2852 313.821 64.875 313.052 64.3672C312.284 63.8594 311.529 63.4362 310.787 63.0977C309.888 62.694 308.866 62.362 307.72 62.1016C306.587 61.8281 305.298 61.6914 303.853 61.6914C300.598 61.6914 298.02 62.7396 296.119 64.8359C294.231 66.9193 293.287 69.7448 293.287 73.3125C293.287 77.0755 294.276 80.0052 296.255 82.1016C298.235 84.1849 300.93 85.2266 304.341 85.2266C305.591 85.2266 306.835 85.1029 308.072 84.8555C309.322 84.6081 310.416 84.2891 311.353 83.8984V76.7695H303.56V73.3711H315.181V85.8516ZM340.308 77.4727H324.234C324.234 78.8138 324.435 79.9857 324.839 80.9883C325.243 81.9779 325.796 82.7917 326.499 83.4297C327.176 84.0547 327.977 84.5234 328.902 84.8359C329.839 85.1484 330.868 85.3047 331.988 85.3047C333.472 85.3047 334.963 85.0117 336.46 84.4258C337.971 83.8268 339.045 83.2409 339.683 82.668H339.878V86.6719C338.641 87.1927 337.378 87.6289 336.089 87.9805C334.8 88.332 333.446 88.5078 332.027 88.5078C328.407 88.5078 325.581 87.5312 323.55 85.5781C321.519 83.612 320.503 80.8255 320.503 77.2188C320.503 73.651 321.473 70.819 323.413 68.7227C325.366 66.6263 327.932 65.5781 331.109 65.5781C334.051 65.5781 336.317 66.4375 337.905 68.1562C339.507 69.875 340.308 72.3164 340.308 75.4805V77.4727ZM336.734 74.6602C336.721 72.7331 336.232 71.2422 335.269 70.1875C334.318 69.1328 332.866 68.6055 330.913 68.6055C328.947 68.6055 327.378 69.1849 326.206 70.3438C325.047 71.5026 324.39 72.9414 324.234 74.6602H336.734ZM364.868 77.1016C364.868 80.6562 363.957 83.4622 362.134 85.5195C360.311 87.5768 357.869 88.6055 354.809 88.6055C351.723 88.6055 349.269 87.5768 347.446 85.5195C345.636 83.4622 344.731 80.6562 344.731 77.1016C344.731 73.5469 345.636 70.7409 347.446 68.6836C349.269 66.6133 351.723 65.5781 354.809 65.5781C357.869 65.5781 360.311 66.6133 362.134 68.6836C363.957 70.7409 364.868 73.5469 364.868 77.1016ZM361.079 77.1016C361.079 74.276 360.526 72.1797 359.419 70.8125C358.312 69.4323 356.776 68.7422 354.809 68.7422C352.817 68.7422 351.268 69.4323 350.161 70.8125C349.067 72.1797 348.52 74.276 348.52 77.1016C348.52 79.8359 349.074 81.9128 350.18 83.332C351.287 84.7383 352.83 85.4414 354.809 85.4414C356.762 85.4414 358.292 84.7448 359.399 83.3516C360.519 81.9453 361.079 79.862 361.079 77.1016ZM387.104 86.6328C385.88 87.2188 384.715 87.6745 383.608 88C382.514 88.3255 381.349 88.4883 380.112 88.4883C378.536 88.4883 377.091 88.2604 375.776 87.8047C374.461 87.3359 373.334 86.6328 372.397 85.6953C371.446 84.7578 370.711 83.5729 370.19 82.1406C369.669 80.7083 369.409 79.0352 369.409 77.1211C369.409 73.5534 370.385 70.7539 372.338 68.7227C374.304 66.6914 376.896 65.6758 380.112 65.6758C381.362 65.6758 382.586 65.8516 383.784 66.2031C384.995 66.5547 386.101 66.9844 387.104 67.4922V71.5742H386.909C385.789 70.7018 384.63 70.0312 383.432 69.5625C382.247 69.0938 381.088 68.8594 379.955 68.8594C377.872 68.8594 376.225 69.5625 375.014 70.9688C373.816 72.362 373.217 74.4128 373.217 77.1211C373.217 79.7513 373.803 81.776 374.975 83.1953C376.16 84.6016 377.82 85.3047 379.955 85.3047C380.698 85.3047 381.453 85.207 382.221 85.0117C382.989 84.8164 383.679 84.5625 384.291 84.25C384.825 83.9766 385.327 83.6901 385.795 83.3906C386.264 83.0781 386.635 82.8112 386.909 82.5898H387.104V86.6328ZM410.824 77.1016C410.824 80.6562 409.913 83.4622 408.09 85.5195C406.267 87.5768 403.826 88.6055 400.766 88.6055C397.68 88.6055 395.225 87.5768 393.402 85.5195C391.592 83.4622 390.688 80.6562 390.688 77.1016C390.688 73.5469 391.592 70.7409 393.402 68.6836C395.225 66.6133 397.68 65.5781 400.766 65.5781C403.826 65.5781 406.267 66.6133 408.09 68.6836C409.913 70.7409 410.824 73.5469 410.824 77.1016ZM407.035 77.1016C407.035 74.276 406.482 72.1797 405.375 70.8125C404.268 69.4323 402.732 68.7422 400.766 68.7422C398.773 68.7422 397.224 69.4323 396.117 70.8125C395.023 72.1797 394.477 74.276 394.477 77.1016C394.477 79.8359 395.03 81.9128 396.137 83.332C397.243 84.7383 398.786 85.4414 400.766 85.4414C402.719 85.4414 404.249 84.7448 405.355 83.3516C406.475 81.9453 407.035 79.862 407.035 77.1016ZM434.623 88H430.951V85.7148C429.896 86.6263 428.796 87.3359 427.65 87.8438C426.504 88.3516 425.261 88.6055 423.92 88.6055C421.315 88.6055 419.245 87.6029 417.709 85.5977C416.185 83.5924 415.423 80.8125 415.423 77.2578C415.423 75.4089 415.684 73.7617 416.205 72.3164C416.739 70.8711 417.455 69.6406 418.353 68.625C419.239 67.6354 420.267 66.8802 421.439 66.3594C422.624 65.8385 423.848 65.5781 425.111 65.5781C426.257 65.5781 427.272 65.7018 428.158 65.9492C429.043 66.1836 429.974 66.5547 430.951 67.0625V57.6094H434.623V88ZM430.951 82.6289V70.1094C429.961 69.6667 429.076 69.3607 428.295 69.1914C427.513 69.0221 426.66 68.9375 425.736 68.9375C423.679 68.9375 422.077 69.6536 420.931 71.0859C419.785 72.5182 419.213 74.5495 419.213 77.1797C419.213 79.7708 419.655 81.7435 420.541 83.0977C421.426 84.4388 422.845 85.1094 424.798 85.1094C425.84 85.1094 426.895 84.8815 427.963 84.4258C429.03 83.957 430.026 83.3581 430.951 82.6289ZM460.511 77.4727H444.437C444.437 78.8138 444.639 79.9857 445.042 80.9883C445.446 81.9779 445.999 82.7917 446.702 83.4297C447.379 84.0547 448.18 84.5234 449.105 84.8359C450.042 85.1484 451.071 85.3047 452.191 85.3047C453.675 85.3047 455.166 85.0117 456.663 84.4258C458.174 83.8268 459.248 83.2409 459.886 82.668H460.081V86.6719C458.844 87.1927 457.581 87.6289 456.292 87.9805C455.003 88.332 453.649 88.5078 452.23 88.5078C448.61 88.5078 445.784 87.5312 443.753 85.5781C441.722 83.612 440.706 80.8255 440.706 77.2188C440.706 73.651 441.676 70.819 443.616 68.7227C445.57 66.6263 448.135 65.5781 451.312 65.5781C454.254 65.5781 456.52 66.4375 458.109 68.1562C459.71 69.875 460.511 72.3164 460.511 75.4805V77.4727ZM456.937 74.6602C456.924 72.7331 456.435 71.2422 455.472 70.1875C454.521 69.1328 453.07 68.6055 451.116 68.6055C449.15 68.6055 447.581 69.1849 446.409 70.3438C445.251 71.5026 444.593 72.9414 444.437 74.6602H456.937ZM480.091 70.1875H479.895C479.348 70.0573 478.815 69.9661 478.294 69.9141C477.786 69.849 477.18 69.8164 476.477 69.8164C475.345 69.8164 474.251 70.0703 473.196 70.5781C472.141 71.0729 471.126 71.7174 470.149 72.5117V88H466.477V66.1836H470.149V69.4062C471.608 68.2344 472.89 67.4076 473.997 66.9258C475.117 66.431 476.256 66.1836 477.415 66.1836C478.053 66.1836 478.515 66.2031 478.802 66.2422C479.088 66.2682 479.518 66.3268 480.091 66.418V70.1875Z" fill="white"/>
<path d="M64.4315 43.3717C57.8534 43.2035 38.4565 43.0353 38.4565 43.0353C38.4565 43.0353 54.0162 22.3448 61.775 11.9576C61.775 11.9576 57.5161 8.76147 43.2636 8.04656C38.8782 7.83629 22.0113 7.79423 10.1623 20.6206C-0.0421618 31.6808 2.83261e-06 45.4323 2.83261e-06 51.3619C2.83261e-06 58.0064 0.0421682 69.1506 7.96961 78.024C16.3187 87.402 28.1255 89 37.9083 89C69.4073 89 69.9554 81.8929 69.9554 65.2396C69.9133 48.5022 71.0096 43.5399 64.4315 43.3717ZM37.4867 80.5472C29.3906 80.5472 22.8546 74.0289 22.8546 65.9546C22.8546 57.8802 29.3906 51.3619 37.4867 51.3619C45.5828 51.3619 52.1187 57.8802 52.1187 65.9546C52.1187 74.0289 45.5828 80.5472 37.4867 80.5472Z" fill="white"/>
</svg>
