<svg width="18" height="19" viewBox="0 0 18 19" fill="none" xmlns="http://www.w3.org/2000/svg">
<path fill-rule="evenodd" clip-rule="evenodd" d="M9 0C4.0275 0 0 4.35878 0 9.74029C0 14.0504 2.57625 17.6908 6.15375 18.9814C6.60375 19.0666 6.7725 18.7744 6.7725 18.5187C6.7725 18.2874 6.76125 17.5204 6.76125 16.7046C4.5 17.1551 3.915 16.108 3.735 15.5601C3.63375 15.2801 3.195 14.4156 2.8125 14.1843C2.4975 14.0017 2.0475 13.5512 2.80125 13.539C3.51 13.5268 4.01625 14.2452 4.185 14.5374C4.995 16.0106 6.28875 15.5966 6.80625 15.341C6.885 14.7078 7.12125 14.2817 7.38 14.0382C5.3775 13.7947 3.285 12.9546 3.285 9.22893C3.285 8.16967 3.63375 7.29304 4.2075 6.61122C4.1175 6.36772 3.8025 5.36934 4.2975 4.03005C4.2975 4.03005 5.05125 3.77436 6.7725 5.02843C7.4925 4.80927 8.2575 4.69969 9.0225 4.69969C9.7875 4.69969 10.5525 4.80927 11.2725 5.02843C12.9938 3.76219 13.7475 4.03005 13.7475 4.03005C14.2425 5.36934 13.9275 6.36772 13.8375 6.61122C14.4113 7.29304 14.76 8.15749 14.76 9.22893C14.76 12.9668 12.6563 13.7947 10.6538 14.0382C10.98 14.3426 11.2613 14.927 11.2613 15.8401C11.2613 17.1429 11.25 18.19 11.25 18.5187C11.25 18.7744 11.4188 19.0788 11.8688 18.9814C15.4238 17.6908 18 14.0382 18 9.74029C18 4.35878 13.9725 0 9 0Z" fill="white"/>
</svg>
