<svg width="2124" height="1181" viewBox="0 0 2124 1181" fill="none" xmlns="http://www.w3.org/2000/svg">
<path d="M1754.4 205.772C1801.14 238.008 1846.8 270.961 1856.79 312.726C1866.77 354.491 1840.98 405.087 1808.26 445.612C1775.56 486.236 1735.85 516.906 1681.53 540.513C1627.34 564.198 1558.56 580.918 1516.44 554.716C1474.42 528.496 1459.17 459.433 1466.42 404.06C1473.75 348.57 1503.7 306.848 1531.77 260.191C1559.75 213.552 1585.76 161.997 1622.74 152.018C1659.72 142.039 1707.55 173.556 1754.4 205.772Z" fill="#E8EAF3"/>
<path d="M560.111 744.839C599.911 785.339 638.511 826.339 640.411 869.239C642.311 912.139 607.411 956.939 567.611 990.539C527.811 1024.24 483.011 1046.84 425.211 1059.74C367.511 1072.74 296.811 1076.14 260.411 1042.44C224.111 1008.74 222.211 938.039 239.811 885.039C257.511 831.939 294.811 796.639 331.211 756.139C367.511 715.639 402.811 669.939 441.011 667.139C479.211 664.339 520.211 704.339 560.111 744.839Z" fill="#E8EAF3"/>
<path d="M381.933 378.38C356.025 327.852 331.411 277.205 342.393 235.691C353.376 194.178 400.05 161.827 448.06 141.627C496.1 121.333 545.602 113.124 604.619 118.052C663.57 122.854 732.066 140.697 756.757 183.72C781.353 226.713 762.078 294.762 729.471 340.1C696.738 385.503 650.607 408.071 603.784 435.87C557.056 463.699 509.732 496.789 472.435 488.068C435.139 479.346 407.936 428.938 381.933 378.38Z" fill="#E8EAF3"/>
<path d="M1636.14 724.149C1686.66 750.073 1736.2 776.849 1751.5 816.973C1766.79 857.098 1747.76 910.602 1720.55 955.016C1693.37 999.526 1657.96 1035.07 1607.15 1065.5C1556.47 1095.99 1490.43 1121.46 1445.27 1100.92C1400.21 1080.35 1376.17 1013.84 1376.2 957.991C1376.3 902.018 1400.6 856.777 1422.41 806.882C1444.13 757.019 1463.26 702.535 1498.64 687.86C1534.02 673.185 1585.52 698.257 1636.14 724.149Z" fill="#E8EAF3"/>
<path d="M929.409 806.938C907.883 775.756 911.733 729.428 913.204 687.117C914.757 644.88 913.931 606.66 931.383 566.056C948.834 525.452 984.564 482.464 1023.27 479.474C1062.07 476.559 1103.84 513.643 1139.33 551.242C1174.73 588.845 1203.92 626.96 1205.26 665.784C1206.6 704.688 1180.24 744.292 1148.82 778.4C1117.49 812.503 1081.11 841.188 1039.43 847.595C997.83 853.997 950.931 838.041 929.409 806.938Z" fill="#E8EAF3"/>
</svg>
