<svg width="71" height="71" viewBox="0 0 71 71" fill="none" xmlns="http://www.w3.org/2000/svg">
<g clip-path="url(#clip0_161_62)">
<path d="M71 34.5857C71 53.687 55.3966 69.1714 36.1453 69.1714C30.0338 69.1714 24.2923 67.6094 19.297 64.868L0 71L6.29139 52.4438C3.11769 47.2324 1.28983 41.12 1.28983 34.5857C1.28983 15.4843 16.8948 0 36.1453 0C55.3981 0 71 15.4843 71 34.5857ZM36.1453 5.50802C19.9857 5.50802 6.84124 18.5523 6.84124 34.5857C6.84124 40.9481 8.91523 46.8403 12.4234 51.6336L8.76219 62.4327L20.0236 58.8535C24.6504 61.8915 30.1931 63.6633 36.1461 63.6633C52.3033 63.6633 65.4502 50.6206 65.4502 34.5873C65.4502 18.5539 52.3041 5.50802 36.1453 5.50802ZM53.7462 42.5511C53.5308 42.1985 52.9621 41.9855 52.1085 41.5618C51.2533 41.1382 47.0517 39.0863 46.2707 38.8047C45.4873 38.5222 44.9162 38.3802 44.3474 39.2283C43.7786 40.0771 42.1409 41.9855 41.6415 42.5511C41.1429 43.1183 40.6451 43.1893 39.79 42.7649C38.9364 42.3412 36.184 41.4451 32.9203 38.5577C30.3809 36.311 28.6659 33.5372 28.1673 32.6876C27.6695 31.8396 28.1152 31.3812 28.542 30.9592C28.927 30.5789 29.3972 29.9691 29.8239 29.4745C30.2523 28.979 30.3943 28.6264 30.6775 28.06C30.9639 27.4944 30.8211 26.9997 30.6065 26.5745C30.3935 26.1509 28.6832 21.9792 27.9716 20.2815C27.2601 18.5854 26.5493 18.8679 26.0499 18.8679C25.5521 18.8679 24.9817 18.7969 24.4122 18.7969C23.8426 18.7969 22.9164 19.0091 22.1331 19.8571C21.3505 20.706 19.144 22.7571 19.144 26.9279C19.144 31.0996 22.2041 35.13 22.6324 35.6949C23.0592 36.2597 28.5412 45.0984 37.2269 48.493C45.9133 51.886 45.9133 50.754 47.4801 50.612C49.0452 50.4707 52.5337 48.5616 53.2484 46.5831C53.9584 44.6014 53.9584 42.9045 53.7462 42.5511Z" fill="black"/>
</g>
<defs>
<clipPath id="clip0_161_62">
<rect width="71" height="71" fill="white"/>
</clipPath>
</defs>
</svg>
